<svg width="327" height="251" viewBox="0 0 327 251" fill="none" xmlns="http://www.w3.org/2000/svg">
<path d="M44.3271 244.37L277.534 242.009C277.534 242.009 310.567 233.073 313.084 206.258C315.729 178.074 281.316 170.375 308.623 135.853C335.93 101.331 337.4 51.8711 281.218 32.1036C226.503 12.8509 164.754 102.252 116.842 83.5738C64.1291 63.025 38.6167 92.0041 60.1762 115.519C81.7356 139.034 78.6459 150.274 69.136 160.628C59.626 170.983 69.136 184.75 69.136 184.75C69.136 184.75 61.4865 184.248 58.6442 169.014C57.0852 160.655 47.4876 148.444 32.5211 148.159C23.8203 147.996 8.54073 152.074 8.14904 164.307C7.55249 182.91 29.7201 200.352 13.7383 214.103C-2.2435 227.853 -16.1702 243.514 44.3271 244.37Z" fill="url(#paint0_linear_14_453)"/>
<path d="M273.538 245.041C273.538 245.041 276.463 249.819 280.312 248.939C284.16 248.058 283.082 244.78 285.679 244.241C288.277 243.703 295.24 249.085 302.005 243.948C308.771 238.811 303.868 230.688 307.986 224.671C312.104 218.653 324.9 219.68 323.919 217.479C322.939 215.277 308.771 212.537 297.494 216.256C286.218 219.975 286.464 219.914 284.352 225.839C282.24 231.765 280.136 227.166 276.999 227.46C273.862 227.753 273.538 245.041 273.538 245.041Z" fill="url(#paint1_linear_14_453)"/>
<path d="M274.698 243.606C274.698 243.606 274.11 239.79 282.935 239.202C291.76 238.614 293.474 236.603 294.701 230.564C295.928 224.524 300.044 220.365 304.751 219.045" stroke="#B55039" stroke-width="1.6" stroke-miterlimit="10" stroke-linecap="round"/>
<path d="M291.222 237.248C291.222 237.248 295.272 237.963 295.631 238.941" stroke="#B55039" stroke-width="1.6" stroke-miterlimit="10" stroke-linecap="round"/>
<path d="M294.07 233.093C294.07 233.093 299.129 234.016 299.978 235.778" stroke="#B55039" stroke-width="1.6" stroke-miterlimit="10" stroke-linecap="round"/>
<path d="M259.247 235.778C259.247 235.778 273.898 224.524 278.146 216.696C282.394 208.867 272.966 201.333 274.69 195.658C276.414 189.982 282.886 192.787 276.414 183.981C269.942 175.174 280.759 170.411 280.759 170.411C280.759 170.411 264.081 171.65 258.841 185.089C253.601 198.528 259.247 235.778 259.247 235.778Z" fill="url(#paint2_linear_14_453)"/>
<path d="M259.745 217.479C259.745 217.479 263.987 213.174 265.103 201.039C266.219 188.904 268.276 180.393 272.002 178.044" stroke="#D19B65" stroke-width="1.6" stroke-miterlimit="10" stroke-linecap="round" stroke-linejoin="round"/>
<path d="M266.115 192.727C266.115 192.727 270.531 190.504 272.002 190.895" stroke="#D19B65" stroke-width="1.6" stroke-miterlimit="10" stroke-linecap="round" stroke-linejoin="round"/>
<path d="M265.563 196.695C265.563 196.695 263.178 191.988 259.745 192.134" stroke="#D19B65" stroke-width="1.6" stroke-miterlimit="10" stroke-linecap="round" stroke-linejoin="round"/>
<path d="M264.478 205.644C264.478 205.644 267.834 203.73 271.022 205.296" stroke="#D19B65" stroke-width="1.6" stroke-miterlimit="10" stroke-linecap="round" stroke-linejoin="round"/>
<path d="M263.333 210.336C263.333 210.336 267.501 208.921 271.492 212.537" stroke="#D19B65" stroke-width="1.6" stroke-miterlimit="10" stroke-linecap="round" stroke-linejoin="round"/>
<path d="M258.863 246.052C258.863 246.052 267.262 249.998 273.081 246.933C278.899 243.867 274.387 238.973 275.761 237.017C277.134 235.062 285.369 239.692 288.31 234.799C291.252 229.907 286.808 224.165 290.01 221.555C293.211 218.945 305.829 215.813 305.045 205.768C304.26 195.723 297.201 187.567 317.66 178.694C317.66 178.694 305.976 177.554 300.781 181.761C295.586 185.969 296.172 191.595 291.515 193.65C286.857 195.705 282.151 191.938 277.738 196.244C273.326 200.55 272.64 205.1 273.131 209.844C273.622 214.589 274.846 216.157 270.875 217.38C266.904 218.602 261.708 221.245 260.14 229.415C258.571 237.586 258.863 246.052 258.863 246.052Z" fill="#99A5FF"/>
<path d="M297.985 193.847C297.985 193.847 294.507 204.074 289.699 209.553C284.892 215.032 280.632 216.513 275.483 221.932C269.159 228.585 262.638 244.241 262.638 244.241" stroke="#363CCC" stroke-width="1.6" stroke-miterlimit="10" stroke-linecap="round"/>
<path d="M267.256 234.483C267.256 234.483 263.308 228.311 262.948 226.639" stroke="#363CCC" stroke-width="1.6" stroke-miterlimit="10" stroke-linecap="round"/>
<path d="M269.197 230.926C269.197 230.926 277.427 229.059 281.415 229.549" stroke="#363CCC" stroke-width="1.6" stroke-miterlimit="10" stroke-linecap="round"/>
<path d="M271.492 227.152C271.492 227.152 275.924 225.307 280.5 225.995" stroke="#363CCC" stroke-width="1.6" stroke-miterlimit="10" stroke-linecap="round"/>
<path d="M283.37 215.276C283.37 215.276 278.245 209.455 278.146 203.877" stroke="#363CCC" stroke-width="1.6" stroke-miterlimit="10" stroke-linecap="round"/>
<path d="M287.582 211.767C287.582 211.767 283.343 206.752 283.147 202.675" stroke="#363CCC" stroke-width="1.6" stroke-miterlimit="10" stroke-linecap="round"/>
<path d="M206.478 169.58H252.373C252.667 169.58 252.958 169.638 253.23 169.75C253.502 169.863 253.749 170.027 253.957 170.235C254.165 170.443 254.33 170.689 254.443 170.961C254.556 171.232 254.613 171.523 254.613 171.816V248.255H200.653V175.394C200.653 173.852 201.267 172.373 202.359 171.283C203.452 170.193 204.933 169.58 206.478 169.58Z" fill="#5563EF"/>
<path d="M246.68 169.58H259.365C259.959 169.58 260.529 169.816 260.95 170.235C261.37 170.654 261.606 171.223 261.606 171.816V248.255H244.441V171.815C244.441 171.222 244.677 170.654 245.097 170.235C245.517 169.816 246.087 169.58 246.68 169.58Z" fill="#363CCC"/>
<path d="M88.9032 128.956H193.881C194.913 128.956 195.902 129.365 196.632 130.093C197.361 130.821 197.771 131.808 197.771 132.838V193.596H85.0082V132.836C85.0083 132.326 85.1093 131.821 85.3051 131.35C85.501 130.879 85.788 130.451 86.1498 130.09C86.5115 129.73 86.9409 129.444 87.4133 129.25C87.8858 129.055 88.392 128.955 88.9032 128.956Z" fill="#363CCC"/>
<path d="M209.741 135.397V193.603H96.9791V135.397C96.9819 133.689 97.6628 132.052 98.8728 130.844C100.083 129.637 101.723 128.957 103.434 128.954H203.283C204.131 128.954 204.97 129.121 205.754 129.444C206.537 129.768 207.249 130.243 207.849 130.841C208.448 131.439 208.924 132.149 209.249 132.931C209.573 133.713 209.74 134.55 209.741 135.397Z" fill="url(#paint3_linear_14_453)"/>
<path opacity="0.4" d="M209.741 170.123V193.603H96.9791V135.397C96.9775 134.059 97.3966 132.755 98.1774 131.668C99.2326 136.168 106.087 158.767 139.231 172.567C169.607 185.211 199.926 174.371 209.741 170.123Z" fill="#12664E"/>
<path d="M234.105 197.981V206.568H135.125V193.21H229.326C230.594 193.211 231.809 193.714 232.705 194.608C233.602 195.503 234.105 196.716 234.105 197.981Z" fill="#8388FF"/>
<path d="M234.105 206.568H135.125V248.255H234.105V206.568Z" fill="#7176FF"/>
<path d="M217 188.265V191.707C216.999 192.104 216.841 192.484 216.56 192.765C216.28 193.045 215.899 193.203 215.501 193.204H191.407V186.766H215.501C215.899 186.767 216.28 186.925 216.561 187.206C216.842 187.487 217 187.868 217 188.265Z" fill="#FF8271"/>
<path d="M196.102 188.265V191.707C196.102 192.104 195.944 192.485 195.663 192.765C195.382 193.046 195.001 193.204 194.604 193.204H191.406V186.766H194.604C195.002 186.766 195.383 186.925 195.664 187.206C195.945 187.487 196.103 187.868 196.102 188.265Z" fill="url(#paint4_linear_14_453)"/>
<g style="mix-blend-mode:multiply" opacity="0.6">
<path d="M217 191.494V191.707C216.999 192.104 216.841 192.484 216.56 192.765C216.28 193.045 215.899 193.203 215.501 193.204H191.407V191.491L217 191.494Z" fill="#E0714F"/>
</g>
<path d="M193.421 187.58V192.015L192.703 192.839H183.546V187.259L192.505 187.091L193.421 187.58Z" fill="url(#paint5_linear_14_453)"/>
<path d="M193.421 187.584V192.015L192.703 192.839H183.546V192.736C183.641 192.619 183.744 192.509 183.853 192.406C193.378 191.838 192.707 187.42 192.707 187.42L193.421 187.584Z" fill="#D6ECF2"/>
<path d="M192.325 193.207H182.701V192.409H192.325C192.51 192.409 192.688 192.335 192.819 192.204C192.95 192.073 193.024 191.895 193.024 191.71V188.265C193.024 188.08 192.95 187.903 192.819 187.772C192.688 187.641 192.51 187.567 192.325 187.567H182.701V186.768H192.325C192.722 186.769 193.103 186.927 193.384 187.207C193.665 187.488 193.824 187.868 193.824 188.265V191.707C193.824 191.904 193.786 192.099 193.711 192.281C193.635 192.463 193.525 192.628 193.386 192.767C193.246 192.906 193.081 193.017 192.899 193.092C192.717 193.168 192.522 193.206 192.325 193.207Z" fill="#AF533E"/>
<path d="M213.025 181.827V185.278C213.024 185.675 212.866 186.055 212.585 186.336C212.304 186.617 211.923 186.774 211.525 186.775H187.428V180.336H211.522C211.919 180.336 212.3 180.493 212.582 180.772C212.863 181.052 213.022 181.431 213.025 181.827Z" fill="url(#paint6_linear_14_453)"/>
<path d="M192.127 181.827V185.278C192.127 185.675 191.969 186.055 191.688 186.336C191.407 186.616 191.026 186.774 190.629 186.775H187.428V180.336H190.626C191.023 180.337 191.403 180.494 191.685 180.773C191.966 181.052 192.125 181.431 192.127 181.827Z" fill="url(#paint7_linear_14_453)"/>
<path opacity="0.8" d="M213.025 185.056V185.278C213.024 185.675 212.866 186.055 212.585 186.336C212.304 186.617 211.923 186.774 211.525 186.775H187.428V185.062L213.025 185.056Z" fill="#17616D"/>
<path d="M189.446 181.14V185.576L188.728 186.399H179.571V180.82L188.53 180.653L189.446 181.14Z" fill="url(#paint8_linear_14_453)"/>
<path d="M189.446 181.145V185.576L188.728 186.399H179.569V186.307C179.664 186.19 179.767 186.079 179.876 185.975C189.401 185.408 188.73 180.991 188.73 180.991L189.446 181.145Z" fill="#D6ECF2"/>
<path d="M188.347 186.768H178.724V185.97H188.347C188.533 185.969 188.71 185.896 188.841 185.765C188.973 185.634 189.046 185.457 189.047 185.272V181.827C189.046 181.642 188.973 181.464 188.841 181.333C188.71 181.203 188.533 181.129 188.347 181.128H178.724V180.33H188.347C188.745 180.331 189.125 180.489 189.406 180.769C189.687 181.05 189.845 181.43 189.846 181.827V185.278C189.844 185.674 189.685 186.052 189.404 186.331C189.123 186.611 188.743 186.768 188.347 186.768Z" fill="url(#paint9_linear_14_453)"/>
<path style="mix-blend-mode:multiply" d="M316.094 86.4527H218.595C217.224 86.4527 216.113 87.5615 216.113 88.9293V157.072C216.113 158.44 217.224 159.549 218.595 159.549H316.094C317.465 159.549 318.576 158.44 318.576 157.072V88.9293C318.576 87.5615 317.465 86.4527 316.094 86.4527Z" fill="url(#paint10_linear_14_453)"/>
<path d="M311.027 89.5851H223.664C221.389 89.5851 219.546 91.425 219.546 93.6947V152.31C219.546 154.579 221.389 156.419 223.664 156.419H311.027C313.301 156.419 315.145 154.579 315.145 152.31V93.6947C315.145 91.425 313.301 89.5851 311.027 89.5851Z" fill="white"/>
<path d="M274.06 118.404C271.341 122.262 270.041 131.588 265.703 130.831C261.365 130.073 257.344 119.282 257.344 119.282C258.272 116.764 258.95 114.16 259.368 111.509C259.613 109.971 259.715 108.413 259.672 106.856C264.206 106.708 271.365 106.538 271.365 106.538C271.365 106.538 271.634 109.004 272.075 111.693C272.568 114.684 273.274 117.951 274.06 118.404Z" fill="url(#paint11_linear_14_453)"/>
<path d="M272.08 111.693C266.74 116.092 261.565 113.178 259.373 111.509C259.618 109.971 259.72 108.413 259.677 106.856C264.211 106.708 271.37 106.538 271.37 106.538C271.37 106.538 271.634 109.004 272.08 111.693Z" fill="#F49DB2"/>
<path d="M266.34 129.02L259.615 120.148L254.814 118.19C254.814 118.19 242.134 121.68 239.518 122.854C236.902 124.028 235.074 126.312 235.074 126.866C235.074 127.42 240.728 156.418 240.728 156.418H265.702L268.864 147.031L266.34 129.02Z" fill="url(#paint12_linear_14_453)"/>
<path d="M308.624 156.418H293.818L292.58 155.211L285.19 148.002L285.777 133.857L293.339 122.399C293.339 122.399 293.427 121.714 294.714 124.439C295.269 125.622 296.053 127.444 297.149 130.238C300.78 139.49 308.624 156.418 308.624 156.418Z" fill="url(#paint13_linear_14_453)"/>
<path d="M292.58 155.211L285.19 148.002L285.777 133.857L293.339 122.399C293.339 122.399 293.427 121.714 294.714 124.439C294.238 126.882 292.597 135.263 291.708 138.701C290.855 142.018 292.101 151.781 292.58 155.211Z" fill="#BC563F"/>
<path d="M255.709 98.0654C255.709 98.0654 254.28 97.4135 253.936 99.125C253.592 100.836 254.402 106.929 259.06 104.459C259.109 100.569 258.202 99.2227 258.202 99.2227C258.202 99.2227 257.041 97.2502 255.709 98.0654Z" fill="url(#paint14_linear_14_453)"/>
<path d="M274.184 97.29C274.184 97.29 276.536 97.0701 276.954 99.3705C277.371 101.671 275.115 105.828 272.223 105.094C271.707 101.106 272.149 97.1678 274.184 97.29Z" fill="url(#paint15_linear_14_453)"/>
<path d="M273.252 97.4134L272.852 99.5004C272.852 99.5004 272.835 105.755 272.321 106.758C271.807 107.761 265.188 111.014 259.06 107.075C258.251 102.55 258.029 101.148 258.029 101.148L256.73 95.5052V90.588L260.653 87.4068L267.541 86.8204L272.125 88.6798L274.306 92.1041L274.135 95.4074L273.252 97.4134Z" fill="url(#paint16_linear_14_453)"/>
<path d="M272.853 99.5004L273.033 93.5237C273.033 93.5237 272.224 92.9361 272.248 92.0064C272.248 92.0064 270.402 92.2108 269.945 89.6172C269.945 89.6172 267.068 90.5958 265.515 88.7686C265.515 88.7686 263.652 90.6279 262.737 90.5469C261.822 90.4659 260.661 89.8461 260.661 89.8461C260.661 89.8461 259.583 93.1405 257.44 93.1727C257.44 93.1727 258.093 98.5219 258.028 101.145C258.028 101.145 256.868 98.4447 255.709 98.059C255.709 98.059 255.938 96.1829 255.611 95.792C255.283 95.4011 253.471 94.9922 253.65 93.1495C253.829 91.3069 255.268 90.0017 255.268 90.0017C255.268 90.0017 253.699 87.8659 254.483 85.9744C255.268 84.0828 257.899 85.4356 258.029 84.4082C258.159 83.3808 258.618 80.3153 259.926 79.9719C261.233 79.6286 263.325 81.1794 263.897 80.6149C264.469 80.0504 266.543 78.4777 267.917 79.7662C269.29 81.0546 269.959 81.4957 270.792 80.9235C271.626 80.3513 274.077 80.1082 274.453 82.6028C274.829 85.0974 273.734 85.9139 274.698 86.7613C275.662 87.6087 277.052 88.9087 276.152 90.2074C275.253 91.5062 276.539 92.144 276.659 93.0736C276.779 94.0033 274.927 95.6994 274.927 95.6994C274.927 95.6994 275.336 96.6445 274.698 97.461C274.06 98.2776 273.326 97.9021 272.853 99.5004Z" fill="url(#paint17_linear_14_453)"/>
<path d="M266.773 121.224L267.687 122.659L266.34 129.02C266.34 129.02 266.266 154.609 265.702 156.418H285.974C285.974 156.418 287.249 142.181 287.298 139.05C290.337 130.435 293.572 124.274 293.474 122.757C293.377 121.239 287.64 120.699 284.798 120.164C281.956 119.629 275.531 118.706 275.531 118.706L266.773 121.224Z" fill="url(#paint18_linear_14_453)"/>
<path d="M244.597 145.018C244.21 147.855 240.724 156.418 240.724 156.418H230.184C230.184 156.418 231.018 149.121 231.948 141.394C232.559 136.325 233.308 131.479 234.07 128.72C234.472 127.276 234.877 126.406 235.269 126.371C235.269 126.371 240.479 135.578 242.39 138.17C244.301 140.763 244.99 142.182 244.597 145.018Z" fill="url(#paint19_linear_14_453)"/>
<path d="M244.597 145.018C244.21 147.855 240.724 156.418 240.724 156.418H235.055C236.155 153.461 239.414 144.138 238.722 139.245C238.087 134.776 235.35 130.501 234.077 128.72C234.479 127.276 234.883 126.406 235.275 126.371C235.275 126.371 240.486 135.578 242.396 138.17C244.307 140.763 244.99 142.182 244.597 145.018Z" fill="#BC563F"/>
<path d="M266.773 121.224L272.786 124.062L275.531 118.706C275.531 118.706 274.944 117.13 273.89 117.034C271.645 118.636 269.263 120.037 266.773 121.224Z" fill="url(#paint20_linear_14_453)"/>
<path d="M258.209 146.801C257.51 146.801 256.89 146.732 256.534 146.535C255.322 145.857 253.764 142.322 253.829 139.635C253.898 136.827 255.633 134.414 256.546 134.037C257.033 133.837 258.686 133.896 261.46 134.214L261.289 135.698C259.614 135.506 257.586 135.353 257.108 135.426C256.672 135.722 255.379 137.471 255.325 139.67C255.263 142.15 256.784 144.942 257.264 145.231C257.627 145.396 259.497 145.295 261.258 145.014L261.496 146.489C260.41 146.672 259.311 146.776 258.209 146.801Z" fill="#363CCC"/>
<path d="M260.694 133.69H271.049V147.049C269.426 147.803 267.658 148.194 265.869 148.194C264.079 148.194 262.311 147.803 260.688 147.049L260.694 133.69Z" fill="#363CCC"/>
<path d="M263.374 121.387C263.374 121.387 258.691 124.616 258.226 124.738C257.761 124.86 254.811 118.19 254.811 118.19L256.486 116.836C256.486 116.836 262.442 120.995 263.374 121.387Z" fill="url(#paint21_linear_14_453)"/>
<path d="M242.13 156.418C242.13 156.418 248.274 149.177 248.6 147.931C248.6 147.931 254.058 148.551 256.151 146.823C258.243 145.095 258.599 144.964 258.307 143.365C258.016 141.767 258.887 141.367 258.52 140.34C258.153 139.312 257.295 138.211 257.295 138.211C257.295 138.211 258.005 136.523 257.344 135.986C256.683 135.448 251.559 138.089 248.886 139.924C246.214 141.759 245.847 142.565 245.847 142.565C245.847 142.565 234.251 152.009 233.567 152.922C232.882 153.835 234.809 156.412 234.809 156.412L242.13 156.418Z" fill="url(#paint22_linear_14_453)"/>
<path d="M230.183 156.418C230.183 156.418 229.252 155.073 229.498 154.361C229.744 153.648 232.59 152.159 234.007 152.379C234.865 154.507 235.012 156.415 236.584 156.415L230.183 156.418Z" fill="url(#paint23_linear_14_453)"/>
<path opacity="0.5" d="M279.91 150.431C280.258 148.958 279.344 147.482 277.869 147.134C276.393 146.787 274.914 147.699 274.566 149.172C274.217 150.645 275.131 152.121 276.607 152.468C278.083 152.816 279.562 151.904 279.91 150.431Z" fill="white"/>
<path d="M269.743 150.41C270.067 148.419 268.712 146.542 266.717 146.219C264.721 145.896 262.841 147.248 262.517 149.239C262.193 151.231 263.548 153.107 265.543 153.431C267.539 153.754 269.419 152.402 269.743 150.41Z" fill="white"/>
<path opacity="0.5" d="M257.653 150.431C258.001 148.958 257.087 147.482 255.611 147.134C254.136 146.787 252.657 147.699 252.308 149.172C251.96 150.645 252.874 152.121 254.35 152.468C255.826 152.816 257.305 151.904 257.653 150.431Z" fill="white"/>
<path d="M64.4509 111.076H44.4129C43.9925 111.076 43.5894 110.909 43.2922 110.613C42.995 110.316 42.8281 109.914 42.8281 109.494V73.2854C42.8281 72.866 42.995 72.4637 43.2922 72.1671C43.5894 71.8705 43.9925 71.7038 44.4129 71.7038H64.4509V111.076Z" fill="#363CCC"/>
<path d="M64.1828 71.7039V111.076H71.518C71.6281 111.076 71.7371 111.054 71.8388 111.012C71.9405 110.97 72.0328 110.908 72.1106 110.831C72.1884 110.753 72.2501 110.661 72.2921 110.559C72.3341 110.457 72.3556 110.349 72.3555 110.239V72.541C72.3555 72.3192 72.2673 72.1064 72.1103 71.9495C71.9532 71.7925 71.7402 71.7042 71.518 71.7039H64.1828Z" fill="url(#paint24_linear_14_453)"/>
<path opacity="0.7" d="M65.6363 80.3076H71.1689V78.87H65.6363V80.3076Z" fill="white"/>
<path opacity="0.7" d="M65.6363 82.7996H71.1689V81.362H65.6363V82.7996Z" fill="white"/>
<path d="M54.6599 111.076H38.9523C38.532 111.076 38.1289 110.909 37.8317 110.613C37.5345 110.316 37.3676 109.914 37.3676 109.494V81.1704C37.3676 80.7509 37.5345 80.3486 37.8317 80.052C38.1289 79.7554 38.532 79.5888 38.9523 79.5888H54.6599L54.6599 111.076Z" fill="#FF8271"/>
<path d="M54.446 79.5888V111.076H60.3111C60.3991 111.076 60.4863 111.059 60.5677 111.025C60.649 110.992 60.723 110.942 60.7852 110.88C60.8475 110.818 60.8968 110.744 60.9304 110.663C60.964 110.582 60.9812 110.495 60.9811 110.407V80.2587C60.9812 80.1708 60.964 80.0837 60.9304 80.0024C60.8969 79.9212 60.8475 79.8473 60.7853 79.7851C60.7231 79.7228 60.6491 79.6735 60.5678 79.6398C60.4864 79.6061 60.3992 79.5888 60.3111 79.5888H54.446Z" fill="#FF8271"/>
<path opacity="0.7" d="M55.6082 86.4707H60.0328V85.3211H55.6082V86.4707Z" fill="white"/>
<path opacity="0.7" d="M55.6082 88.4625H60.0328V87.313H55.6082V88.4625Z" fill="white"/>
<path d="M45.4435 111.076H29.736C29.3157 111.076 28.9126 110.909 28.6154 110.613C28.3182 110.316 28.1512 109.914 28.1512 109.494L28.1512 81.1704C28.1512 80.7509 28.3182 80.3486 28.6154 80.052C28.9126 79.7554 29.3157 79.5888 29.736 79.5888H45.4435L45.4435 111.076Z" fill="#E3604F"/>
<path d="M45.2285 79.5888V111.076H51.0948C51.1828 111.076 51.2699 111.058 51.3512 111.025C51.4325 110.991 51.5063 110.942 51.5686 110.88C51.6308 110.818 51.6801 110.744 51.7138 110.663C51.7475 110.582 51.7648 110.495 51.7648 110.407V80.2587C51.7648 80.0813 51.6942 79.911 51.5686 79.7854C51.443 79.6598 51.2726 79.5891 51.0948 79.5888H45.2285Z" fill="#E3604F"/>
<path d="M79.1985 111.076H42.6799V117.649H79.1985V111.076Z" fill="url(#paint25_linear_14_453)"/>
<path d="M42.6786 111.076H18.0138V117.649H42.6786V111.076Z" fill="url(#paint26_linear_14_453)"/>
<path style="mix-blend-mode:multiply" d="M241.286 6.97192H143.787C142.416 6.97192 141.305 8.08073 141.305 9.4485V77.5917C141.305 78.9595 142.416 80.0683 143.787 80.0683H241.286C242.657 80.0683 243.768 78.9595 243.768 77.5917V9.4485C243.768 8.08073 242.657 6.97192 241.286 6.97192Z" fill="url(#paint27_linear_14_453)"/>
<path d="M236.219 10.103H148.855C146.581 10.103 144.738 11.943 144.738 14.2127V72.8276C144.738 75.0973 146.581 76.9372 148.855 76.9372H236.219C238.493 76.9372 240.337 75.0973 240.337 72.8276V14.2127C240.337 11.943 238.493 10.103 236.219 10.103Z" fill="white"/>
<path d="M194.154 49.9212L191.602 50.1257L173.111 51.6147C173.111 51.6147 169.679 48.944 169.187 47.9963C168.695 47.0486 170.495 46.9843 171.28 46.3002C172.064 45.6161 170.038 44.1143 169.285 43.137C168.533 42.1597 169.515 41.4731 172.751 40.2335C175.988 38.9939 174.744 36.0917 174.188 30.677C173.631 25.2622 174.445 18.8689 175.529 17.7926C176.613 16.7163 181.456 17.3683 181.456 17.3683C181.456 17.3683 196.26 36.3528 196.309 40.0226C196.358 43.6925 198.223 42.9094 198.614 44.0332C199.006 45.1571 194.154 49.9212 194.154 49.9212Z" fill="url(#paint28_linear_14_453)"/>
<path d="M191.602 50.1257L173.111 51.6147C173.111 51.6147 169.679 48.944 169.187 47.9963C182.654 48.2239 181.279 39.3527 178.405 32.6816C175.53 26.0106 179.61 19.2456 179.61 19.2456L183.176 23.3051L191.602 50.1257Z" fill="#332110"/>
<path d="M209.597 76.9284H217.932C217.932 76.9284 220.334 75.6426 219.349 71.4815C212.633 70.7486 208.269 71.4815 208.269 71.4815C208.269 71.4815 208.323 74.5483 209.597 76.9284Z" fill="url(#paint29_linear_14_453)"/>
<path d="M211.475 64.8618L211.018 76.9296H175.199C175.199 76.9296 174.742 69.8844 173.305 63.2994C171.941 57.054 170.534 53.0382 170.851 51.7999C170.865 51.7376 170.888 51.6775 170.919 51.6212C171.354 50.8291 180.64 46.6809 184.145 45.1366L185.469 44.5566L195.874 45.2652H195.883C196.598 45.8145 197.362 46.2979 198.166 46.7092L198.179 46.7182C199.257 47.289 200.411 47.7021 201.607 47.9449C203.961 48.3859 205.433 48.6611 206.269 49.3105C206.542 49.516 206.76 49.7865 206.901 50.0974C207.488 51.3743 211.475 64.8618 211.475 64.8618Z" fill="url(#paint30_linear_14_453)"/>
<path d="M211.475 64.8617L211.018 76.9295H204.348C203.026 75.5151 201.676 73.5451 202.344 71.9044C203.382 69.3635 205.671 53.5165 206.268 49.313C206.541 49.5185 206.758 49.789 206.9 50.0999C207.488 51.3742 211.475 64.8617 211.475 64.8617Z" fill="#124E54"/>
<path d="M198.369 75.7876C198.369 75.7876 198.032 76.3148 197.626 76.9295H175.198C175.198 76.9295 174.741 69.8842 173.304 63.2993C171.939 57.0539 170.532 53.0381 170.849 51.7998C172.544 52.4299 178.25 54.6287 181.18 56.6115C184.644 58.9608 191.262 75.7426 192.879 75.7915C194.496 75.8404 198.369 75.7876 198.369 75.7876Z" fill="#124E54"/>
<path d="M197.733 54.5529L196.316 65.1703L193.341 74.156L186.608 56.51L184.129 45.2612L184.149 45.1327L185.473 44.5527L195.877 45.2612H195.887L198.17 46.7053L198.183 46.7143L197.733 54.5529Z" fill="white"/>
<path d="M197.292 47.0189C193.762 53.7209 193.664 54.8473 191.507 52.9866C189.35 51.126 184.79 47.5269 184.741 46.7348C184.692 45.9427 185.886 44.9963 185.984 40.8198C185.99 40.5626 185.993 40.3054 185.995 40.0676C186.012 36.4311 185.5 34.8611 185.5 34.8611L194.695 39.6792C194.695 39.6792 194.867 43.3105 196.002 45.5363C196.34 46.1998 196.764 46.7373 197.292 47.0189Z" fill="url(#paint31_linear_14_453)"/>
<path d="M196.003 45.5364C193.927 46.1793 189.724 46.4365 185.995 40.0676C186.012 36.4311 185.5 34.8611 185.5 34.8611L194.695 39.6792C194.695 39.6792 194.868 43.3105 196.003 45.5364Z" fill="#E08C7E"/>
<path d="M201.41 25.9309L200.576 28.059C200.576 28.059 200.061 32.6341 199.988 34.1502C199.914 35.6662 199.988 37.4536 199.302 38.4565C198.617 39.4595 196.339 41.9785 194.105 41.7342C191.87 41.4899 187.83 39.093 187.119 37.7956C186.407 36.4982 185.502 34.86 185.502 34.86C185.502 34.86 184.66 36.0751 183.238 35.031C181.815 33.9869 180.705 33.7271 180.428 31.509C179.888 28.6222 180.55 26.714 180.55 26.714L195.883 16.9414L200.883 20.1046L201.831 23.9545L201.41 25.9309Z" fill="url(#paint32_linear_14_453)"/>
<path d="M196.703 18.5436C196.703 18.5436 196.41 24.7569 193.517 26.9583C190.625 29.1597 186.213 30.3311 185.676 32.683C185.676 32.683 184.204 28.2313 182.685 28.2557C181.166 28.2802 180.184 29.7229 180.43 31.509C180.43 31.509 177.366 28.4512 178.298 24.1204C179.229 19.7896 180.528 13.9621 186.46 12.6762C192.392 11.3903 194.427 10.7191 196.486 13.6792C196.486 13.6792 199.01 13.6792 200.408 14.9998C201.806 16.3203 202.883 19.5504 202.711 22.4578C202.54 25.3651 200.579 28.059 200.579 28.059C200.579 28.059 201.217 25.4667 201.217 24.1204C201.214 24.1204 198.664 19.5954 196.703 18.5436Z" fill="url(#paint33_linear_14_453)"/>
<path d="M197.987 46.6205C197.987 46.6205 198.175 47.2467 197.063 55.2049C195.951 63.1632 193.337 74.156 193.337 74.156L200.691 58.9237L198.114 54.3254L201.284 52.8248L200.15 47.5618C200.15 47.5618 198.993 46.425 197.987 46.6205Z" fill="#35B6C4"/>
<path d="M184.075 45.1624C184.075 45.1624 184.741 46.3994 186.081 51.3898C187.421 56.3803 193.337 74.1497 193.337 74.1497C193.337 74.1497 184.446 59.7325 183.042 58.2975C184.545 54.8398 185.297 53.307 185.297 53.307L181.174 51.2201L181.956 46.0946C181.956 46.0946 182.885 45.1624 184.075 45.1624Z" fill="#35B6C4"/>
<path d="M189.514 76.9296H177.714C177.714 76.9296 172.519 66.7198 171.242 61.4992C169.965 56.2785 169.281 51.5183 170.918 51.616C170.918 51.616 172.03 52.2705 173.551 53.2079C176.615 55.0955 181.34 58.1366 181.997 59.3145C182.976 61.0761 189.514 76.9296 189.514 76.9296Z" fill="url(#paint34_linear_14_453)"/>
<path d="M232.1 33.7913H206.411V73.2429H232.1V33.7913Z" fill="url(#paint35_linear_14_453)"/>
<path d="M227.982 40.177H210.529V41.612H227.982V40.177Z" fill="#C5D6D8"/>
<path d="M227.982 44.3843H210.529V45.8193H227.982V44.3843Z" fill="#C5D6D8"/>
<path d="M227.982 48.593H210.529V50.028H227.982V48.593Z" fill="#C5D6D8"/>
<path d="M227.982 52.8003H210.529V54.2353H227.982V52.8003Z" fill="#C5D6D8"/>
<path d="M227.982 57.0076H210.529V58.4426H227.982V57.0076Z" fill="#C5D6D8"/>
<path d="M227.982 61.2151H210.529V62.6501H227.982V61.2151Z" fill="#C5D6D8"/>
<path d="M227.982 65.4236H210.529V66.8586H227.982V65.4236Z" fill="#C5D6D8"/>
<path d="M210.775 68.6935C210.969 69.5255 204.549 76.9295 204.549 76.9295H194.987L208.078 64.2727C208.078 64.2727 208.95 65.5251 209.704 66.7159C210.227 67.5491 210.693 68.3515 210.775 68.6935Z" fill="url(#paint36_linear_14_453)"/>
<path d="M214.475 65.3903C213.005 66.3701 210.583 68.2192 210.583 68.2192L209.433 66.3765L208.519 64.9081C208.519 64.9081 209.614 58.5327 212.064 53.7853C214.515 49.0379 216.508 48.4811 216.919 49.2295C217.33 49.9778 214.157 56.1616 214.157 56.1616C214.644 56.4539 215.098 56.7988 215.51 57.1903C216.283 57.9181 217.116 59.0046 217.244 60.3702C217.49 62.9921 215.946 64.4066 214.475 65.3903Z" fill="url(#paint37_linear_14_453)"/>
<path style="mix-blend-mode:screen" d="M182.618 76.9296H177.714C177.714 76.9296 172.519 66.7198 171.242 61.4992C169.965 56.2785 169.281 51.5183 170.918 51.616C170.918 51.616 172.03 52.2705 173.551 53.2079C173.447 54.9618 173.693 57.6801 175.264 61.1404C177.704 66.5089 181.518 74.5996 182.618 76.9296Z" fill="url(#paint38_linear_14_453)"/>
<path style="mix-blend-mode:screen" d="M209.704 66.7211L200.121 76.9283H194.987L208.078 64.2715C208.078 64.2715 208.95 65.5252 209.704 66.7211Z" fill="url(#paint39_linear_14_453)"/>
<path d="M214.475 65.3902C213.005 66.37 210.583 68.2191 210.583 68.2191L209.433 66.3764C209.701 66.1835 213.054 63.7777 214.777 61.4618C215.983 59.8442 215.778 58.1379 215.51 57.1902C216.283 57.918 217.116 59.0045 217.244 60.3701C217.49 62.992 215.946 64.4065 214.475 65.3902Z" fill="#E08C7E"/>
<path d="M162.876 18.4458L168.073 22.4088H161.651L162.876 18.4458Z" fill="url(#paint40_linear_14_453)"/>
<path d="M151.502 29.6495C158.406 29.6495 164.004 23.0122 164.004 14.8248C164.004 6.63727 158.406 0 151.502 0C144.597 0 139 6.63727 139 14.8248C139 23.0122 144.597 29.6495 151.502 29.6495Z" fill="#8388FF"/>
<path opacity="0.7" d="M156.502 10.9594H146.507C146.436 10.9594 146.366 10.9455 146.3 10.9184C146.235 10.8913 146.175 10.8516 146.125 10.8016C146.075 10.7515 146.036 10.6921 146.009 10.6267C145.982 10.5614 145.968 10.4914 145.968 10.4207C145.969 10.2786 146.026 10.1425 146.127 10.0423C146.228 9.94202 146.364 9.88574 146.507 9.88574H156.508C156.578 9.88557 156.649 9.89935 156.714 9.92629C156.78 9.95322 156.839 9.99279 156.889 10.0427C156.939 10.0926 156.979 10.152 157.006 10.2172C157.033 10.2825 157.047 10.3525 157.047 10.4232C157.047 10.4943 157.033 10.5645 157.005 10.63C156.978 10.6955 156.938 10.7549 156.887 10.8048C156.836 10.8546 156.776 10.894 156.71 10.9205C156.644 10.9471 156.574 10.9603 156.502 10.9594Z" fill="white"/>
<path d="M158.483 13.7485H144.522C144.343 13.7485 144.198 13.8936 144.198 14.0726V14.5008C144.198 14.6797 144.343 14.8248 144.522 14.8248H158.483C158.662 14.8248 158.808 14.6797 158.808 14.5008V14.0726C158.808 13.8936 158.662 13.7485 158.483 13.7485Z" fill="white"/>
<path opacity="0.7" d="M156.502 18.69H146.507C146.364 18.6897 146.227 18.6328 146.126 18.5318C146.025 18.4308 145.968 18.2939 145.968 18.1513C145.968 18.0087 146.025 17.872 146.126 17.7712C146.227 17.6704 146.364 17.6138 146.507 17.6138H156.508C156.578 17.6136 156.649 17.6274 156.714 17.6543C156.78 17.6813 156.839 17.7208 156.889 17.7707C156.939 17.8207 156.979 17.88 157.006 17.9453C157.033 18.0106 157.047 18.0806 157.047 18.1513C157.047 18.2225 157.033 18.2929 157.006 18.3586C156.978 18.4243 156.938 18.484 156.887 18.5341C156.837 18.5842 156.777 18.6237 156.711 18.6505C156.644 18.6773 156.574 18.6907 156.502 18.69Z" fill="white"/>
<path opacity="0.5" d="M205.1 70.9528C205.449 69.4799 204.535 68.0041 203.059 67.6565C201.583 67.3089 200.104 68.221 199.756 69.6939C199.408 71.1668 200.322 72.6427 201.798 72.9903C203.273 73.3379 204.752 72.4257 205.1 70.9528Z" fill="white"/>
<path d="M192.712 73.7066C194.58 72.9345 195.467 70.7976 194.693 68.9336C193.92 67.0696 191.778 66.1844 189.911 66.9565C188.043 67.7286 187.156 69.8656 187.93 71.7296C188.703 73.5936 190.845 74.4787 192.712 73.7066Z" fill="white"/>
<path opacity="0.5" d="M182.844 70.9528C183.192 69.4799 182.278 68.0041 180.802 67.6565C179.326 67.3088 177.847 68.221 177.499 69.6939C177.151 71.1668 178.065 72.6427 179.541 72.9903C181.017 73.3379 182.495 72.4257 182.844 70.9528Z" fill="white"/>
<path fill-rule="evenodd" clip-rule="evenodd" d="M180.122 100.74C180.122 108.63 171.825 115.026 161.59 115.026C155.521 115.026 150.133 112.777 146.752 109.301L137.407 112.188L143.591 104.156C143.243 103.061 143.058 101.917 143.058 100.74C143.058 92.8501 151.355 86.4541 161.59 86.4541C171.825 86.4541 180.122 92.8501 180.122 100.74Z" fill="url(#paint41_linear_14_453)" style="mix-blend-mode:multiply"/>
<path d="M153.92 102.577C154.936 102.577 155.761 101.755 155.761 100.74C155.761 99.7251 154.936 98.9025 153.92 98.9025C152.903 98.9025 152.078 99.7251 152.078 100.74C152.078 101.755 152.903 102.577 153.92 102.577Z" fill="white"/>
<path d="M161.59 102.577C162.607 102.577 163.431 101.755 163.431 100.74C163.431 99.7251 162.607 98.9025 161.59 98.9025C160.573 98.9025 159.749 99.7251 159.749 100.74C159.749 101.755 160.573 102.577 161.59 102.577Z" fill="white"/>
<path d="M169.259 102.577C170.275 102.577 171.1 101.755 171.1 100.74C171.1 99.7251 170.275 98.9025 169.259 98.9025C168.242 98.9025 167.417 99.7251 167.417 100.74C167.417 101.755 168.242 102.577 169.259 102.577Z" fill="white"/>
<path d="M192.453 244.877C191.049 245.432 181.701 244.877 181.701 244.877C181.701 244.877 175.099 246.084 174.701 245.19C174.303 244.297 176.144 238.909 176.144 238.909L179.377 238.716L183.858 238.459C183.858 238.459 184.479 239.077 187.337 240.285C191.452 239.117 197.601 239.981 198.946 240.812C199.044 240.866 199.127 240.942 199.188 241.036C199.64 241.909 193.857 244.324 192.453 244.877Z" fill="url(#paint42_linear_14_453)"/>
<path d="M192.453 244.877C191.049 245.432 181.701 244.877 181.701 244.877C181.701 244.877 175.099 246.084 174.701 245.19C174.303 244.297 176.144 238.909 176.144 238.909L179.377 238.716C179.377 238.716 179.61 242.106 184.015 242.725C188.138 243.304 196.601 243.229 198.938 240.806C199.036 240.859 199.119 240.936 199.18 241.029C199.64 241.909 193.857 244.324 192.453 244.877Z" fill="#D89A48"/>
<path d="M183.854 238.452L179.373 238.71L176.14 238.903C176.14 238.903 168.232 218.092 165.096 206.937C159.996 190.888 145.877 179.283 145.877 179.283L162.284 179.179C162.284 179.179 165.459 179.588 168.639 180.118C171.61 180.617 174.586 181.219 174.965 181.69C175.75 182.669 178.561 206.023 180.195 217.636C181.829 229.248 183.854 238.452 183.854 238.452Z" fill="url(#paint43_linear_14_453)"/>
<path opacity="0.8" d="M179.373 238.716L176.14 238.909C176.14 238.909 168.232 218.098 165.096 206.944C159.996 190.895 145.877 179.29 145.877 179.29L162.284 179.186C162.284 179.186 165.459 179.594 168.639 180.124C167.843 181.438 166.849 184.325 167.841 189.965C169.344 198.528 172.209 214.836 174.697 223.84C176.558 230.564 178.506 236.263 179.373 238.716Z" fill="#124E54"/>
<path d="M170.922 240.019L162.547 243.345C162.547 243.345 154.172 220.623 149.414 204.067C149.34 203.81 149.266 203.553 149.194 203.296C149.194 203.276 149.183 203.26 149.178 203.24C148.091 199.406 147.212 195.937 146.697 193.21H125.548V179.29C125.548 179.29 133.244 178.18 139.463 179.231C140.307 179.368 141.141 179.561 141.96 179.807C141.96 179.807 160.306 181.37 161.985 182.448C163.664 183.525 168.17 222.338 169.023 228.276C169.876 234.214 170.922 240.019 170.922 240.019Z" fill="url(#paint44_linear_14_453)"/>
<path opacity="0.8" d="M149.176 203.243C148.088 199.408 147.209 195.939 146.694 193.213H125.548V179.29C125.548 179.29 130.823 178.51 137.036 179.561C137.551 182.819 138.999 190.8 143.085 190.423C148.259 189.944 152.83 187.121 152.917 187.049C152.755 187.207 146.532 193.214 149.176 203.243Z" fill="#124E54"/>
<path d="M134.634 126.622C134.634 126.622 130.859 125.643 129.585 127.405C128.31 129.167 123.014 128.579 121.201 127.791C119.388 127.003 113.063 129.064 111.838 128.036C110.612 127.009 110.513 127.203 108.552 127.449C106.591 127.694 106.297 124.363 105.17 123.877C104.042 123.391 102.13 123.877 102.13 123.877C102.13 123.877 103.749 120.55 105.223 119.547C106.697 118.544 106.521 117.051 106.497 115.561C106.472 114.071 107.821 112.821 107.821 109.421C107.821 106.021 107.805 99.692 111.792 97.2129C115.78 94.7337 122.938 92.8756 126.075 96.4954C126.075 96.4954 128.51 95.5335 130.144 98.437C131.778 101.341 133.428 105.563 133.236 107.977C133.044 110.39 129.086 114.044 131.111 117.208C133.137 120.373 134.51 121.937 133.791 123.373C133.072 124.808 134.634 126.622 134.634 126.622Z" fill="url(#paint45_linear_14_453)"/>
<path d="M128.129 129.343C128.129 129.343 127.249 135.834 120.678 135.605C114.106 135.376 113.226 128.755 113.226 128.755C113.226 128.755 115.613 128.984 117.018 126.407C117.437 125.636 117.59 124.648 117.599 123.639C117.619 121.264 116.841 118.774 116.841 118.774C116.841 118.774 119.305 119.982 124.176 123.048C124.092 125.058 124.311 126.451 124.682 127.42C125.758 130.213 128.129 129.343 128.129 129.343Z" fill="url(#paint46_linear_14_453)"/>
<path d="M124.681 127.414C123.046 127.699 119.569 127.744 117.594 123.639C117.614 121.264 116.835 118.774 116.835 118.774C116.835 118.774 119.3 119.982 124.171 123.048C124.092 125.061 124.311 126.453 124.681 127.414Z" fill="#E28C79"/>
<path d="M134.344 172.565L116.149 171.439L114.378 136.514L113.983 128.708C113.983 128.708 116.467 133.031 121.639 132.836C126.811 132.642 127.412 129.471 127.412 129.471L129.732 132.006L132.234 148.005L133.563 163.435L134.344 172.565Z" fill="white"/>
<path d="M134.344 172.565L116.149 171.439L114.378 136.514L115.705 133.621C115.705 133.621 120.608 149.373 121.491 157.592C122.346 165.55 129.389 167.271 133.558 163.426L134.344 172.565Z" fill="#F4EDE9"/>
<path d="M148.426 170.281L147.44 176.102L146.859 179.543L140.517 179.561L138.033 168.388L135.414 141.074L134.348 129.966C134.348 129.966 136.332 130.487 136.796 131.139C137.26 131.791 140.229 138.168 142.044 147.318C143.859 156.468 148.426 170.281 148.426 170.281Z" fill="url(#paint47_linear_14_453)"/>
<path d="M147.44 176.102L146.859 179.543L140.517 179.561L138.033 168.388L135.414 141.074L135.78 133.616C135.78 133.616 139.327 142.113 140.281 151.921C141.205 161.428 142.768 173.271 147.44 176.102Z" fill="#DD9E4A"/>
<path d="M126.742 101.621C126.742 101.621 125.877 107.198 122.248 110.689C118.62 114.18 115.712 114.015 115.712 114.015C115.712 114.015 116.251 121.143 120.566 123.54C124.881 125.936 126.759 122.593 127.772 118.517C128.785 114.441 130.615 111.014 129.799 107.587C128.982 104.16 126.742 101.621 126.742 101.621Z" fill="url(#paint48_linear_14_453)"/>
<path d="M140.517 179.561L133.458 180.099C133.458 180.099 132.982 175.523 131.608 159.22C131.451 157.366 131.283 155.355 131.104 153.189C129.34 131.954 127.412 129.471 127.412 129.471C127.723 128.957 128.769 128.889 129.97 129.008C131.436 129.154 133.138 129.582 134.026 129.826C134.216 129.879 134.391 129.976 134.535 130.11C134.679 130.245 134.788 130.412 134.853 130.598C135.486 132.407 137.342 138.323 138.359 148.17C139.602 160.169 140.517 179.561 140.517 179.561Z" fill="url(#paint49_linear_14_453)"/>
<path d="M135.125 146.208C135.125 147.416 131.61 159.221 131.61 159.221C131.454 157.367 131.286 155.357 131.106 153.19C129.34 131.954 127.412 129.471 127.412 129.471C127.723 128.957 128.769 128.889 129.97 129.008C130.709 130.415 132.933 134.666 133.098 135.283C133.294 136.034 131.757 139.72 131.757 139.72C131.757 139.72 135.125 145.002 135.125 146.208Z" fill="#FFEED7"/>
<path d="M104.872 172.791C105.217 167.24 105.58 159.161 105.344 151.978C105.291 150.364 105.207 148.798 105.086 147.318C104.041 134.403 103.256 131.596 103.256 131.596C103.256 131.596 103.117 129.981 110.572 129.042C111.568 128.913 112.7 128.803 113.985 128.708C113.985 128.708 115.937 130.75 117.507 146.274C117.91 150.279 118.28 154.466 118.607 158.477C118.736 160.06 118.857 161.615 118.973 163.121C119.443 169.32 119.79 174.672 119.973 177.633C120.069 179.2 120.121 180.096 120.121 180.096L104.368 179.558C104.368 179.558 104.617 176.856 104.872 172.791Z" fill="url(#paint50_linear_14_453)"/>
<path d="M104.872 172.791C105.217 167.24 105.579 159.161 105.344 151.978L108.945 142.897C108.945 142.897 111.393 151.842 110.912 159.004C110.863 159.746 111.067 160.483 111.491 161.094C111.915 161.706 112.535 162.156 113.248 162.37C115.606 163.085 117.588 162.99 118.974 163.124C119.445 169.323 119.791 174.675 119.974 177.636L104.872 172.791Z" fill="#DD9E4A"/>
<path d="M103.689 130.964C103.689 130.964 108.457 137.925 109.73 146.73C111.003 155.536 106.71 167.133 106.71 167.133C106.71 167.133 98.551 169.432 98.4042 168.258C98.2573 167.084 98.4673 153.632 99.6797 144.084C101.346 130.964 103.689 130.964 103.689 130.964Z" fill="url(#paint51_linear_14_453)"/>
<path d="M98.4041 168.258C98.4041 168.258 97.93 169.824 102.604 170.64C107.279 171.455 123.914 173.804 123.914 173.804L125.548 170.737C125.548 170.737 108.901 164.149 103.644 163.888C100.316 164.083 98.4041 168.258 98.4041 168.258Z" fill="url(#paint52_linear_14_453)"/>
<path d="M113.456 148.101L114.632 139.295L110.187 133.847L110.574 129.042C111.57 128.913 112.701 128.803 113.987 128.708C113.987 128.708 115.939 130.75 117.508 146.274C117.911 150.279 118.281 154.466 118.608 158.477L113.456 148.101Z" fill="#FFEED7"/>
<path d="M141.257 178.656H174.427L180.625 154.241C181.061 154.769 181.713 155.151 182.687 155.056C182.687 155.056 183.012 151.97 179.829 151.928H149.408C149.018 151.927 148.64 152.057 148.332 152.296C148.025 152.534 147.806 152.869 147.711 153.246L141.257 178.656Z" fill="#C3D6D8"/>
<path d="M182.689 155.06L176.669 178.764C176.551 179.23 176.281 179.644 175.9 179.94C175.52 180.236 175.052 180.397 174.57 180.397H143.085L149.539 154.986C149.634 154.609 149.853 154.275 150.16 154.036C150.467 153.797 150.845 153.668 151.235 153.668H181.603C181.808 153.667 182.008 153.722 182.183 153.828C182.357 153.934 182.499 154.086 182.593 154.267C182.725 154.509 182.76 154.793 182.689 155.06Z" fill="url(#paint53_linear_14_453)"/>
<path d="M143.646 178.188H119.586C119.458 178.188 119.331 178.213 119.212 178.262C119.094 178.31 118.986 178.382 118.895 178.473C118.804 178.563 118.732 178.671 118.683 178.789C118.634 178.907 118.608 179.034 118.608 179.162V180.392H143.089L143.646 178.188Z" fill="url(#paint54_linear_14_453)"/>
<path d="M141.954 180.855C142.878 180.855 143.628 180.107 143.628 179.184C143.628 178.262 142.878 177.514 141.954 177.514C141.029 177.514 140.28 178.262 140.28 179.184C140.28 180.107 141.029 180.855 141.954 180.855Z" fill="white"/>
<path d="M160.964 167.028C160.729 167.413 161.583 168.966 162.905 168.966C163.42 168.966 163.914 168.761 164.278 168.398C164.643 168.035 164.847 167.542 164.847 167.028C164.847 165.714 163.301 164.855 162.905 165.09C162.567 165.289 163.079 166.239 162.569 166.733C162.059 167.227 161.158 166.706 160.964 167.028Z" fill="white"/>
<path d="M187.319 243.051C186.932 244.715 174.081 249.084 173.201 249.281C172.321 249.477 167.285 248.269 167.285 248.269C167.285 248.269 163.003 250.552 162.382 250.358C161.761 250.164 162.186 249.281 162.545 243.345C163.811 242.388 165.197 241.6 166.668 241.002C169.185 239.988 170.928 240.019 170.928 240.019C172.459 239.845 177.685 242.725 177.685 242.725C177.685 242.725 187.252 241.45 187.333 242.939C187.335 242.977 187.33 243.014 187.319 243.051Z" fill="url(#paint55_linear_14_453)"/>
<path style="mix-blend-mode:screen" d="M187.327 242.939C184.953 242.967 176.269 245.028 173.364 244.634C171.144 244.33 168.256 242.268 166.664 241.002C169.181 239.988 170.925 240.019 170.925 240.019C172.455 239.845 177.681 242.725 177.681 242.725C177.681 242.725 187.245 241.45 187.327 242.939Z" fill="url(#paint56_linear_14_453)"/>
<path d="M182.689 155.06L176.669 178.764C176.551 179.23 176.281 179.644 175.9 179.94C175.52 180.236 175.052 180.397 174.57 180.397H145.605C175.183 179.817 181.665 158.169 182.593 154.267C182.725 154.509 182.76 154.793 182.689 155.06Z" fill="#DCE8EA"/>
<path d="M79.9948 169.58H125.889C126.484 169.58 127.054 169.816 127.474 170.235C127.894 170.654 128.13 171.223 128.13 171.816V248.255H74.1697V175.394C74.1697 173.852 74.7834 172.373 75.8758 171.283C76.9682 170.193 78.4499 169.58 79.9948 169.58Z" fill="#5563EF"/>
<path d="M120.197 169.58H132.884C133.179 169.58 133.47 169.638 133.742 169.75C134.014 169.863 134.261 170.027 134.469 170.235C134.677 170.443 134.842 170.689 134.954 170.961C135.067 171.232 135.125 171.523 135.125 171.816V248.255H117.956V171.815C117.957 171.222 118.193 170.654 118.613 170.235C119.033 169.816 119.603 169.58 120.197 169.58Z" fill="#363CCC"/>
<path d="M111.969 191.009H70.7049V248.253H111.969V191.009Z" fill="#FF9777"/>
<path d="M109.533 193.603H73.1415V245.661H109.533V193.603Z" stroke="#B55039" stroke-width="4" stroke-miterlimit="10"/>
<path d="M73.1415 207.791H109.533" stroke="#B55039" stroke-width="4" stroke-miterlimit="10"/>
<path d="M98.0124 199.23H84.6628V201.089H98.0124V199.23Z" stroke="#B55039" stroke-width="4" stroke-miterlimit="10"/>
<path d="M81.7644 233.178L80.4412 234.108V222.561L81.7644 221.631V233.178Z" stroke="#B55039" stroke-width="2" stroke-miterlimit="10"/>
<path d="M70.7051 191.009H35.1129V248.253H70.7051V191.009Z" fill="#F17F5B"/>
<path d="M77.7104 189.687C77.0239 189.693 76.3468 189.529 75.7391 189.21C73.9069 188.252 73.291 186.185 73.2678 186.097L74.7753 185.664C74.7753 185.677 75.2404 187.189 76.4773 187.829C77.186 188.197 78.048 188.215 79.0401 187.882C80.4947 187.395 80.7769 185.873 80.8168 185.011C80.898 183.192 80.0721 181.393 79.3081 181.058C77.6859 180.348 75.6437 181.958 75.6231 181.973L74.6297 180.761C74.7431 180.669 77.4205 178.521 79.9381 179.625C81.5899 180.348 82.4789 182.969 82.3862 185.081C82.2895 187.231 81.2523 188.794 79.5413 189.367C78.9524 189.572 78.334 189.68 77.7104 189.687Z" fill="#363CCC"/>
<path d="M74.7792 178.188H63.1908C62.6159 178.188 62.1497 178.653 62.1497 179.227V189.971C62.1497 190.545 62.6159 191.01 63.1908 191.01H74.7792C75.3541 191.01 75.8202 190.545 75.8202 189.971V179.227C75.8202 178.653 75.3541 178.188 74.7792 178.188Z" fill="#363CCC"/>
<path d="M7.65081 181.427C9.13448 181.427 10.3372 180.226 10.3372 178.746C10.3372 177.265 9.13448 176.065 7.65081 176.065C6.16714 176.065 4.96439 177.265 4.96439 178.746C4.96439 180.226 6.16714 181.427 7.65081 181.427Z" fill="white"/>
<path d="M7.65081 196.212C9.13448 196.212 10.3372 195.011 10.3372 193.531C10.3372 192.05 9.13448 190.85 7.65081 190.85C6.16714 190.85 4.96439 192.05 4.96439 193.531C4.96439 195.011 6.16714 196.212 7.65081 196.212Z" fill="white"/>
<path d="M7.65081 210.998C9.13448 210.998 10.3372 209.798 10.3372 208.317C10.3372 206.836 9.13448 205.636 7.65081 205.636C6.16714 205.636 4.96439 206.836 4.96439 208.317C4.96439 209.798 6.16714 210.998 7.65081 210.998Z" fill="white"/>
<defs>
<linearGradient id="paint0_linear_14_453" x1="178.568" y1="217.768" x2="135.038" y2="-13.3868" gradientUnits="userSpaceOnUse">
<stop stop-color="#EEF3FF"/>
<stop offset="1" stop-color="#EEF3FF"/>
</linearGradient>
<linearGradient id="paint1_linear_14_453" x1="273.538" y1="231.735" x2="323.972" y2="231.735" gradientUnits="userSpaceOnUse">
<stop stop-color="#FF9676"/>
<stop offset="1" stop-color="#E0714F"/>
</linearGradient>
<linearGradient id="paint2_linear_14_453" x1="255.277" y1="182.939" x2="265.545" y2="197.049" gradientUnits="userSpaceOnUse">
<stop stop-color="#FFE9D2"/>
<stop offset="1" stop-color="#FDD1A1"/>
</linearGradient>
<linearGradient id="paint3_linear_14_453" x1="156452" y1="99634.9" x2="156452" y2="132770" gradientUnits="userSpaceOnUse">
<stop stop-color="#7076FE"/>
<stop offset="1" stop-color="#1A568D"/>
</linearGradient>
<linearGradient id="paint4_linear_14_453" x1="191.406" y1="189.988" x2="196.102" y2="189.988" gradientUnits="userSpaceOnUse">
<stop stop-color="white"/>
<stop offset="1" stop-color="#DCE8EA"/>
</linearGradient>
<linearGradient id="paint5_linear_14_453" x1="14148.9" y1="10003" x2="15032.7" y2="10003" gradientUnits="userSpaceOnUse">
<stop stop-color="white"/>
<stop offset="1" stop-color="#DCE8EA"/>
</linearGradient>
<linearGradient id="paint6_linear_14_453" x1="187.431" y1="183.55" x2="213.025" y2="183.55" gradientUnits="userSpaceOnUse">
<stop stop-color="#158793"/>
<stop offset="1" stop-color="#17616D"/>
</linearGradient>
<linearGradient id="paint7_linear_14_453" x1="7945.55" y1="13060.6" x2="8116.83" y2="13060.6" gradientUnits="userSpaceOnUse">
<stop stop-color="white"/>
<stop offset="1" stop-color="#DCE8EA"/>
</linearGradient>
<linearGradient id="paint8_linear_14_453" x1="13840.3" y1="9706.68" x2="14724.1" y2="9706.68" gradientUnits="userSpaceOnUse">
<stop stop-color="white"/>
<stop offset="1" stop-color="#DCE8EA"/>
</linearGradient>
<linearGradient id="paint9_linear_14_453" x1="17789.6" y1="13060.6" x2="18749.7" y2="13060.6" gradientUnits="userSpaceOnUse">
<stop stop-color="#158793"/>
<stop offset="1" stop-color="#17616D"/>
</linearGradient>
<linearGradient id="paint10_linear_14_453" x1="110324" y1="106763" x2="110324" y2="43518.9" gradientUnits="userSpaceOnUse">
<stop stop-color="#EEF0FF"/>
<stop offset="1" stop-color="#CFE5FF"/>
</linearGradient>
<linearGradient id="paint11_linear_14_453" x1="260.114" y1="123.204" x2="272.34" y2="108.013" gradientUnits="userSpaceOnUse">
<stop stop-color="#FFE9E9"/>
<stop offset="1" stop-color="#FFB7C6"/>
</linearGradient>
<linearGradient id="paint12_linear_14_453" x1="72007.4" y1="58168.6" x2="73951.8" y2="65243.5" gradientUnits="userSpaceOnUse">
<stop stop-color="#FF9676"/>
<stop offset="1" stop-color="#E0714F"/>
</linearGradient>
<linearGradient id="paint13_linear_14_453" x1="60636.3" y1="56252" x2="57635.2" y2="56770.9" gradientUnits="userSpaceOnUse">
<stop stop-color="#FF9676"/>
<stop offset="1" stop-color="#E0714F"/>
</linearGradient>
<linearGradient id="paint14_linear_14_453" x1="11511.3" y1="9867.34" x2="11720.8" y2="9867.34" gradientUnits="userSpaceOnUse">
<stop stop-color="#FFE9E9"/>
<stop offset="1" stop-color="#FFB7C6"/>
</linearGradient>
<linearGradient id="paint15_linear_14_453" x1="11759.6" y1="10838.1" x2="11952" y2="10838.1" gradientUnits="userSpaceOnUse">
<stop stop-color="#FFE9E9"/>
<stop offset="1" stop-color="#FFB7C6"/>
</linearGradient>
<linearGradient id="paint16_linear_14_453" x1="39184" y1="29927.9" x2="41209.9" y2="29399.4" gradientUnits="userSpaceOnUse">
<stop stop-color="#FFE9E9"/>
<stop offset="1" stop-color="#FFB7C6"/>
</linearGradient>
<linearGradient id="paint17_linear_14_453" x1="253.638" y1="90.2087" x2="276.664" y2="90.2087" gradientUnits="userSpaceOnUse">
<stop stop-color="#68471E"/>
<stop offset="1" stop-color="#51381C"/>
</linearGradient>
<linearGradient id="paint18_linear_14_453" x1="64681.7" y1="57898.2" x2="67473" y2="63414.9" gradientUnits="userSpaceOnUse">
<stop stop-color="#FF9676"/>
<stop offset="1" stop-color="#E0714F"/>
</linearGradient>
<linearGradient id="paint19_linear_14_453" x1="29243.7" y1="50327.8" x2="30426.1" y2="50590.9" gradientUnits="userSpaceOnUse">
<stop stop-color="#FF9676"/>
<stop offset="1" stop-color="#E0714F"/>
</linearGradient>
<linearGradient id="paint20_linear_14_453" x1="266.773" y1="120.547" x2="275.531" y2="120.547" gradientUnits="userSpaceOnUse">
<stop stop-color="#C15238"/>
<stop offset="1" stop-color="#A44D32"/>
</linearGradient>
<linearGradient id="paint21_linear_14_453" x1="18870.6" y1="12070.4" x2="19439.7" y2="12070.4" gradientUnits="userSpaceOnUse">
<stop stop-color="#C15238"/>
<stop offset="1" stop-color="#A44D32"/>
</linearGradient>
<linearGradient id="paint22_linear_14_453" x1="52620.3" y1="34263.9" x2="53722.2" y2="36584.7" gradientUnits="userSpaceOnUse">
<stop stop-color="#FFE9E9"/>
<stop offset="1" stop-color="#FFB7C6"/>
</linearGradient>
<linearGradient id="paint23_linear_14_453" x1="14322.6" y1="7355.44" x2="14716.8" y2="7355.44" gradientUnits="userSpaceOnUse">
<stop stop-color="#C15238"/>
<stop offset="1" stop-color="#A44D32"/>
</linearGradient>
<linearGradient id="paint24_linear_14_453" x1="5739.76" y1="50619.4" x2="6258.15" y2="50619.4" gradientUnits="userSpaceOnUse">
<stop stop-color="#587FCC"/>
<stop offset="1" stop-color="#17616D"/>
</linearGradient>
<linearGradient id="paint25_linear_14_453" x1="42.6799" y1="114.362" x2="79.1972" y2="114.362" gradientUnits="userSpaceOnUse">
<stop stop-color="#6683CC"/>
<stop offset="1" stop-color="#122454"/>
</linearGradient>
<linearGradient id="paint26_linear_14_453" x1="3466.4" y1="7472.03" x2="8188.24" y2="7472.03" gradientUnits="userSpaceOnUse">
<stop stop-color="#667CCC"/>
<stop offset="1" stop-color="#122454"/>
</linearGradient>
<linearGradient id="paint27_linear_14_453" x1="110249" y1="106683" x2="110249" y2="43439.4" gradientUnits="userSpaceOnUse">
<stop stop-color="#EEF0FF"/>
<stop offset="1" stop-color="#CFE5FF"/>
</linearGradient>
<linearGradient id="paint28_linear_14_453" x1="63557.8" y1="28877.6" x2="65004" y2="29274.1" gradientUnits="userSpaceOnUse">
<stop stop-color="#68471E"/>
<stop offset="1" stop-color="#51381C"/>
</linearGradient>
<linearGradient id="paint29_linear_14_453" x1="27908.9" y1="6909.99" x2="27878" y2="6631.21" gradientUnits="userSpaceOnUse">
<stop stop-color="#158793"/>
<stop offset="1" stop-color="#17616D"/>
</linearGradient>
<linearGradient id="paint30_linear_14_453" x1="85682.7" y1="33890.2" x2="98520.6" y2="33890.2" gradientUnits="userSpaceOnUse">
<stop stop-color="#158793"/>
<stop offset="1" stop-color="#17616D"/>
</linearGradient>
<linearGradient id="paint31_linear_14_453" x1="195.098" y1="44.1116" x2="186.142" y2="44.4395" gradientUnits="userSpaceOnUse">
<stop stop-color="#FFCFC7"/>
<stop offset="1" stop-color="#FCB29D"/>
</linearGradient>
<linearGradient id="paint32_linear_14_453" x1="50475.7" y1="20567.8" x2="48859" y2="19675.1" gradientUnits="userSpaceOnUse">
<stop stop-color="#FFCFC7"/>
<stop offset="1" stop-color="#FCB29D"/>
</linearGradient>
<linearGradient id="paint33_linear_14_453" x1="54665.3" y1="15022.9" x2="55558.2" y2="16113.5" gradientUnits="userSpaceOnUse">
<stop stop-color="#68471E"/>
<stop offset="1" stop-color="#51381C"/>
</linearGradient>
<linearGradient id="paint34_linear_14_453" x1="41673.3" y1="25579.1" x2="43868.3" y2="28736.1" gradientUnits="userSpaceOnUse">
<stop stop-color="#158793"/>
<stop offset="1" stop-color="#17616D"/>
</linearGradient>
<linearGradient id="paint35_linear_14_453" x1="56275.7" y1="25544.4" x2="61397.6" y2="25544.4" gradientUnits="userSpaceOnUse">
<stop stop-color="white"/>
<stop offset="1" stop-color="#DCE8EA"/>
</linearGradient>
<linearGradient id="paint36_linear_14_453" x1="36362.2" y1="14267.3" x2="38297.6" y2="14267.3" gradientUnits="userSpaceOnUse">
<stop stop-color="#158793"/>
<stop offset="1" stop-color="#17616D"/>
</linearGradient>
<linearGradient id="paint37_linear_14_453" x1="21315.4" y1="19404.3" x2="22100.4" y2="19774.6" gradientUnits="userSpaceOnUse">
<stop stop-color="#FFCFC7"/>
<stop offset="1" stop-color="#FCB29D"/>
</linearGradient>
<linearGradient id="paint38_linear_14_453" x1="26561.7" y1="27694.9" x2="27649.3" y2="27533.3" gradientUnits="userSpaceOnUse">
<stop stop-color="#158793"/>
<stop offset="1" stop-color="#17616D"/>
</linearGradient>
<linearGradient id="paint39_linear_14_453" x1="33900.1" y1="14267.3" x2="35581.1" y2="14267.3" gradientUnits="userSpaceOnUse">
<stop stop-color="#158793"/>
<stop offset="1" stop-color="#17616D"/>
</linearGradient>
<linearGradient id="paint40_linear_14_453" x1="11141.3" y1="1033.9" x2="11575" y2="1727.94" gradientUnits="userSpaceOnUse">
<stop stop-color="#8388FF"/>
<stop offset="1" stop-color="#1A5D8D"/>
</linearGradient>
<linearGradient id="paint41_linear_14_453" x1="46039.2" y1="41784.1" x2="46039.2" y2="17063.3" gradientUnits="userSpaceOnUse">
<stop stop-color="#EEF0FF"/>
<stop offset="1" stop-color="#CFE5FF"/>
</linearGradient>
<linearGradient id="paint42_linear_14_453" x1="188.535" y1="236.664" x2="185.995" y2="246.06" gradientUnits="userSpaceOnUse">
<stop stop-color="#FFCA83"/>
<stop offset="1" stop-color="#FBB958"/>
</linearGradient>
<linearGradient id="paint43_linear_14_453" x1="62099.8" y1="129998" x2="56650" y2="130529" gradientUnits="userSpaceOnUse">
<stop stop-color="#158793"/>
<stop offset="1" stop-color="#17616D"/>
</linearGradient>
<linearGradient id="paint44_linear_14_453" x1="68969.3" y1="143563" x2="60469.6" y2="143344" gradientUnits="userSpaceOnUse">
<stop stop-color="#158793"/>
<stop offset="1" stop-color="#17616D"/>
</linearGradient>
<linearGradient id="paint45_linear_14_453" x1="34622.8" y1="46946.9" x2="37624" y2="52012.2" gradientUnits="userSpaceOnUse">
<stop stop-color="#062B2D"/>
<stop offset="1" stop-color="#051111"/>
</linearGradient>
<linearGradient id="paint46_linear_14_453" x1="17693" y1="26621.4" x2="16430.9" y2="26414.2" gradientUnits="userSpaceOnUse">
<stop stop-color="#FFCFC7"/>
<stop offset="1" stop-color="#FCB29D"/>
</linearGradient>
<linearGradient id="paint47_linear_14_453" x1="18828.5" y1="87365.4" x2="18024" y2="87465.3" gradientUnits="userSpaceOnUse">
<stop stop-color="#FFCA83"/>
<stop offset="1" stop-color="#FBB958"/>
</linearGradient>
<linearGradient id="paint48_linear_14_453" x1="17392.1" y1="33627.2" x2="16300.8" y2="33280.1" gradientUnits="userSpaceOnUse">
<stop stop-color="#FFCFC7"/>
<stop offset="1" stop-color="#FCB29D"/>
</linearGradient>
<linearGradient id="paint49_linear_14_453" x1="16122.4" y1="82051.9" x2="21621.8" y2="93419.5" gradientUnits="userSpaceOnUse">
<stop stop-color="#FFCA83"/>
<stop offset="1" stop-color="#FBB958"/>
</linearGradient>
<linearGradient id="paint50_linear_14_453" x1="17053.1" y1="83421" x2="23216.8" y2="91031.8" gradientUnits="userSpaceOnUse">
<stop stop-color="#FFCA83"/>
<stop offset="1" stop-color="#FBB958"/>
</linearGradient>
<linearGradient id="paint51_linear_14_453" x1="11253" y1="65495" x2="12243.1" y2="65506" gradientUnits="userSpaceOnUse">
<stop stop-color="#FFCA83"/>
<stop offset="1" stop-color="#FBB958"/>
</linearGradient>
<linearGradient id="paint52_linear_14_453" x1="29303.3" y1="18603" x2="29239.1" y2="19163.5" gradientUnits="userSpaceOnUse">
<stop stop-color="#FFCA83"/>
<stop offset="1" stop-color="#FBB958"/>
</linearGradient>
<linearGradient id="paint53_linear_14_453" x1="53512.1" y1="46975.4" x2="58735.1" y2="55310.7" gradientUnits="userSpaceOnUse">
<stop stop-color="white"/>
<stop offset="1" stop-color="#DCE8EA"/>
</linearGradient>
<linearGradient id="paint54_linear_14_453" x1="27776" y1="4514.36" x2="31771.6" y2="4514.36" gradientUnits="userSpaceOnUse">
<stop stop-color="white"/>
<stop offset="1" stop-color="#DCE8EA"/>
</linearGradient>
<linearGradient id="paint55_linear_14_453" x1="39517.9" y1="25547.4" x2="39473.8" y2="26192.6" gradientUnits="userSpaceOnUse">
<stop stop-color="#FFCA83"/>
<stop offset="1" stop-color="#FBB958"/>
</linearGradient>
<linearGradient id="paint56_linear_14_453" x1="32740.6" y1="11577.4" x2="32726.8" y2="11849" gradientUnits="userSpaceOnUse">
<stop stop-color="#16B58B"/>
<stop offset="1" stop-color="#1A8D6E"/>
</linearGradient>
</defs>
</svg>
