<svg width="321" height="203" viewBox="0 0 321 203" fill="none" xmlns="http://www.w3.org/2000/svg">
<path d="M313.442 128.218C306.932 168.439 217.899 185.435 176.627 188.254C139.477 190.791 60.4409 196.19 26.6077 142.694C9.35146 115.402 3.08767 72.6155 24.3199 43.8576C49.3514 9.95159 99.7641 12.5986 126.973 14.0305C149.136 15.1969 191.953 17.8041 236.923 44.229C257.317 56.2127 319.246 92.3644 313.442 128.218Z" fill="url(#paint0_linear_14_20)"/>
<path d="M261.844 56.2376H179.934V157.006H261.844V56.2376Z" fill="#23217E"/>
<path d="M257.224 60.4624H184.554V152.78H257.224V60.4624Z" fill="white"/>
<path d="M184.554 91.5581H204.25V140.673H209.649V120.712H227.082V127.725H229.134V113.973H240.016V122.636H252.585V138.457H257.224V152.78H184.554V91.5581Z" fill="url(#paint1_linear_14_20)"/>
<path d="M257.224 60.4624H184.554V77.7849H257.224V60.4624Z" fill="url(#paint2_linear_14_20)"/>
<path d="M257.224 62.556H184.554V63.6614H257.224V62.556Z" fill="#CC9666"/>
<path d="M257.224 65.4622H184.554V66.5676H257.224V65.4622Z" fill="#CC9666"/>
<path d="M257.224 68.3684H184.554V69.4738H257.224V68.3684Z" fill="#CC9666"/>
<path d="M257.224 71.2758H184.554V72.3812H257.224V71.2758Z" fill="#CC9666"/>
<path d="M257.224 74.182H184.554V75.2874H257.224V74.182Z" fill="#CC9666"/>
<path style="mix-blend-mode:multiply" d="M177.317 6.86718L178.198 79.2853C178.206 79.9349 178.126 80.5826 177.96 81.2107C177.193 84.1232 174.637 86.2779 171.576 86.3203L54.0714 87.7534C51.0098 87.7908 48.4035 85.6996 47.5662 82.8071C47.3847 82.1833 47.2888 81.5377 47.2813 80.888L46.4006 8.4636C46.3545 4.62522 49.3178 1.48473 53.0214 1.43488L170.527 0.000485025C174.231 -0.0443791 177.27 3.02881 177.317 6.86718Z" fill="url(#paint3_linear_14_20)"/>
<path d="M173.223 11.2826V76.4664C173.223 77.2876 173.063 78.1009 172.749 78.8597C172.436 79.6185 171.976 80.3081 171.397 80.8889C170.817 81.4697 170.129 81.9303 169.372 82.2445C168.614 82.5587 167.802 82.7203 166.983 82.7199H57.6157C55.9602 82.7196 54.3727 82.0606 53.2023 80.8879C52.0318 79.7151 51.3743 78.1247 51.3743 76.4664V11.2826C51.3741 10.4614 51.5354 9.64824 51.849 8.88954C52.1626 8.13083 52.6223 7.44143 53.2019 6.86072C53.7815 6.28 54.4696 5.81935 55.2269 5.50507C55.9842 5.19078 56.7959 5.02901 57.6157 5.02901H166.983C167.802 5.02918 168.614 5.19106 169.371 5.50542C170.128 5.81978 170.816 6.28046 171.396 6.86116C171.975 7.44185 172.435 8.13119 172.748 8.88982C173.062 9.64844 173.223 10.4615 173.223 11.2826Z" fill="white"/>
<path d="M58.132 45.4366C58.132 45.4366 61.4262 42.9442 72.7296 43.1112C84.0331 43.2782 84.5245 43.1386 85.7063 46.7726C86.8882 50.4066 91.1055 79.3477 91.1055 79.3477L70.5924 79.7278L66.2618 72.2928L58.132 45.4366Z" fill="url(#paint4_linear_14_20)"/>
<path d="M70.5923 79.7277C70.5923 79.7277 68.9054 71.2995 67.109 62.1634C65.3126 53.0274 64.071 45.3643 59.9097 45.2522C55.7483 45.14 56.924 47.2798 59.0102 54.8843C61.0965 62.4887 65.9272 79.7277 65.9272 79.7277H70.5923Z" fill="#363CCC"/>
<path d="M119.461 78.2086H112.91L111.701 70.8982L111.285 49.7286C111.285 49.7286 112.488 49.2301 114.52 57.2496C114.55 57.3667 114.578 57.4839 114.608 57.6035C116.621 65.6578 119.461 78.2086 119.461 78.2086Z" fill="url(#paint5_linear_14_20)"/>
<path d="M116.031 78.2086H112.91L111.701 70.8982L111.285 49.7286C111.285 49.7286 112.488 49.2301 114.52 57.2496C114.55 57.3667 114.578 57.4839 114.608 57.6035C114.597 61.3534 114.769 69.3454 116.291 73.6436C116.92 75.437 116.673 76.9586 116.031 78.2086Z" fill="#D39346"/>
<path d="M113.083 75.2214C112.991 77.0695 112.91 78.2123 112.91 78.2123H82.8799C82.8799 78.2123 72.6376 59.5999 71.1099 54.5141C70.9544 54.0031 70.8885 53.6293 70.9295 53.4237C71.3799 51.1692 82.9371 46.1557 82.9371 46.1557L98.1904 46.1208L110.3 49.2737C110.853 49.4169 111.353 49.7151 111.742 50.1332C112.131 50.5513 112.393 51.072 112.497 51.6341C113.729 58.3388 113.353 69.8128 113.083 75.2214Z" fill="url(#paint6_linear_14_20)"/>
<path d="M113.083 75.2214C112.991 77.0695 112.91 78.2123 112.91 78.2123H82.8799C82.8799 78.2123 72.6377 59.5999 71.11 54.5141L71.7096 53.6816C71.7096 53.6816 78.5108 55.2942 81.6147 56.7598C84.7187 58.2254 91.1753 70.8708 94.6449 72.9159C100.269 76.2233 113.083 75.2214 113.083 75.2214Z" fill="#D39346"/>
<path d="M94.8303 50.6035L101.241 78.3208H89.7135L92.0747 50.8851L94.8303 50.6035Z" fill="#FFEED7"/>
<path d="M83.217 37.0969C83.217 37.0969 83.8503 42.5902 83.5977 44.5742C88.7431 48.3764 93.9731 48.0811 95.1537 47.2785L94.6051 40.7334C94.6051 40.7334 87.1395 33.9713 83.217 37.0969Z" fill="url(#paint7_linear_14_20)"/>
<path d="M96.1751 48.435C96.1751 48.435 95.2756 51.9556 94.2916 52.2647C93.3075 52.5738 90.0792 50.0115 90.0792 50.0115L92.6668 47.1676L96.1751 48.435Z" fill="#FFEED7"/>
<path d="M98.1904 23.3872C98.1904 23.3872 98.1058 27.5496 97.5161 34.1832C97.4407 35.0232 97.3349 35.8124 97.1989 36.551C96.2609 41.6444 93.8549 44.2589 89.8403 43.5199C85.2373 42.6762 84.3416 37.1966 84.3416 37.1966C82.5713 39.5906 80.4328 38.7394 79.1315 36.1223C77.8303 33.5053 79.2161 32.1718 79.2161 32.1718L80.1454 28.0106L83.9 19.6884H97.3469L98.1904 23.3872Z" fill="url(#paint8_linear_14_20)"/>
<path d="M97.1989 36.5473C96.2609 41.6406 93.8549 44.2552 89.8404 43.5162C85.2374 42.6725 84.3417 37.1928 84.3417 37.1928C84.3417 37.1928 86.9542 40.8069 91.1056 39.4609C95.257 38.115 97.1989 36.5473 97.1989 36.5473Z" fill="#F9AABC"/>
<path d="M84.0195 34.1819C84.0195 34.1819 82.9882 28.6263 83.237 28.0979C83.4858 27.5695 84.2322 26.6398 84.2322 26.6398L84.5482 21.8867C84.5482 21.8867 95.0082 21.1053 96.1478 21.4642C97.2873 21.8231 98.193 23.3871 98.193 23.3871C98.193 23.3871 99.0999 18.7761 98.509 17.7679C97.918 16.7597 96.0843 15 93.1595 14.6199C90.2348 14.2398 86.8957 14.5352 84.2596 14.8692C81.6235 15.2032 78.6079 17.7218 79.9365 19.9787C79.9365 19.9787 77.0901 19.5351 77.4484 23.5068C77.8067 27.4785 79.22 32.168 79.22 32.168C79.22 32.168 80.4006 31.2384 81.9395 32.3151C83.4783 33.3918 84.0195 34.1819 84.0195 34.1819Z" fill="url(#paint9_linear_14_20)"/>
<path d="M83.6463 43.9262C83.6463 43.9262 90.2758 47.195 92.6656 47.1664C90.3019 51.5032 89.5729 52.3769 89.5729 52.3769L82.9359 46.1457C82.8474 45.7459 82.8666 45.3297 82.9914 44.9397C83.1162 44.5497 83.3422 44.2 83.6463 43.9262Z" fill="#0B5D6B"/>
<path d="M92.6656 47.1676C92.6656 47.1676 95.7024 48.1247 97.2686 50.2832L98.1967 46.122L95.5394 44.1991C95.5394 44.1991 93.8886 46.7152 92.6656 47.1676Z" fill="#0B5D6B"/>
<path d="M159.839 48.5048H121.172L114.631 76.9399L116.285 78.7145L153.298 76.9399L161.494 50.2794L159.839 48.5048Z" fill="#122454"/>
<path d="M161.494 50.2794C161.494 50.2794 161.479 50.3554 161.442 50.5013L154.953 78.7145H116.285L116.41 78.1836L122.83 50.2794H161.494Z" fill="url(#paint10_linear_14_20)"/>
<path d="M122.825 50.2794L121.172 48.5048H159.839L161.494 50.2794H122.825Z" fill="#083E44"/>
<path d="M172.98 78.1973C172.606 79.5012 171.819 80.6477 170.737 81.4636C169.655 82.2795 168.337 82.7205 166.983 82.7199H57.6157C56.2614 82.7205 54.9438 82.2795 53.8618 81.4636C52.7798 80.6477 51.9923 79.5012 51.6182 78.1973H172.98Z" fill="#122454"/>
<path d="M114.631 76.9399H91.3793V78.7145H116.285L114.631 76.9399Z" fill="#122454"/>
<path d="M90.9089 78.2086L80.2238 79.3489C80.2238 79.3489 77.6499 76.996 77.3687 75.3061C77.3166 75.0487 77.2361 74.7979 77.1286 74.5584C76.1694 72.3152 72.7819 67.3228 70.9295 61.7223C68.8358 55.384 69.4814 53.638 70.9295 53.4125C70.9295 53.4125 78.7048 55.8501 81.4467 58.5108C82.0588 59.1052 82.8711 60.4175 83.7606 62.0962C86.8546 67.9397 90.9089 78.2086 90.9089 78.2086Z" fill="url(#paint11_linear_14_20)"/>
<path d="M90.909 78.2086L80.2239 79.3489C80.2239 79.3489 77.6499 76.996 77.3688 75.3061C77.3167 75.0487 77.2361 74.7979 77.1287 74.5584C78.7123 71.0141 81.759 64.4964 83.7607 62.0961C86.8546 67.9397 90.909 78.2086 90.909 78.2086Z" fill="#D39346"/>
<path d="M92.9193 72.7152C92.7949 78.3232 91.4003 79.6006 89.7134 80.068C89.1374 80.2275 87.8349 80.3708 86.3744 80.4319C83.5641 80.5453 80.1691 80.3508 80.2238 79.3501C80.3059 77.8272 81.2775 72.547 82.5427 68.7859C83.8079 65.0248 88.6597 47.7845 88.6597 47.7845H92.6655C92.6655 47.7845 93.0437 67.1097 92.9193 72.7152Z" fill="url(#paint12_linear_14_20)"/>
<path style="mix-blend-mode:screen" d="M86.3744 80.4306C83.5641 80.544 80.1691 80.3496 80.2238 79.3489C80.3059 77.826 81.2775 72.5457 82.5427 68.7846C83.8079 65.0235 88.6597 47.7832 88.6597 47.7832H90.8679C90.2409 49.7311 82.3101 74.7104 86.3744 80.4306Z" fill="url(#paint13_linear_14_20)"/>
<path d="M95.4772 48.5846C95.4772 48.5846 96.6578 45.0553 96.5968 42.9155C98.2278 42.6339 98.3385 41.197 98.1855 39.957C98.0324 38.717 94.5441 38.9438 94.1784 39.2254C93.8126 39.5071 88.2468 42.0432 87.7678 42.0282C87.2888 42.0132 85.837 39.0373 85.3494 39.0036C84.8617 38.97 83.3066 41.3203 83.6077 41.85C83.9088 42.3796 85.796 43.7941 85.796 43.7941C85.796 43.7941 87.1993 48.0313 88.4234 48.5846C89.6476 49.1379 94.4931 49.2675 95.4772 48.5846Z" fill="url(#paint14_linear_14_20)"/>
<path d="M161.442 50.5013L154.953 78.7146H116.285L116.41 78.1837C154.166 75.7411 160.826 52.9887 161.442 50.5013Z" fill="#122454"/>
<path d="M115.373 79.2504C116.207 79.2504 116.884 78.5731 116.884 77.7375C116.884 76.9019 116.207 76.2246 115.373 76.2246C114.539 76.2246 113.863 76.9019 113.863 77.7375C113.863 78.5731 114.539 79.2504 115.373 79.2504Z" fill="#1D5AB2"/>
<path d="M283.025 200.565C283.025 200.565 284.375 199.468 290.027 198.368C295.679 197.269 297.367 196.171 298.378 192.876C299.39 189.581 306.813 190.707 309.175 187.58C311.538 184.453 309.287 182.201 310.637 179.729C311.987 177.256 318.37 168.039 319.508 161.907C320.647 155.776 319.916 155.725 317.723 156.936C315.53 158.148 313.196 158.09 310.383 161.443C307.57 164.795 304.955 171.662 302.706 173.244C300.457 174.827 295.902 175.238 293.23 177.131C290.558 179.024 290.251 184.342 286.483 186.089C282.714 187.836 278.947 189.356 276.641 198.37L283.025 200.565Z" fill="#99A5FF"/>
<path d="M282.519 197.861C282.519 197.861 284.839 193.044 290.491 190.134C296.143 187.225 300.487 183.416 307.192 174.587C313.898 165.757 315.333 163.432 315.333 163.432" stroke="#363CCC" stroke-width="1.6" stroke-miterlimit="10" stroke-linecap="round"/>
<path d="M302.131 182.313L307.825 183.116" stroke="#363CCC" stroke-width="1.6" stroke-miterlimit="10" stroke-linecap="round"/>
<path d="M298.927 182.946C298.927 182.946 297.155 179.651 297.325 176.947" stroke="#363CCC" stroke-width="1.6" stroke-miterlimit="10" stroke-linecap="round"/>
<path d="M298.119 185.778L301.962 186.665" stroke="#363CCC" stroke-width="1.6" stroke-miterlimit="10" stroke-linecap="round"/>
<path d="M278.537 141.583C278.537 141.583 276.25 140.795 270.617 141.583C264.984 142.37 248.507 141.671 246.032 141.233C243.558 140.794 242.65 144.075 241.815 147.949C240.98 151.822 233.298 199.216 233.298 199.216L261.891 199.241L264.647 193.806C264.647 193.806 273.364 147.921 278.537 141.583Z" fill="url(#paint15_linear_14_20)"/>
<path d="M212.853 171.779L208.692 196.262H183.162L181.72 193.219L180.292 190.206C180.292 190.206 200.196 187.445 201.213 186.375C202.229 185.304 204.475 174.376 206.612 163.222C207.539 158.386 208.462 155.486 209.212 153.751C210.191 151.485 210.872 151.211 210.872 151.211C213.669 154.638 212.853 171.779 212.853 171.779Z" fill="url(#paint16_linear_14_20)"/>
<path opacity="0.8" d="M212.853 171.779L208.692 196.262H183.162L181.72 193.219C185 193.094 193.174 192.651 198.027 191.186C204.207 189.317 206.189 185.531 208.51 173.739C210.384 164.208 209.588 156.397 209.212 153.753C210.191 151.488 210.872 151.214 210.872 151.214C213.669 154.638 212.853 171.779 212.853 171.779Z" fill="#C65B42"/>
<path d="M260.428 150.414C260.197 152.532 259.197 156.192 257.789 160.57C253.032 175.353 243.642 198.368 243.642 198.368H207.286C207.286 198.368 208.135 193.922 209.099 187.322C209.625 183.723 210.184 179.483 210.66 174.975C212.01 162.202 210.069 155.949 210.069 153.914C210.069 151.879 210.282 150.799 214.548 149.125C218.814 147.451 224.331 145.548 224.331 145.548L246.04 144.224C246.04 144.224 258.615 147.036 260.428 150.414Z" fill="url(#paint17_linear_14_20)"/>
<path d="M231.355 153.695L229.344 196.262H216.622C216.622 196.262 220.446 188.741 223.144 176.151C225.842 163.56 228.037 153.927 228.037 153.927L231.355 153.695Z" fill="url(#paint18_linear_14_20)"/>
<path d="M243.642 144.544C236.6 151.812 226.899 153.753 225.296 146.276C225.647 145.417 225.936 144.731 226.167 144.146C227.038 141.995 227.217 141.254 227.314 138.628C235.244 134.066 237.515 127.052 242.877 128.952C242.877 128.952 242.835 130.776 242.839 133.199C242.849 137.162 242.988 142.731 243.642 144.544Z" fill="url(#paint19_linear_14_20)"/>
<path d="M242.849 132.206C241.657 134.797 239.177 139.462 235.718 142.515C231.948 145.844 228.378 143.972 226.636 142.946C227.164 141.311 227.151 141.089 227.32 138.628C235.25 134.066 237.522 127.052 242.883 128.952C242.882 128.95 242.841 129.781 242.849 132.206Z" fill="#E28C79"/>
<path d="M235.714 151.442C235.714 151.442 231.833 156.146 229.077 156.202C226.321 156.258 225.843 150.709 225.843 150.709L230.679 149.132L235.714 151.442Z" fill="url(#paint20_linear_14_20)"/>
<path d="M221.345 122.796C221.345 122.796 219.604 123.022 219.264 125.021C218.924 127.019 221.628 132.937 223.285 131.33C223.764 127.697 221.345 122.796 221.345 122.796Z" fill="url(#paint21_linear_14_20)"/>
<path d="M218.983 111.163L218.955 115.557C218.955 115.557 219.306 118.325 220.573 123.585C221.839 128.845 223.02 133.894 224.2 136.239C225.381 138.584 227.659 141.71 231.181 140.337C234.703 138.963 241.24 132.31 241.872 129.901C241.872 129.901 243.987 131.126 245.964 129.162C247.94 127.198 247.897 124.718 247.215 123.106C247.102 120.944 242.969 113.416 242.969 113.416L229.247 104.6L220.474 106.994L218.983 111.163Z" fill="url(#paint22_linear_14_20)"/>
<path d="M249.407 117.642L247.214 123.109C247.214 123.109 246.652 121.333 245.02 121.193C243.387 121.054 241.871 123.136 241.816 126.319C241.014 124.917 240.632 123.313 240.718 121.699C240.718 121.699 237.877 119.728 237.877 117.814C237.877 115.899 238.047 112.685 238.047 112.685C238.047 112.685 235.797 111.757 234.222 112.292C232.647 112.826 227.195 111.981 225.085 107.419C225.085 107.419 220.165 108.433 218.955 115.56C218.955 115.56 218.707 114.236 216.903 112.546C215.75 111.464 214.365 107.79 215.285 104.921C215.797 103.31 217.027 101.954 219.437 101.447C219.437 101.447 218.483 95.7305 225.456 93.7577C232.429 91.785 239.459 96.4608 242.045 99.615C244.631 102.769 246.6 104.234 249.748 105.08C252.897 105.926 256.323 112.516 249.407 117.642Z" fill="url(#paint23_linear_14_20)"/>
<path d="M243.268 142.753L230.681 149.132C230.681 149.132 237.26 152.963 238.609 155.385L246.032 144.231L243.268 142.753Z" fill="url(#paint24_linear_14_20)"/>
<path d="M230.681 149.132C230.681 149.132 224.748 152.273 223.483 153.92L223.925 145.302L226.181 144.12C226.181 144.12 225.204 146.478 230.681 149.132Z" fill="url(#paint25_linear_14_20)"/>
<path d="M168.167 189.559C168.167 189.559 166.425 189.179 165.883 189.454C165.341 189.73 162.958 193.847 163.232 194.375C163.506 194.904 166.503 192.905 166.503 192.905L168.167 189.559Z" fill="url(#paint26_linear_14_20)"/>
<path d="M169.517 192.348C169.517 192.348 168.884 192.749 168.589 193.868C168.294 194.987 168.104 196.256 167.851 196.383C167.599 196.51 166.037 195.453 165.889 194.248C165.741 193.043 168.42 188.038 168.799 187.784C169.178 187.53 171.836 187.763 172.005 187.784C172.174 187.805 169.517 192.348 169.517 192.348Z" fill="url(#paint27_linear_14_20)"/>
<path d="M176.246 192.905C176.246 192.905 174.177 190.764 172.87 190.616C171.562 190.467 176.012 189.454 176.075 189.454C176.139 189.454 178.331 190.108 178.331 190.108L179.028 192.369L176.246 192.905Z" fill="#FCB1A2"/>
<path d="M186.282 194.43C186.282 194.43 184.108 195.062 182.798 195.505C181.488 195.947 175.394 195.214 175.394 195.214C175.394 195.214 174.185 193.889 174.86 193.185C177.446 192.651 179.021 192.369 179.021 192.369C179.021 192.369 177.924 190.7 177.566 190.594C177.208 190.488 173.327 190.32 172.714 190.974C172.101 191.629 171.302 195.374 170.817 195.645C170.332 195.917 168.961 193.256 169.109 192.263C169.257 191.27 172.468 185.968 173.074 185.841C173.679 185.714 177.459 188.228 179.23 189.094C181.002 189.96 181.93 190.193 183.195 190.552C184.042 190.808 184.791 191.316 185.342 192.009C185.894 192.702 186.221 193.546 186.282 194.43Z" fill="url(#paint28_linear_14_20)"/>
<path d="M261.891 199.241C261.891 199.241 265.66 176.356 269.455 161.272C273.251 146.188 275.557 140.514 278.537 141.582C281.516 142.65 275.443 153.583 273.079 164.399C270.715 175.215 267.177 192.399 266.896 199.241H261.891Z" fill="#363CCC"/>
<path d="M229.601 141.228H229.455C226.228 141.133 224.852 138.427 224.801 138.313L224.751 138.212V138.101C224.671 136.751 224.557 133.522 225.225 132.669C225.363 132.492 225.73 132.024 228.77 131.751C228.971 131.734 233.72 131.319 234.582 132.089C235.357 132.781 235.527 136.002 235.56 137.86V138.078L235.414 138.239C235.301 138.361 232.688 141.228 229.601 141.228ZM225.84 137.911C226.081 138.334 227.208 140.052 229.488 140.121C231.767 140.19 233.879 138.219 234.445 137.65C234.395 135.636 234.153 133.342 233.848 132.923C232.942 132.483 226.85 132.831 226.075 133.366C225.829 133.76 225.723 135.799 225.84 137.911Z" fill="#073335"/>
<path opacity="0.8" d="M258.004 151.855C258.004 151.855 257.915 155.47 257.789 160.57C253.033 175.353 243.642 198.368 243.642 198.368H207.286C207.286 198.368 208.135 193.922 209.099 187.322C217.402 192.243 229.486 187.514 234.392 184.904C239.47 182.204 240.861 172.398 244.458 164.624C248.056 156.85 258.004 151.855 258.004 151.855Z" fill="#C65B42"/>
<path d="M249.407 117.642L247.214 123.109C247.214 123.109 246.652 121.333 245.02 121.193C243.387 121.054 241.871 123.136 241.816 126.319C241.014 124.917 240.632 123.313 240.718 121.699C240.718 121.699 237.877 119.728 237.877 117.814C237.877 115.899 238.047 112.685 238.047 112.685C238.047 112.685 235.797 111.757 234.222 112.292C232.647 112.826 227.195 111.981 225.085 107.419C225.085 107.419 220.165 108.433 218.955 115.56C218.955 115.56 218.707 114.236 216.903 112.546C215.75 111.464 214.365 107.79 215.285 104.921C215.466 106.394 216.042 108.286 217.807 108.461C220.732 108.742 224.499 104.921 224.499 104.921C224.499 104.921 227.099 110.25 232.598 109.475C239.347 108.524 240.358 111.503 240.358 111.503C240.358 111.503 238.162 116.292 242.887 116.686C247.612 117.08 249.407 117.642 249.407 117.642Z" fill="#3A2713"/>
<path d="M277.12 199.004C277.12 199.004 281.633 196.68 282.519 194.268C283.405 191.857 282.27 190.487 283.616 189.305C284.962 188.122 290.814 186.621 291.578 183.608C292.342 180.595 288.85 178.03 290.707 175.298C292.565 172.567 302.348 169.017 302.827 165.694C303.306 162.37 298.889 160.567 298.932 156.06C298.974 151.554 302.151 140.202 300.352 138.034C298.554 135.865 292.17 139.666 287.559 145.012C282.947 150.359 282.758 155.582 282.125 159.702C281.491 163.822 280.965 164.437 278.603 165.913C276.24 167.388 274.849 169.278 275.229 173.243C275.608 177.209 276.009 180.471 273.689 182.179C271.369 183.886 268.713 184.713 268.27 186.932C267.827 189.15 267.299 194.179 270.126 198.995L277.12 199.004Z" fill="url(#paint29_linear_14_20)"/>
<path d="M272.144 198.791C272.144 198.791 274.948 193.023 277.416 189.58C279.884 186.137 280.01 185.355 281.464 180.749C282.918 176.143 286.399 162.371 290.069 155.23C293.739 148.089 296.185 144.077 296.185 144.077" stroke="#B55039" stroke-width="1.6" stroke-miterlimit="10" stroke-linecap="round"/>
<path d="M282.224 181.595L286.231 179.398" stroke="#B55039" stroke-width="1.6" stroke-miterlimit="10" stroke-linecap="round"/>
<path d="M281.465 184.045L288.044 182.948" stroke="#B55039" stroke-width="1.6" stroke-miterlimit="10" stroke-linecap="round"/>
<path d="M275.011 191.989C275.011 191.989 272.144 188.735 271.68 186.96" stroke="#B55039" stroke-width="1.6" stroke-miterlimit="10" stroke-linecap="round"/>
<path d="M274.843 195.496H279.061" stroke="#B55039" stroke-width="1.6" stroke-miterlimit="10" stroke-linecap="round"/>
<path d="M70.2988 200.172C70.2988 200.172 75.1917 194.481 73.251 188.397C71.3102 182.313 66.3627 185.183 64.7914 180.875C63.2202 176.567 64.2851 169.131 60.2929 167.042C56.3008 164.953 53.7691 162.986 52.3634 157.183C50.9576 151.381 43.4211 149.296 39.8793 149.014C36.3375 148.732 35.7179 146.593 34.6543 141.803C33.5906 137.014 27.9613 135.946 23.4578 135.607C18.9544 135.268 11.3669 134.367 9.22961 126.199C12.3236 142.65 13.8973 150.48 19.5216 153.915C25.146 157.351 26.6637 159.324 26.2694 165.464C25.875 171.604 30.529 177.702 38.2123 178.799C45.8955 179.896 48.2505 183.361 48.1236 189.319C47.9967 195.278 55.7123 194.474 58.6259 195.953C61.5395 197.432 61.7472 200.164 61.7472 200.164L70.2988 200.172Z" fill="url(#paint30_linear_14_20)"/>
<path d="M19.3026 140.105C19.3026 140.105 23.6195 146.822 32.8416 153.076C42.0638 159.329 46.7078 164.483 51.3319 168.328C55.9561 172.173 66.4832 189.354 67.7708 198.424" stroke="#363CCC" stroke-width="1.6" stroke-miterlimit="10" stroke-linecap="round"/>
<path d="M51.6111 163.766L51.332 168.328" stroke="#363CCC" stroke-width="1.6" stroke-miterlimit="10" stroke-linecap="round"/>
<path d="M55.745 167.018L55.4523 173.079" stroke="#363CCC" stroke-width="1.6" stroke-miterlimit="10" stroke-linecap="round"/>
<path d="M44.7074 173.75C44.7074 173.75 55.9039 176.902 58.0038 176.805" stroke="#363CCC" stroke-width="1.6" stroke-miterlimit="10" stroke-linecap="round"/>
<path d="M50.0083 180.327C50.0083 180.327 58.703 182.966 61.3354 182.366" stroke="#363CCC" stroke-width="1.6" stroke-miterlimit="10" stroke-linecap="round"/>
<path d="M53.5924 187.805C53.5924 187.805 62.7026 189.331 64.5164 188.632" stroke="#363CCC" stroke-width="1.6" stroke-miterlimit="10" stroke-linecap="round"/>
<path d="M63.8845 200.172C63.8845 200.172 62.8158 195.608 60.6786 194.707C58.5413 193.806 52.0747 193.918 50.4438 190.594C48.8128 187.271 50.2746 180.625 47.2951 178.764C44.3156 176.903 35.6532 176.905 31.9422 174.088C28.2312 171.272 25.7618 166.851 22.2698 166.046C18.7777 165.241 15.4598 168.063 10.6852 167.778C5.00482 167.441 0 161.075 0 161.075C0 161.075 4.77964 171.978 9.22215 176.807C13.6647 181.637 15.1836 181.214 18.8673 181.017C22.5509 180.82 24.575 179.863 25.6722 185.379C26.7695 190.895 26.7396 193.927 31.9422 194.856C37.1449 195.786 41.3896 193.294 42.7107 194.87C44.0319 196.447 44.124 196.779 46.423 196.673C48.722 196.568 52.2999 196.448 52.8622 200.163L63.8845 200.172Z" fill="url(#paint31_linear_14_20)"/>
<path d="M15.7173 173.082C15.7173 173.082 19.3026 175.556 25.8401 177.035C32.3776 178.515 35.7925 181.049 39.2522 184.472C42.7119 187.894 48.4893 194.651 53.1309 196.511" stroke="#B55039" stroke-width="1.6" stroke-miterlimit="10" stroke-linecap="round"/>
<path d="M30.4382 186.243C30.4382 186.243 31.7457 186.367 34.2338 185.714C36.7219 185.061 39.6964 184.912 39.6964 184.912" stroke="#B55039" stroke-width="1.6" stroke-miterlimit="10" stroke-linecap="round"/>
<path d="M35.183 189.559C35.183 189.559 36.5328 189.073 39.0843 188.735C41.6359 188.397 42.5888 187.906 42.5888 187.906" stroke="#B55039" stroke-width="1.6" stroke-miterlimit="10" stroke-linecap="round"/>
<path d="M44.8766 180.327C44.8766 180.327 45.3743 187.724 44.379 189.737" stroke="#B55039" stroke-width="1.6" stroke-miterlimit="10" stroke-linecap="round"/>
<path d="M47.0126 186.594C47.0126 186.594 47.4455 190.759 46.7513 192.015" stroke="#B55039" stroke-width="1.6" stroke-miterlimit="10" stroke-linecap="round"/>
<path d="M70.5998 162.709H40.3072C39.6919 162.709 39.1017 162.464 38.6666 162.028C38.2315 161.592 37.9871 161.001 37.9871 160.385V141.203C37.9871 140.898 38.0471 140.595 38.1637 140.313C38.2803 140.032 38.4512 139.775 38.6667 139.56C38.8822 139.344 39.1379 139.173 39.4194 139.056C39.7009 138.94 40.0026 138.88 40.3072 138.88H68.2797C68.5843 138.88 68.886 138.94 69.1675 139.056C69.449 139.173 69.7048 139.344 69.9202 139.56C70.1357 139.775 70.3066 140.032 70.4232 140.313C70.5398 140.595 70.5998 140.898 70.5998 141.203V158.525L77.6387 163.469H75.0262L70.5998 162.709Z" fill="#FFC0B8"/>
<path d="M67.9849 162.709H37.6922C37.0769 162.709 36.4867 162.464 36.0516 162.028C35.6165 161.592 35.3721 161.001 35.3721 160.385V141.203C35.3721 140.898 35.4321 140.595 35.5487 140.313C35.6653 140.032 35.8362 139.775 36.0517 139.56C36.2672 139.344 36.5229 139.173 36.8044 139.056C37.0859 138.94 37.3876 138.88 37.6922 138.88H65.6647C65.9693 138.88 66.271 138.94 66.5525 139.056C66.834 139.173 67.0898 139.344 67.3052 139.56C67.5207 139.775 67.6916 140.032 67.8082 140.313C67.9248 140.595 67.9849 140.898 67.9849 141.203V158.525L75.0187 163.468L67.9849 162.709Z" fill="white"/>
<path d="M51.3781 154.091L49.3067 152.27L43.3838 157.355C43.6077 157.565 43.9032 157.681 44.2098 157.68H58.5463C58.8522 157.681 59.1469 157.565 59.3699 157.355L53.4507 152.27L51.3781 154.091Z" fill="#FF8271"/>
<path d="M59.3723 146.029C59.1485 145.819 58.853 145.703 58.5462 145.704H44.2098C43.9034 145.703 43.6085 145.821 43.3862 146.032L51.378 152.894L59.3723 146.029Z" fill="#FF8271"/>
<path d="M43.0056 146.756V156.71L48.7867 151.789L43.0056 146.756Z" fill="#FF8271"/>
<path d="M53.9706 151.789L59.7504 156.71V146.752L53.9706 151.789Z" fill="#FF8271"/>
<path d="M63.1426 146.712C63.3791 144.789 62.0141 143.037 60.0938 142.8C58.1735 142.564 56.4251 143.931 56.1887 145.855C55.9522 147.778 57.3172 149.53 59.2375 149.767C61.1578 150.003 62.9062 148.636 63.1426 146.712Z" fill="#FFF3F1"/>
<path d="M58.8536 144.818H60.6151V145.371H59.3935L59.3611 145.87C59.4184 145.856 59.4756 145.845 59.5328 145.835C59.6004 145.825 59.6686 145.821 59.7368 145.821C59.8706 145.82 60.0039 145.838 60.1325 145.875C60.2486 145.907 60.3569 145.963 60.4509 146.038C60.544 146.115 60.6174 146.213 60.6649 146.324C60.7204 146.456 60.7471 146.599 60.7433 146.742C60.7454 146.884 60.7187 147.026 60.6649 147.157C60.615 147.276 60.5399 147.383 60.4447 147.47C60.3433 147.556 60.2251 147.621 60.0976 147.659C59.9529 147.708 59.8011 147.731 59.6485 147.729C59.4413 147.734 59.2353 147.695 59.0439 147.616C58.8716 147.539 58.7138 147.433 58.5774 147.303L58.9581 146.848C59.0558 146.94 59.166 147.018 59.2853 147.079C59.3958 147.134 59.5177 147.161 59.6411 147.16C59.7658 147.167 59.8892 147.131 59.9906 147.058C60.0334 147.021 60.0669 146.974 60.0885 146.922C60.1101 146.87 60.1192 146.814 60.115 146.757C60.1182 146.701 60.1073 146.645 60.0834 146.593C60.0595 146.542 60.0234 146.498 59.9782 146.464C59.8686 146.39 59.7374 146.353 59.605 146.361C59.5186 146.361 59.4325 146.371 59.3487 146.392C59.2725 146.411 59.198 146.437 59.126 146.468L58.7615 146.226L58.8536 144.818Z" fill="#FF8271"/>
<path d="M117.111 97.3892H74.597C73.7246 97.3892 72.888 97.7364 72.2711 98.3543C71.6543 98.9723 71.3077 99.8104 71.3077 100.684V130.718C71.3077 131.592 71.6543 132.431 72.2711 133.049C72.8879 133.667 73.7245 134.014 74.597 134.015H115.003L118.124 139.929L120.402 142.211V100.684C120.401 99.8103 120.055 98.9722 119.437 98.3543C118.82 97.7364 117.984 97.3892 117.111 97.3892Z" fill="#FFC0B8"/>
<path d="M114.836 95.1074H72.3192C71.4467 95.1077 70.6101 95.4552 69.9932 96.0733C69.3764 96.6914 69.0299 97.5296 69.0299 98.4037V128.438C69.0299 128.87 69.115 129.299 69.2803 129.699C69.4456 130.098 69.6879 130.462 69.9933 130.768C70.2987 131.074 70.6614 131.316 71.0604 131.482C71.4595 131.647 71.8872 131.733 72.3192 131.733H112.721L118.12 139.929V98.4037C118.12 97.5305 117.774 96.693 117.159 96.075C116.543 95.4571 115.707 95.109 114.836 95.1074Z" fill="white"/>
<path d="M191.718 73.0529H138.547C137.393 73.0529 136.285 73.5125 135.469 74.3305C134.652 75.1485 134.193 76.2579 134.193 77.4147V111.768L132.042 130.433L134.193 132.58L145.887 116.13H191.718C192.873 116.13 193.98 115.67 194.797 114.852C195.614 114.034 196.072 112.925 196.072 111.768V77.4147C196.072 76.2579 195.614 75.1485 194.797 74.3305C193.98 73.5125 192.873 73.0529 191.718 73.0529Z" fill="#FFC0B8"/>
<path d="M189.561 70.8982H136.396C135.242 70.8982 134.134 71.3578 133.318 72.1758C132.501 72.9938 132.042 74.1032 132.042 75.26V130.429L143.736 113.979H189.558C190.713 113.979 191.821 113.519 192.637 112.701C193.454 111.883 193.913 110.774 193.913 109.617V75.26C193.913 74.1036 193.454 72.9946 192.638 72.1766C191.822 71.3587 190.715 70.8989 189.561 70.8982Z" fill="white"/>
<path d="M158.528 82H140.472C140.081 82 139.707 81.842 139.431 81.5607C139.155 81.2794 139 80.8978 139 80.5C139 80.1022 139.155 79.7207 139.431 79.4394C139.707 79.158 140.081 79 140.472 79H158.528C158.919 79 159.293 79.158 159.569 79.4394C159.845 79.7207 160 80.1022 160 80.5C160 80.8978 159.845 81.2794 159.569 81.5607C159.293 81.842 158.919 82 158.528 82Z" fill="#FF8271"/>
<path d="M159.528 94H141.472C141.081 94 140.707 93.842 140.431 93.5607C140.155 93.2794 140 92.8978 140 92.5C140 92.1022 140.155 91.7207 140.431 91.4394C140.707 91.158 141.081 91 141.472 91H159.528C159.919 91 160.293 91.158 160.569 91.4394C160.845 91.7207 161 92.1022 161 92.5C161 92.8978 160.845 93.2794 160.569 93.5607C160.293 93.842 159.919 94 159.528 94Z" fill="#FF8271"/>
<path d="M159.528 108H141.472C141.081 108 140.707 107.842 140.431 107.561C140.155 107.279 140 106.898 140 106.5C140 106.102 140.155 105.721 140.431 105.439C140.707 105.158 141.081 105 141.472 105H159.528C159.919 105 160.293 105.158 160.569 105.439C160.845 105.721 161 106.102 161 106.5C161 106.898 160.845 107.279 160.569 107.561C160.293 107.842 159.919 108 159.528 108Z" fill="#FF8271"/>
<path opacity="0.6" d="M185.528 89H167.472C167.081 89 166.707 88.842 166.431 88.5607C166.155 88.2794 166 87.8978 166 87.5C166 87.1022 166.155 86.7207 166.431 86.4394C166.707 86.158 167.081 86 167.472 86H185.528C185.919 86 186.293 86.158 186.569 86.4394C186.845 86.7207 187 87.1022 187 87.5C187 87.8978 186.845 88.2794 186.569 88.5607C186.293 88.842 185.919 89 185.528 89Z" fill="#FFC0B8"/>
<path opacity="0.6" d="M185.528 89H167.472C167.081 89 166.707 88.842 166.431 88.5607C166.155 88.2794 166 87.8978 166 87.5C166 87.1022 166.155 86.7207 166.431 86.4394C166.707 86.158 167.081 86 167.472 86H185.528C185.919 86 186.293 86.158 186.569 86.4394C186.845 86.7207 187 87.1022 187 87.5C187 87.8978 186.845 88.2794 186.569 88.5607C186.293 88.842 185.919 89 185.528 89Z" fill="#FFC0B8"/>
<path opacity="0.6" d="M185.528 103H167.472C167.081 103 166.707 102.842 166.431 102.561C166.155 102.279 166 101.898 166 101.5C166 101.102 166.155 100.721 166.431 100.439C166.707 100.158 167.081 100 167.472 100H185.528C185.919 100 186.293 100.158 186.569 100.439C186.845 100.721 187 101.102 187 101.5C187 101.898 186.845 102.279 186.569 102.561C186.293 102.842 185.919 103 185.528 103Z" fill="#FFC0B8"/>
<path d="M195.506 124.071H167.752C167.257 124.071 166.767 124.168 166.31 124.358C165.853 124.548 165.438 124.826 165.089 125.176C164.739 125.527 164.462 125.943 164.273 126.4C164.085 126.858 163.988 127.349 163.988 127.844V145.131L158.614 154.306L160.378 156.074L170.037 149.792H195.506C196.001 149.792 196.49 149.695 196.946 149.505C197.403 149.316 197.818 149.038 198.167 148.688C198.517 148.338 198.794 147.923 198.983 147.466C199.172 147.008 199.27 146.518 199.27 146.023V127.844C199.27 127.349 199.173 126.858 198.985 126.4C198.796 125.943 198.519 125.527 198.169 125.176C197.82 124.826 197.404 124.548 196.948 124.358C196.491 124.168 196.001 124.071 195.506 124.071Z" fill="#FFC0B8"/>
<path d="M193.742 122.303H165.987C164.989 122.303 164.032 122.7 163.326 123.407C162.621 124.114 162.224 125.073 162.224 126.072V143.357L158.616 154.301L168.275 148.02H193.745C194.743 148.02 195.7 147.622 196.406 146.915C197.111 146.208 197.508 145.25 197.508 144.25V126.072C197.508 125.577 197.411 125.087 197.221 124.629C197.032 124.172 196.755 123.756 196.405 123.406C196.055 123.056 195.64 122.778 195.183 122.589C194.726 122.399 194.237 122.302 193.742 122.303Z" fill="white"/>
<path opacity="0.6" d="M172.739 136.477C173.464 135.751 173.464 134.573 172.739 133.847C172.014 133.121 170.839 133.121 170.114 133.847C169.389 134.573 169.389 135.751 170.114 136.477C170.839 137.203 172.014 137.203 172.739 136.477Z" fill="#FFC0B8"/>
<path d="M181.177 136.476C181.902 135.75 181.902 134.573 181.177 133.847C180.452 133.121 179.277 133.121 178.552 133.847C177.827 134.573 177.827 135.75 178.552 136.476C179.277 137.203 180.452 137.203 181.177 136.476Z" fill="#FF8271"/>
<path opacity="0.6" d="M189.978 136.945C190.703 136.219 190.703 135.041 189.978 134.315C189.253 133.589 188.078 133.589 187.353 134.315C186.628 135.041 186.628 136.219 187.353 136.945C188.078 137.671 189.253 137.671 189.978 136.945Z" fill="#FFC0B8"/>
<path d="M291.457 202.593H45.6007C45.3275 202.593 45.0569 202.539 44.8045 202.435C44.5521 202.33 44.3227 202.177 44.1295 201.983C43.9363 201.79 43.7831 201.56 43.6786 201.307C43.5742 201.054 43.5205 200.783 43.5206 200.509C43.5205 200.236 43.5741 199.964 43.6786 199.712C43.7831 199.459 43.9363 199.229 44.1294 199.035C44.3226 198.841 44.5519 198.688 44.8044 198.583C45.0568 198.478 45.3274 198.424 45.6007 198.424H291.457C291.731 198.424 292.001 198.478 292.254 198.583C292.506 198.688 292.736 198.841 292.929 199.035C293.122 199.229 293.275 199.459 293.38 199.712C293.484 199.964 293.538 200.236 293.537 200.509C293.538 200.783 293.484 201.054 293.379 201.307C293.275 201.56 293.122 201.79 292.929 201.983C292.735 202.177 292.506 202.33 292.254 202.435C292.001 202.539 291.731 202.593 291.457 202.593Z" fill="#23217E"/>
<path d="M164.063 195.305H104.706L93.6123 151.452C92.8348 152.4 91.6679 153.088 89.9187 152.916C89.9187 152.916 89.3402 147.363 95.033 147.297C95.0678 147.297 95.1027 147.297 95.1375 147.297H149.479C150.176 147.297 150.853 147.529 151.403 147.958C151.953 148.387 152.345 148.988 152.516 149.665L164.063 195.305Z" fill="#BACDCE"/>
<path d="M160.791 198.424H101.434L89.925 152.937V152.918C89.8502 152.622 89.844 152.312 89.9067 152.013C89.9695 151.714 90.0995 151.433 90.287 151.192C90.4746 150.95 90.7146 150.755 90.9888 150.621C91.263 150.486 91.5642 150.416 91.8694 150.416H146.212C146.909 150.416 147.586 150.649 148.136 151.078C148.686 151.507 149.078 152.107 149.249 152.784L160.791 198.424Z" fill="url(#paint32_linear_14_20)"/>
<path d="M159.788 194.464H208.202C208.664 194.466 209.107 194.651 209.434 194.98C209.76 195.308 209.944 195.753 209.943 196.216V198.424H160.791L159.788 194.464Z" fill="#BACDCE"/>
<path d="M164.932 198.378C166.102 197.206 166.102 195.307 164.932 194.136C163.763 192.964 161.867 192.964 160.698 194.136C159.528 195.307 159.528 197.206 160.698 198.378C161.867 199.549 163.763 199.549 164.932 198.378Z" fill="white"/>
<path d="M128.798 174.42C129.217 175.119 127.688 177.899 125.325 177.899C124.868 177.899 124.416 177.809 123.995 177.635C123.573 177.46 123.19 177.204 122.868 176.88C122.545 176.557 122.289 176.174 122.114 175.751C121.94 175.329 121.85 174.877 121.85 174.42C121.85 172.052 124.605 170.516 125.325 170.939C125.93 171.295 125.013 173.004 125.924 173.891C126.835 174.779 128.451 173.841 128.798 174.42Z" fill="white"/>
<path d="M160.791 198.424H101.434L89.9249 152.937C90.2322 153.95 103.668 197.31 160.791 198.424Z" fill="#DCE8EA"/>
<path d="M258.179 176.341C255.142 188.792 252.78 197.017 245.526 198.594C238.272 200.17 217.015 198.368 217.015 198.368L215.61 195.578L213.978 192.338C213.978 192.338 221.345 191.437 226.238 190.874C231.131 190.31 240.918 188.506 241.59 187.436C242.261 186.367 243.331 169.973 248.113 162.031C252.896 154.089 260.43 150.411 260.43 150.411C260.498 150.464 260.562 150.522 260.622 150.583C263.412 153.324 261.15 164.163 258.179 176.341Z" fill="url(#paint33_linear_14_20)"/>
<path style="mix-blend-mode:screen" d="M260.621 150.586C258.382 152.738 253.636 158.272 251.487 168.208C248.62 181.467 249.295 192.081 240.775 193.028C234.195 193.76 221.191 195.035 215.61 195.578L213.978 192.338C213.978 192.338 221.345 191.437 226.238 190.874C231.131 190.31 240.918 188.506 241.59 187.436C242.261 186.367 243.331 169.973 248.113 162.031C252.896 154.089 260.43 150.411 260.43 150.411C260.497 150.465 260.561 150.523 260.621 150.586Z" fill="url(#paint34_linear_14_20)"/>
<path d="M214.691 192.253C214.691 192.253 217.971 193.277 216.818 197.978C216.818 197.978 213.641 198.594 212.376 197.157C209.929 197.552 205.149 198.538 203.996 196.534C202.842 194.53 204.053 191.183 204.053 191.183C204.053 191.183 202.436 190.055 201.746 190.112C201.057 190.169 199.033 191.872 198.288 191.872C197.543 191.872 197.107 190.928 197.656 190.168C198.205 189.408 202.9 187.435 203.828 187.408C204.756 187.38 207.286 188.457 210.09 189.935C212.894 191.413 214.691 192.253 214.691 192.253Z" fill="url(#paint35_linear_14_20)"/>
<path d="M206.063 190.616C206.063 190.616 203.512 190.573 202.082 191.376C200.653 192.178 198.033 193.826 198.033 194.46C198.033 195.094 200.037 194.819 202.398 194.144C204.76 193.468 206.173 193.108 207.037 193.193C207.856 192.648 207.539 190.826 206.063 190.616Z" fill="url(#paint36_linear_14_20)"/>
<path d="M207.478 193.147C206.404 192.952 205.302 192.988 204.243 193.253C202.577 193.696 200.489 195.027 201.058 195.496C201.628 195.964 206.985 195.706 208.503 195.833C208.446 194.587 208.637 193.894 207.478 193.147Z" fill="url(#paint37_linear_14_20)"/>
<path d="M5.97768 32.8909C7.25357 32.8909 8.28789 31.8547 8.28789 30.5766C8.28789 29.2985 7.25357 28.2624 5.97768 28.2624C4.70179 28.2624 3.66748 29.2985 3.66748 30.5766C3.66748 31.8547 4.70179 32.8909 5.97768 32.8909Z" fill="white"/>
<path d="M5.97768 45.6597C7.25357 45.6597 8.28789 44.6236 8.28789 43.3455C8.28789 42.0673 7.25357 41.0312 5.97768 41.0312C4.70179 41.0312 3.66748 42.0673 3.66748 43.3455C3.66748 44.6236 4.70179 45.6597 5.97768 45.6597Z" fill="white"/>
<path d="M5.97768 58.4273C7.25357 58.4273 8.28789 57.3912 8.28789 56.113C8.28789 54.8349 7.25357 53.7988 5.97768 53.7988C4.70179 53.7988 3.66748 54.8349 3.66748 56.113C3.66748 57.3912 4.70179 58.4273 5.97768 58.4273Z" fill="white"/>
<path d="M5.97768 71.1961C7.25357 71.1961 8.28789 70.16 8.28789 68.8818C8.28789 67.6037 7.25357 66.5676 5.97768 66.5676C4.70179 66.5676 3.66748 67.6037 3.66748 68.8818C3.66748 70.16 4.70179 71.1961 5.97768 71.1961Z" fill="white"/>
<defs>
<linearGradient id="paint0_linear_14_20" x1="141.407" y1="173.405" x2="216.054" y2="-81.3227" gradientUnits="userSpaceOnUse">
<stop stop-color="#EEF3FF"/>
<stop offset="1" stop-color="#CFDCFF"/>
</linearGradient>
<linearGradient id="paint1_linear_14_20" x1="220.889" y1="44.0695" x2="220.889" y2="165.818" gradientUnits="userSpaceOnUse">
<stop offset="0.11" stop-color="#3563D8"/>
<stop offset="1" stop-color="#1557A5"/>
</linearGradient>
<linearGradient id="paint2_linear_14_20" x1="220.889" y1="82.0096" x2="220.889" y2="59.2747" gradientUnits="userSpaceOnUse">
<stop stop-color="#FFE9D2"/>
<stop offset="1" stop-color="#FDD1A1"/>
</linearGradient>
<linearGradient id="paint3_linear_14_20" x1="141678" y1="128067" x2="141678" y2="52141.6" gradientUnits="userSpaceOnUse">
<stop stop-color="#EEF0FF"/>
<stop offset="1" stop-color="#CFE5FF"/>
</linearGradient>
<linearGradient id="paint4_linear_14_20" x1="73767.6" y1="65347" x2="73271" y2="79151.1" gradientUnits="userSpaceOnUse">
<stop stop-color="#8388FF"/>
<stop offset="1" stop-color="#C758FB"/>
</linearGradient>
<linearGradient id="paint5_linear_14_20" x1="118.825" y1="63.3311" x2="111.486" y2="64.6787" gradientUnits="userSpaceOnUse">
<stop stop-color="#FFCA83"/>
<stop offset="1" stop-color="#FBB958"/>
</linearGradient>
<linearGradient id="paint6_linear_14_20" x1="40007.5" y1="31669.8" x2="39004.5" y2="38457.2" gradientUnits="userSpaceOnUse">
<stop stop-color="#FFCA83"/>
<stop offset="1" stop-color="#FBB958"/>
</linearGradient>
<linearGradient id="paint7_linear_14_20" x1="90.9414" y1="45.8366" x2="85.5293" y2="36.5069" gradientUnits="userSpaceOnUse">
<stop stop-color="#FFE9E9"/>
<stop offset="1" stop-color="#FFB7C6"/>
</linearGradient>
<linearGradient id="paint8_linear_14_20" x1="18693.4" y1="20395.2" x2="16424.2" y2="20804.5" gradientUnits="userSpaceOnUse">
<stop stop-color="#FFE9E9"/>
<stop offset="1" stop-color="#FFB7C6"/>
</linearGradient>
<linearGradient id="paint9_linear_14_20" x1="84.8555" y1="15.7004" x2="87.8588" y2="22.6256" gradientUnits="userSpaceOnUse">
<stop stop-color="#68471E"/>
<stop offset="1" stop-color="#51381C"/>
</linearGradient>
<linearGradient id="paint10_linear_14_20" x1="53568" y1="28582.4" x2="57375.3" y2="35792" gradientUnits="userSpaceOnUse">
<stop stop-color="#155793"/>
<stop offset="1" stop-color="#17206D"/>
</linearGradient>
<linearGradient id="paint11_linear_14_20" x1="18365.3" y1="28158.4" x2="16485.7" y2="30452.7" gradientUnits="userSpaceOnUse">
<stop stop-color="#FFCA83"/>
<stop offset="1" stop-color="#FBB958"/>
</linearGradient>
<linearGradient id="paint12_linear_14_20" x1="10790" y1="36180.7" x2="11796.6" y2="36455.9" gradientUnits="userSpaceOnUse">
<stop stop-color="#FFCA83"/>
<stop offset="1" stop-color="#FBB958"/>
</linearGradient>
<linearGradient id="paint13_linear_14_20" x1="73.0543" y1="65.365" x2="91.8375" y2="63.7368" gradientUnits="userSpaceOnUse">
<stop stop-color="#FFCA83"/>
<stop offset="0.01" stop-color="#FFCA83"/>
<stop offset="0.64" stop-color="#FCBE64"/>
<stop offset="1" stop-color="#FBB958"/>
</linearGradient>
<linearGradient id="paint14_linear_14_20" x1="13361.2" y1="9300.69" x2="13295.3" y2="10083.4" gradientUnits="userSpaceOnUse">
<stop stop-color="#FFE9E9"/>
<stop offset="1" stop-color="#FFB7C6"/>
</linearGradient>
<linearGradient id="paint15_linear_14_20" x1="101360" y1="103643" x2="100451" y2="125512" gradientUnits="userSpaceOnUse">
<stop stop-color="#8388FF"/>
<stop offset="1" stop-color="#C758FB"/>
</linearGradient>
<linearGradient id="paint16_linear_14_20" x1="57970.5" y1="90730.8" x2="61738.1" y2="91641.5" gradientUnits="userSpaceOnUse">
<stop stop-color="#FF9676"/>
<stop offset="1" stop-color="#E0714F"/>
</linearGradient>
<linearGradient id="paint17_linear_14_20" x1="97635.4" y1="99454.9" x2="110085" y2="109305" gradientUnits="userSpaceOnUse">
<stop stop-color="#FF9676"/>
<stop offset="1" stop-color="#E0714F"/>
</linearGradient>
<linearGradient id="paint18_linear_14_20" x1="29248.3" y1="85975.4" x2="30008.1" y2="85982.3" gradientUnits="userSpaceOnUse">
<stop stop-color="#FFCA83"/>
<stop offset="1" stop-color="#FBB958"/>
</linearGradient>
<linearGradient id="paint19_linear_14_20" x1="225.37" y1="140.166" x2="239.709" y2="139.718" gradientUnits="userSpaceOnUse">
<stop stop-color="#FFCFC7"/>
<stop offset="1" stop-color="#FCB29D"/>
</linearGradient>
<linearGradient id="paint20_linear_14_20" x1="20005" y1="13179.7" x2="20251.2" y2="13046.6" gradientUnits="userSpaceOnUse">
<stop stop-color="#FFCA83"/>
<stop offset="1" stop-color="#FBB958"/>
</linearGradient>
<linearGradient id="paint21_linear_14_20" x1="8146.6" y1="14559.9" x2="8314.32" y2="14542.8" gradientUnits="userSpaceOnUse">
<stop stop-color="#FFCFC7"/>
<stop offset="1" stop-color="#FCB29D"/>
</linearGradient>
<linearGradient id="paint22_linear_14_20" x1="56417.3" y1="58421" x2="59721.3" y2="57282.5" gradientUnits="userSpaceOnUse">
<stop stop-color="#FFCFC7"/>
<stop offset="1" stop-color="#FCB29D"/>
</linearGradient>
<linearGradient id="paint23_linear_14_20" x1="80899.2" y1="45869.1" x2="79332.5" y2="50031.7" gradientUnits="userSpaceOnUse">
<stop stop-color="#68471E"/>
<stop offset="1" stop-color="#51381C"/>
</linearGradient>
<linearGradient id="paint24_linear_14_20" x1="241.194" y1="150.969" x2="238.615" y2="147.087" gradientUnits="userSpaceOnUse">
<stop stop-color="#C15238"/>
<stop offset="1" stop-color="#A44D32"/>
</linearGradient>
<linearGradient id="paint25_linear_14_20" x1="14338.4" y1="17964.1" x2="14592.6" y2="17849.1" gradientUnits="userSpaceOnUse">
<stop stop-color="#C15238"/>
<stop offset="1" stop-color="#A44D32"/>
</linearGradient>
<linearGradient id="paint26_linear_14_20" x1="7518.63" y1="11187.2" x2="7716.12" y2="11187.2" gradientUnits="userSpaceOnUse">
<stop stop-color="#FFCFC7"/>
<stop offset="1" stop-color="#FCB29D"/>
</linearGradient>
<linearGradient id="paint27_linear_14_20" x1="9392.67" y1="18977.7" x2="9694.66" y2="18977.7" gradientUnits="userSpaceOnUse">
<stop stop-color="#FFCFC7"/>
<stop offset="1" stop-color="#FCB29D"/>
</linearGradient>
<linearGradient id="paint28_linear_14_20" x1="26481.8" y1="21245.3" x2="28854.4" y2="21245.3" gradientUnits="userSpaceOnUse">
<stop stop-color="#FFCFC7"/>
<stop offset="1" stop-color="#FCB29D"/>
</linearGradient>
<linearGradient id="paint29_linear_14_20" x1="284.42" y1="164.609" x2="294.191" y2="172.965" gradientUnits="userSpaceOnUse">
<stop stop-color="#FF9676"/>
<stop offset="1" stop-color="#E0714F"/>
</linearGradient>
<linearGradient id="paint30_linear_14_20" x1="34546.1" y1="137202" x2="28297.6" y2="145751" gradientUnits="userSpaceOnUse">
<stop stop-color="#98A5FF"/>
<stop offset="1" stop-color="#30007F"/>
</linearGradient>
<linearGradient id="paint31_linear_14_20" x1="28893" y1="78599.4" x2="27707.9" y2="83132.7" gradientUnits="userSpaceOnUse">
<stop stop-color="#FF9676"/>
<stop offset="1" stop-color="#E0714F"/>
</linearGradient>
<linearGradient id="paint32_linear_14_20" x1="105.335" y1="147.659" x2="132.56" y2="185.303" gradientUnits="userSpaceOnUse">
<stop stop-color="white"/>
<stop offset="1" stop-color="#DCE8EA"/>
</linearGradient>
<linearGradient id="paint33_linear_14_20" x1="98393.8" y1="97530.9" x2="104567" y2="100030" gradientUnits="userSpaceOnUse">
<stop stop-color="#FF9676"/>
<stop offset="1" stop-color="#E0714F"/>
</linearGradient>
<linearGradient id="paint34_linear_14_20" x1="94533" y1="87646.9" x2="101420" y2="94759.1" gradientUnits="userSpaceOnUse">
<stop stop-color="#FF9676"/>
<stop offset="1" stop-color="#E0714F"/>
</linearGradient>
<linearGradient id="paint35_linear_14_20" x1="34652.4" y1="22584.6" x2="35350.9" y2="23583.3" gradientUnits="userSpaceOnUse">
<stop stop-color="#FFCFC7"/>
<stop offset="1" stop-color="#FCB29D"/>
</linearGradient>
<linearGradient id="paint36_linear_14_20" x1="16914.6" y1="9306.85" x2="17361.9" y2="8990.49" gradientUnits="userSpaceOnUse">
<stop stop-color="#FFCFC7"/>
<stop offset="1" stop-color="#FCB29D"/>
</linearGradient>
<linearGradient id="paint37_linear_14_20" x1="13594.7" y1="6348.44" x2="13907.4" y2="6084.4" gradientUnits="userSpaceOnUse">
<stop stop-color="#FFCFC7"/>
<stop offset="1" stop-color="#FCB29D"/>
</linearGradient>
</defs>
</svg>
