<svg width="313" height="252" viewBox="0 0 313 252" fill="none" xmlns="http://www.w3.org/2000/svg">
<path d="M237.062 249.38C249.217 257.758 274.54 240.423 286.163 229.804C298.828 218.228 318.079 193.73 310.485 180.908C302.661 167.707 266.921 167.825 246.985 186.416C227.029 205.016 224.449 240.687 237.062 249.38Z" fill="url(#paint0_linear_14_168)"/>
<path d="M7.88235 146.603C31.754 189.578 99.0707 187.078 134.428 177.892C194.958 162.168 252.402 103.324 241.677 60.8894C228.883 10.2231 117.038 -24.5197 52.0628 21.5169C15.1517 47.6674 -14.8355 105.704 7.88235 146.603Z" fill="url(#paint1_linear_14_168)"/>
<path d="M261.682 172.179C261.725 172.446 261.846 172.695 262.03 172.893C262.214 173.092 262.453 173.231 262.716 173.294C262.979 173.357 263.255 173.34 263.509 173.245C263.763 173.151 263.983 172.984 264.142 172.765C264.3 172.545 264.39 172.284 264.4 172.013C264.41 171.743 264.34 171.476 264.198 171.245C264.056 171.015 263.849 170.831 263.603 170.719C263.357 170.606 263.083 170.569 262.816 170.612C262.457 170.669 262.137 170.867 261.924 171.161C261.712 171.455 261.624 171.821 261.682 172.179Z" fill="white"/>
<path d="M262.884 179.629C262.927 179.897 263.048 180.145 263.232 180.344C263.416 180.542 263.655 180.681 263.919 180.744C264.182 180.807 264.458 180.79 264.712 180.695C264.966 180.601 265.186 180.434 265.344 180.214C265.503 179.995 265.593 179.733 265.602 179.463C265.612 179.192 265.542 178.925 265.4 178.694C265.257 178.464 265.05 178.281 264.804 178.168C264.558 178.056 264.284 178.019 264.017 178.062C263.659 178.12 263.338 178.317 263.126 178.611C262.914 178.905 262.827 179.271 262.884 179.629Z" fill="white"/>
<path d="M264.079 187.078C264.122 187.345 264.243 187.594 264.427 187.792C264.611 187.99 264.85 188.129 265.113 188.191C265.376 188.253 265.652 188.236 265.905 188.142C266.159 188.048 266.379 187.881 266.537 187.661C266.695 187.442 266.785 187.181 266.795 186.911C266.805 186.641 266.735 186.374 266.593 186.143C266.451 185.913 266.244 185.73 265.998 185.618C265.752 185.505 265.479 185.468 265.212 185.511C264.854 185.569 264.533 185.766 264.321 186.06C264.109 186.354 264.022 186.72 264.079 187.078Z" fill="white"/>
<path d="M267.379 195.455C268.01 195.04 268.185 194.191 267.77 193.56C267.355 192.928 266.506 192.753 265.875 193.168C265.244 193.584 265.069 194.432 265.484 195.064C265.899 195.695 266.748 195.87 267.379 195.455Z" fill="white"/>
<path d="M267.263 127.609C267.263 127.609 268.004 125.273 271.007 125.347C274.01 125.421 279.089 125.755 278.014 121.64C276.939 117.525 276.419 115.411 278.978 113.928C281.536 112.445 289.617 110.814 292.322 107.144C295.028 103.474 289.653 100.731 290.729 98.2841C291.805 95.8372 295.808 92.7598 298.18 90.9058C300.552 89.0518 302.258 82.7131 299.07 77.9313C295.882 73.1496 291.581 82.528 287.911 85.2719C284.241 88.0158 281.053 87.0139 278.755 86.2348C276.457 85.4558 274.269 86.7912 273.787 91.2028C273.305 95.6145 271.156 95.6887 267.777 94.206C264.398 92.7233 254.758 99.6561 253.446 106.625C252.133 113.595 256.656 120.268 256.656 120.268L267.263 127.609Z" fill="#98A5FF"/>
<path d="M263.03 118.15C263.03 118.15 264.266 114.412 270.05 107.59C275.833 100.768 279.589 98.3467 283.394 96.0731C287.2 93.7995 291.303 90.6855 292.686 88.4119" stroke="#363CCC" stroke-width="1.6" stroke-miterlimit="10" stroke-linecap="round"/>
<path d="M265.483 113.624C265.483 113.624 270.345 113.308 274.423 117.423" stroke="#363CCC" stroke-width="1.6" stroke-miterlimit="10" stroke-linecap="round"/>
<path d="M266.681 111.878C266.681 111.878 265.353 105.671 263.028 102.965" stroke="#363CCC" stroke-width="1.6" stroke-miterlimit="10" stroke-linecap="round"/>
<path d="M269.018 108.828C269.018 108.828 267.7 103.077 265.483 100.258" stroke="#363CCC" stroke-width="1.6" stroke-miterlimit="10" stroke-linecap="round"/>
<path d="M272.934 104.36C272.934 104.36 277.314 105.558 278.501 107.078" stroke="#363CCC" stroke-width="1.6" stroke-miterlimit="10" stroke-linecap="round"/>
<path d="M275.163 102.141C275.163 102.141 278.501 101.185 283.951 106.376" stroke="#363CCC" stroke-width="1.6" stroke-miterlimit="10" stroke-linecap="round"/>
<path d="M279.232 98.7627C279.232 98.7627 279.585 93.6722 278.945 92.0657" stroke="#363CCC" stroke-width="1.6" stroke-miterlimit="10" stroke-linecap="round"/>
<path d="M282.074 96.8698C282.074 96.8698 282.505 93.0298 281.739 90.9283" stroke="#363CCC" stroke-width="1.6" stroke-miterlimit="10" stroke-linecap="round"/>
<path d="M258.137 118.15C258.137 118.15 261.696 115.302 259.225 110.803C256.753 106.304 253.788 103.141 258.78 100.868C263.773 98.5943 271.532 94.7873 270.296 90.9814C269.06 87.1756 262.536 84.2632 262.536 81.392C262.536 78.5208 271.161 75.2748 272.162 72.8657C273.162 70.4566 269.419 64.0424 271.902 59.8535C274.386 55.6646 276.981 53.18 275.909 51.92C274.838 50.6601 267.346 50.6589 263.38 55.2202C259.414 59.7816 259.895 63.3764 255.781 63.3387C251.667 63.301 247.625 63.928 246.068 66.3054C244.512 68.6827 248.107 75.4988 246.068 78.799C244.029 82.0992 238.061 80.6848 236.133 84.4706C234.205 88.2564 239.47 94.1838 237.764 97.0008C236.059 99.8177 231.589 98.4835 231.1 101.672V118.15H258.137Z" fill="url(#paint2_linear_14_168)"/>
<path d="M266.527 59.4044C266.527 59.4044 266.738 62.3581 261.202 69.6739C255.666 76.9898 250.526 83.3662 246.917 92.4606C243.308 101.555 238.959 118.15 238.959 118.15" stroke="#D19B65" stroke-width="1.6" stroke-miterlimit="10" stroke-linecap="round"/>
<path d="M240.566 112.277C240.566 112.277 245.398 111.047 247.696 111.639C249.994 112.232 254.178 112.277 254.178 112.277" stroke="#D19B65" stroke-width="1.6" stroke-miterlimit="10" stroke-linecap="round"/>
<path d="M241.67 108.419C241.67 108.419 238.134 105.56 236.838 103.892" stroke="#D19B65" stroke-width="1.6" stroke-miterlimit="10" stroke-linecap="round"/>
<path d="M245.243 97.0302C245.243 97.0302 247.14 95.0689 251.217 94.8084C255.295 94.548 262.635 93.4377 262.635 93.4377" stroke="#D19B65" stroke-width="1.6" stroke-miterlimit="10" stroke-linecap="round"/>
<path d="M246.844 92.6492C246.844 92.6492 252.552 89.989 257.778 91.1759" stroke="#D19B65" stroke-width="1.6" stroke-miterlimit="10" stroke-linecap="round"/>
<path d="M248.95 87.9099C248.95 87.9099 247.585 85.4666 243.582 84.1382" stroke="#D19B65" stroke-width="1.6" stroke-miterlimit="10" stroke-linecap="round"/>
<path d="M254.659 78.4665C254.659 78.4665 252.923 76.1246 251.589 74.4191" stroke="#D19B65" stroke-width="1.6" stroke-miterlimit="10" stroke-linecap="round"/>
<path d="M255.931 76.6856C255.931 76.6856 252.625 72.2315 251.031 70.6003" stroke="#D19B65" stroke-width="1.6" stroke-miterlimit="10" stroke-linecap="round"/>
<path d="M267.75 134.378C267.75 134.378 268.418 132.994 270.16 134.662C271.902 136.33 272.348 136.548 274.028 134.773C275.709 132.998 279.317 136.503 282.06 135.613C284.804 134.723 283.32 129.237 284.58 127.363C285.84 125.489 293.132 127.561 295.701 124.1C298.27 120.64 294.218 116.91 296.146 115.252C298.075 113.594 306.032 111.866 304.499 107.22C302.966 102.573 296.27 107.071 293.057 110.581C289.845 114.091 285.986 113.056 284.654 111.496C283.322 109.935 276.522 114.56 276.522 114.56L267.749 125.089L267.75 134.378Z" fill="url(#paint3_linear_14_168)"/>
<path d="M269.955 124.356C269.955 124.356 276.277 122.04 281.8 120.625C287.323 119.211 291.068 116.048 293.328 113.623" stroke="#B55039" stroke-width="1.6" stroke-miterlimit="10" stroke-linecap="round"/>
<path d="M270.073 126.073C270.073 126.073 274.447 129.459 274.941 130.423" stroke="#B55039" stroke-width="1.6" stroke-miterlimit="10" stroke-linecap="round"/>
<path d="M273.36 125.629C273.36 125.629 277.142 129.165 278.546 132.278" stroke="#B55039" stroke-width="1.6" stroke-miterlimit="10" stroke-linecap="round"/>
<path d="M281.641 121.131C281.738 121.106 284.482 121.798 287.18 124.356" stroke="#B55039" stroke-width="1.6" stroke-miterlimit="10" stroke-linecap="round"/>
<path d="M285.224 119.918C285.224 119.918 289.498 121.797 291.204 124.614" stroke="#B55039" stroke-width="1.6" stroke-miterlimit="10" stroke-linecap="round"/>
<path d="M280.495 120.968C280.495 120.968 280.675 115.643 281.047 114.507" stroke="#B55039" stroke-width="1.6" stroke-miterlimit="10" stroke-linecap="round"/>
<path d="M49.9451 127.507C49.9451 127.507 49.2038 125.171 46.202 125.246C43.2002 125.32 38.1207 125.653 39.1955 121.539C40.2703 117.424 40.7889 115.31 38.2314 113.827C35.674 112.344 27.5926 110.713 24.8867 107.043C22.1807 103.372 27.5549 100.63 26.4801 98.1829C25.4052 95.736 21.3981 92.6586 19.0292 90.8058C16.6604 88.9529 14.9515 82.613 18.1394 77.8313C21.3274 73.0495 25.628 82.428 29.298 85.1718C32.968 87.9157 36.156 86.9139 38.4542 86.1348C40.7524 85.3557 42.9398 86.6911 43.4206 91.1028C43.9015 95.5144 46.0535 95.5887 49.4312 94.106C52.809 92.6232 62.4484 99.556 63.7613 106.525C65.0742 113.495 60.5521 120.168 60.5521 120.168L49.9451 127.507Z" fill="#98A5FF"/>
<path d="M54.8613 118.333C54.8613 118.333 53.6261 114.595 47.843 107.773C42.0598 100.951 38.3038 98.5297 34.4982 96.2561C30.6927 93.9825 26.5901 90.8685 25.2065 88.5949" stroke="#363CCC" stroke-width="1.6" stroke-miterlimit="10" stroke-linecap="round"/>
<path d="M52.4099 113.807C52.4099 113.807 47.5472 113.491 43.4694 117.606" stroke="#363CCC" stroke-width="1.6" stroke-miterlimit="10" stroke-linecap="round"/>
<path d="M51.2101 112.061C51.2101 112.061 52.5383 105.854 54.8636 103.148" stroke="#363CCC" stroke-width="1.6" stroke-miterlimit="10" stroke-linecap="round"/>
<path d="M48.8742 109.011C48.8742 109.011 50.193 103.26 52.4099 100.441" stroke="#363CCC" stroke-width="1.6" stroke-miterlimit="10" stroke-linecap="round"/>
<path d="M44.9591 104.543C44.9591 104.543 40.5772 105.741 39.3915 107.261" stroke="#363CCC" stroke-width="1.6" stroke-miterlimit="10" stroke-linecap="round"/>
<path d="M42.7292 102.324C42.7292 102.324 39.3915 101.368 33.9419 106.559" stroke="#363CCC" stroke-width="1.6" stroke-miterlimit="10" stroke-linecap="round"/>
<path d="M38.4647 98.7627C38.4647 98.7627 38.1112 93.6722 38.7499 92.0657" stroke="#363CCC" stroke-width="1.6" stroke-miterlimit="10" stroke-linecap="round"/>
<path d="M35.817 97.0529C35.817 97.0529 35.388 93.2128 36.1541 91.1113" stroke="#363CCC" stroke-width="1.6" stroke-miterlimit="10" stroke-linecap="round"/>
<path d="M86.6004 118.15H59.5585C59.5585 118.15 56.0004 115.302 58.4718 110.803C60.9433 106.304 63.9085 103.141 58.9162 100.868C53.9238 98.5943 46.1642 94.7873 47.4005 90.9814C48.6368 87.1756 55.1601 84.2632 55.1601 81.392C55.1601 78.5208 46.5354 75.2748 45.5337 72.8657C44.5319 70.4566 48.2773 64.0424 45.7941 59.8535C43.3109 55.6646 40.7146 53.18 41.787 51.92C42.8595 50.6601 50.3492 50.6589 54.3163 55.2202C58.2833 59.7816 57.8001 63.3764 61.9156 63.3387C66.0311 63.301 70.0712 63.928 71.628 66.3054C73.1849 68.6827 69.5891 75.4988 71.628 78.799C73.667 82.0992 79.6351 80.6848 81.5621 84.4706C83.489 88.2564 78.2256 94.1838 79.931 97.0008C81.6363 99.8177 87.8403 99.5572 88.8291 103.475C89.8179 107.393 87.6588 112.955 86.8031 114.215C85.027 116.83 86.6004 118.15 86.6004 118.15Z" fill="url(#paint4_linear_14_168)"/>
<path d="M51.1684 59.4044C51.1684 59.4044 50.9586 62.3581 56.4943 69.6739C62.03 76.9898 67.1708 83.3662 70.7796 92.4559C74.3883 101.546 78.736 118.15 78.736 118.15" stroke="#D19B65" stroke-width="1.6" stroke-miterlimit="10" stroke-linecap="round" stroke-linejoin="round"/>
<path d="M77.1309 112.277C77.1309 112.277 72.2988 111.047 70.0006 111.639C67.7024 112.232 63.5186 112.277 63.5186 112.277" stroke="#D19B65" stroke-width="1.6" stroke-miterlimit="10" stroke-linecap="round" stroke-linejoin="round"/>
<path d="M76.0241 108.419C76.0241 108.419 79.5598 105.56 80.8562 103.892" stroke="#D19B65" stroke-width="1.6" stroke-miterlimit="10" stroke-linecap="round" stroke-linejoin="round"/>
<path d="M72.4532 97.0302C72.4532 97.0302 70.5569 95.0689 66.4791 94.8084C62.4013 94.548 55.0612 93.4377 55.0612 93.4377" stroke="#D19B65" stroke-width="1.6" stroke-miterlimit="10" stroke-linecap="round" stroke-linejoin="round"/>
<path d="M70.8526 92.6491C70.8526 92.6491 65.9487 90.6572 59.9168 91.1758" stroke="#D19B65" stroke-width="1.6" stroke-miterlimit="10" stroke-linecap="round" stroke-linejoin="round"/>
<path d="M68.7465 87.9099C68.7465 87.9099 69.7825 85.9804 73.6222 83.3132" stroke="#D19B65" stroke-width="1.6" stroke-miterlimit="10" stroke-linecap="round" stroke-linejoin="round"/>
<path d="M63.0376 78.4665C63.0376 78.4665 64.7689 76.1246 66.1077 74.4226" stroke="#D19B65" stroke-width="1.4" stroke-miterlimit="10" stroke-linecap="round" stroke-linejoin="round"/>
<path d="M61.7648 76.6856C61.7648 76.6856 65.0647 72.2315 66.664 70.6003" stroke="#D19B65" stroke-width="1.4" stroke-miterlimit="10" stroke-linecap="round" stroke-linejoin="round"/>
<path d="M49.9451 134.378C49.9451 134.378 49.278 132.994 47.5361 134.662C45.7942 136.33 45.3487 136.548 43.6681 134.773C41.9875 132.998 38.3799 136.503 35.6362 135.613C32.8926 134.723 34.3764 129.237 33.1153 127.363C31.8543 125.489 24.5649 127.561 21.9945 124.1C19.424 120.64 23.4771 116.91 21.5501 115.252C19.6232 113.594 11.6644 111.866 13.1965 107.22C14.7287 102.573 21.4264 107.071 24.6391 110.581C27.8519 114.091 31.7105 113.056 33.0411 111.496C34.3716 109.935 41.1731 114.56 41.1731 114.56L49.9462 125.089L49.9451 134.378Z" fill="url(#paint5_linear_14_168)"/>
<path d="M47.7435 124.356C47.7435 124.356 41.4194 122.04 35.8943 120.625C30.3693 119.211 26.6274 116.048 24.3657 113.623" stroke="#B55039" stroke-width="1.6" stroke-miterlimit="10" stroke-linecap="round"/>
<path d="M47.6222 126.073C47.6222 126.073 43.2485 129.465 42.7535 130.423" stroke="#B55039" stroke-width="1.6" stroke-miterlimit="10" stroke-linecap="round"/>
<path d="M44.3352 125.629C44.3352 125.629 40.5544 129.165 39.1495 132.278" stroke="#B55039" stroke-width="1.6" stroke-miterlimit="10" stroke-linecap="round"/>
<path d="M36.0558 121.131C35.958 121.106 33.2143 121.798 30.5166 124.356" stroke="#B55039" stroke-width="1.6" stroke-miterlimit="10" stroke-linecap="round"/>
<path d="M32.4765 119.918C32.4765 119.918 28.2019 121.797 26.4965 124.614" stroke="#B55039" stroke-width="1.6" stroke-miterlimit="10" stroke-linecap="round"/>
<path d="M37.2013 120.968C37.2013 120.968 37.021 115.643 36.6498 114.507" stroke="#B55039" stroke-width="1.6" stroke-miterlimit="10" stroke-linecap="round"/>
<path d="M267.709 116.709H50.8419C49.1444 116.709 47.7682 118.085 47.7682 119.783V214.516C47.7682 216.214 49.1444 217.59 50.8419 217.59H267.709C269.407 217.59 270.783 216.214 270.783 214.516V119.783C270.783 118.085 269.407 116.709 267.709 116.709Z" fill="#5563EF"/>
<path d="M255.001 151.862H223.976V197.962H255.001V151.862Z" fill="url(#paint6_linear_14_168)"/>
<path d="M219.867 151.021L247.503 156.67L238.488 200.971C238.488 200.971 229.668 199.43 224.79 197.607C218.14 195.124 210.37 195.204 210.37 195.204C210.37 195.204 219.827 153.392 219.867 151.021Z" fill="url(#paint7_linear_14_168)"/>
<path d="M215.63 153.22L243.266 158.868L234.253 203.169C234.253 203.169 225.433 201.626 220.556 199.804C213.907 197.321 206.137 197.401 206.137 197.401C206.137 197.401 215.59 155.583 215.63 153.22Z" fill="url(#paint8_linear_14_168)"/>
<path d="M142.146 154.012H141.918V154.515C141.922 154.69 141.995 154.857 142.121 154.978C142.247 155.1 142.416 155.167 142.591 155.164H179.796C179.971 155.167 180.14 155.1 180.266 154.978C180.392 154.856 180.465 154.69 180.469 154.515V154.012H142.146Z" fill="#AABFC1"/>
<path d="M179.796 154.688H142.589C142.448 154.69 142.31 154.647 142.195 154.565C142.08 154.483 141.994 154.367 141.951 154.232C141.907 154.098 141.908 153.953 141.952 153.82C141.997 153.686 142.083 153.57 142.199 153.488L145.932 150.884C146.278 150.644 146.567 150.333 146.781 149.97C146.994 149.608 147.126 149.204 147.168 148.786L147.334 147.078L148.386 136.325H173.999L174.397 140.405L175.222 148.786C175.264 149.204 175.396 149.608 175.609 149.97C175.822 150.332 176.112 150.644 176.457 150.884L180.191 153.488C180.307 153.569 180.395 153.686 180.44 153.82C180.485 153.955 180.485 154.101 180.441 154.236C180.396 154.37 180.31 154.487 180.193 154.569C180.077 154.65 179.938 154.692 179.796 154.688Z" fill="url(#paint9_linear_14_168)"/>
<path d="M174.399 140.403C165.435 140.875 151.242 145.696 147.336 147.075L148.389 136.323H174.001L174.399 140.403Z" fill="#C7DBDD"/>
<path d="M231.181 52.6838V134.298C231.18 134.703 231.099 135.104 230.943 135.477C230.787 135.851 230.56 136.191 230.272 136.477C229.985 136.762 229.645 136.989 229.27 137.143C228.896 137.297 228.495 137.376 228.09 137.375H94.3036C93.8985 137.376 93.4973 137.297 93.1227 137.143C92.7482 136.989 92.4076 136.762 92.1206 136.477C91.8335 136.191 91.6056 135.851 91.4497 135.477C91.2938 135.104 91.2131 134.703 91.2122 134.298V52.6838C91.213 52.2786 91.2936 51.8776 91.4494 51.5035C91.6051 51.1295 91.8331 50.7899 92.1202 50.504C92.4072 50.2181 92.7478 49.9916 93.1225 49.8373C93.4971 49.6831 93.8984 49.6042 94.3036 49.6052H228.086C228.491 49.6038 228.893 49.6823 229.268 49.8363C229.643 49.9904 229.984 50.2168 230.272 50.5027C230.559 50.7887 230.787 51.1285 230.943 51.5027C231.099 51.877 231.18 52.2783 231.181 52.6838Z" fill="#23217E"/>
<path d="M231.124 125.628V134.298C231.125 135.05 230.848 135.777 230.346 136.338C230.056 136.665 229.7 136.926 229.301 137.105C228.902 137.284 228.469 137.376 228.032 137.375H94.2505C93.8132 137.376 93.3807 137.284 92.9816 137.105C92.5826 136.926 92.2261 136.665 91.9358 136.338C91.4341 135.777 91.1571 135.05 91.158 134.298V125.629L231.124 125.628Z" fill="url(#paint10_linear_14_168)"/>
<path d="M96.5593 125.628H96.2057" stroke="black" stroke-width="0.6" stroke-miterlimit="10"/>
<path d="M226.178 116.414V125.628" stroke="black" stroke-width="0.6" stroke-miterlimit="10"/>
<path d="M161.194 90.2423H96.2104V125.628H161.194V90.2423Z" fill="#E6FDFF"/>
<path d="M134.562 119.994L132.48 125.682L126.391 125.628L125.023 123.881L124.33 122.997L123.308 116.308L124.004 113.686H133.638L133.819 114.924L134.562 119.994Z" fill="white"/>
<path d="M134.562 119.994L132.479 125.682L126.391 125.628L125.023 123.881C125.213 123.697 125.423 123.513 125.657 123.324C132.058 125.36 133.308 114.566 133.308 114.566L133.819 114.92L134.562 119.994Z" fill="#DCE9EA"/>
<path d="M149.128 125.628H138.285L137.831 118.236L139.287 115.29C139.287 115.29 139.632 115.353 140.16 115.457C141.574 115.732 144.285 116.273 145.201 116.545C146.455 116.919 147.389 118.654 147.95 120.871C148.168 121.73 148.393 122.639 148.588 123.429C148.898 124.674 149.128 125.628 149.128 125.628Z" fill="url(#paint11_linear_14_168)"/>
<path d="M145.684 125.628H138.287L137.833 118.236L139.289 115.29C139.289 115.29 139.634 115.353 140.162 115.457C140.162 116.776 140.33 120.958 142.412 123.381C144.108 125.352 145.684 125.628 145.684 125.628Z" fill="#CEDEE0"/>
<path d="M132.96 104.611C132.96 104.611 134.021 100.867 134.416 100.346C134.81 99.8247 132.135 97.1008 128.703 96.1791C125.271 95.2574 122.827 97.9825 123.361 98.3431C123.895 98.7038 124.295 98.8629 123.922 99.1576C123.548 99.4522 122.987 99.5619 123.067 100.301C123.147 101.04 124.416 104.791 124.416 104.791L128.061 105.713L132.96 104.611Z" fill="url(#paint12_linear_14_168)"/>
<path d="M130.096 118.74L131.258 125.633H126.391C126.391 125.633 127.569 120.139 127.713 119.058C128.915 118.912 130.096 118.74 130.096 118.74Z" fill="url(#paint13_linear_14_168)"/>
<path d="M133.308 113.563C132.986 114.977 130.978 117.509 128.815 117.529C126.653 117.549 124.33 114.805 124.33 114.306C124.33 113.943 124.714 112.78 124.971 111.255C125.075 110.641 125.144 110.021 125.177 109.399C125.295 107.004 125.443 106.754 125.443 106.754L132 107.637C132 107.637 132.181 108.834 132.427 110.163C132.691 111.581 133.032 113.149 133.308 113.563Z" fill="url(#paint14_linear_14_168)"/>
<path d="M132.493 110.514C131.684 111.361 130.181 112.066 128.18 112.081C126.658 112.093 125.515 111.53 124.971 111.256C125.075 110.642 125.144 110.022 125.177 109.4C125.295 107.005 125.443 106.755 125.443 106.755L132 107.638C132 107.638 132.247 109.193 132.493 110.514Z" fill="#EAA0B1"/>
<path d="M126.852 117.529C126.852 117.529 127.403 119.252 127.873 119.633C128.344 120.014 129.995 119.515 130.267 118.892C130.539 118.268 130.566 117.309 130.566 117.309L128.935 116.709L126.852 117.529Z" fill="url(#paint15_linear_14_168)"/>
<path d="M125.01 104.731C125.01 104.731 123.729 103.59 123.437 103.6C123.146 103.609 122.446 104.896 122.687 105.653C122.927 106.41 124.265 107.923 125.597 107.102C126.054 105.87 125.01 104.731 125.01 104.731Z" fill="url(#paint16_linear_14_168)"/>
<path d="M132.499 104.09C132.499 104.09 133.601 103.09 134.102 103.265C134.603 103.441 135.414 104.562 134.662 105.729C133.91 106.895 132.98 107.488 132.693 107.481C132.458 107.463 132.226 107.424 131.998 107.363L132.499 104.09Z" fill="url(#paint17_linear_14_168)"/>
<path d="M128.703 100.471C128.703 100.471 130.096 99.7634 130.998 100.25C131.899 100.737 132.947 101.298 132.96 101.547C132.973 101.795 132.093 109.171 131.758 109.358C131.423 109.544 126.926 110.493 126.232 109.705C125.538 108.918 125.15 106.194 124.736 104.124C124.322 102.055 123.975 101.507 124.348 100.987C124.722 100.467 127.449 99.5584 128.703 100.471Z" fill="url(#paint18_linear_14_168)"/>
<path d="M128.935 116.709C128.935 116.709 131.439 118.731 131.559 118.731C131.679 118.731 133.942 114.245 133.942 114.245C133.942 114.245 133.509 113.269 133.147 113.224C132.506 114.339 129.756 116.474 128.935 116.709Z" fill="#D19546"/>
<path d="M128.935 116.709C128.935 116.709 125.977 118.811 125.671 118.731C125.364 118.651 123.694 114.37 123.694 114.178C123.694 113.986 124.347 113.322 124.495 113.457C124.642 113.591 126.738 116.195 128.935 116.709Z" fill="#D19546"/>
<path d="M133.639 113.686C133.639 113.686 132.559 123.115 130.566 125.628H140.169C140.169 125.628 138.519 118.538 139.544 115.63C139.563 115.577 139.571 115.521 139.567 115.464C139.563 115.408 139.546 115.353 139.519 115.304C139.492 115.254 139.455 115.211 139.409 115.177C139.364 115.143 139.312 115.119 139.257 115.107C138.139 114.868 135.298 114.241 133.639 113.686Z" fill="url(#paint19_linear_14_168)"/>
<path d="M119.807 118.236L119.353 125.628H108.51C108.51 125.628 109.124 123.084 109.688 120.867C110.253 118.65 111.184 116.915 112.44 116.541C113.281 116.292 115.652 115.812 117.123 115.523C117.848 115.382 118.354 115.287 118.354 115.287L119.807 118.236Z" fill="url(#paint20_linear_14_168)"/>
<path d="M119.807 118.236L119.353 125.628H113.054C117.547 122.812 117.243 116.788 117.124 115.523C117.849 115.382 118.355 115.287 118.355 115.287L119.807 118.236Z" fill="#CEDEE0"/>
<path d="M124.005 113.686C124.005 113.686 125.084 123.115 127.077 125.628H117.474C117.474 125.628 119.124 118.538 118.1 115.63C118.08 115.577 118.072 115.521 118.077 115.464C118.081 115.408 118.097 115.353 118.124 115.303C118.152 115.254 118.189 115.211 118.235 115.177C118.28 115.143 118.332 115.119 118.387 115.107C119.505 114.868 122.345 114.241 124.005 113.686Z" fill="url(#paint21_linear_14_168)"/>
<path d="M87.5799 185.465C80.0513 187.548 61.225 188.91 59.3829 192.034C58.9752 189.9 58.4495 187.044 57.8673 183.835C56.8314 178.12 55.6175 171.279 54.5768 165.377C53.2297 157.73 52.1725 151.658 52.1725 151.658L54.5768 151.162L78.6087 146.211C78.6087 146.211 84.6193 176.335 86.9293 183.837C87.2039 184.729 87.4255 185.302 87.5799 185.465Z" fill="url(#paint22_linear_14_168)"/>
<path d="M86.9258 183.835H57.8673C56.8314 178.12 56.3965 175.648 55.3558 169.748L54.5768 151.162L78.6087 146.211C78.6087 146.211 84.6205 176.333 86.9258 183.835Z" fill="#CDDFE0"/>
<path d="M55.5916 139.484L83.5752 139.91C83.5752 139.91 83.693 176.055 83.5752 180.741C71.5539 181.703 56.0182 181.142 56.0182 181.142C56.0182 181.142 56.2857 165.701 56.1785 154.064C56.0712 142.426 55.5916 139.484 55.5916 139.484Z" fill="url(#paint23_linear_14_168)"/>
<path d="M226.178 54.8583H161.195V90.2435H226.178V54.8583Z" fill="#D3F4EA"/>
<path d="M221.459 81.439H225.325V85.5795H221.459C221.386 85.5795 221.316 85.5505 221.264 85.4988C221.213 85.447 221.184 85.3769 221.184 85.3037V81.7148C221.184 81.6416 221.213 81.5715 221.264 81.5197C221.316 81.468 221.386 81.439 221.459 81.439V81.439Z" stroke="#9ADBC6" stroke-miterlimit="10"/>
<path d="M216.328 74.8469H225.32V78.9875H216.328C216.255 78.9875 216.185 78.9584 216.133 78.9067C216.081 78.855 216.052 78.7848 216.052 78.7117V75.1227C216.052 75.0496 216.081 74.9794 216.133 74.9277C216.185 74.876 216.255 74.8469 216.328 74.8469V74.8469Z" stroke="#9ADBC6" stroke-miterlimit="10"/>
<path d="M219.226 69.0222H208.482C208.33 69.0222 208.206 69.1457 208.206 69.298V72.887C208.206 73.0393 208.33 73.1628 208.482 73.1628H219.226C219.378 73.1628 219.502 73.0393 219.502 72.887V69.298C219.502 69.1457 219.378 69.0222 219.226 69.0222Z" stroke="#9ADBC6" stroke-miterlimit="10"/>
<path d="M182.457 58.595H171.713C171.561 58.595 171.438 58.7184 171.438 58.8708V62.4597C171.438 62.6121 171.561 62.7355 171.713 62.7355H182.457C182.609 62.7355 182.733 62.6121 182.733 62.4597V58.8708C182.733 58.7184 182.609 58.595 182.457 58.595Z" stroke="#9ADBC6" stroke-miterlimit="10"/>
<path d="M161.195 58.595H169.934C169.97 58.595 170.006 58.6021 170.039 58.616C170.073 58.6298 170.103 58.6501 170.129 58.6758C170.154 58.7014 170.175 58.7318 170.188 58.7652C170.202 58.7987 170.209 58.8345 170.209 58.8708V62.4609C170.209 62.4971 170.202 62.533 170.188 62.5665C170.175 62.5999 170.154 62.6303 170.129 62.6559C170.103 62.6815 170.073 62.7019 170.039 62.7157C170.006 62.7296 169.97 62.7367 169.934 62.7367H161.194V58.595H161.195Z" stroke="#9ADBC6" stroke-miterlimit="10"/>
<path d="M176.226 63.8303H165.482C165.33 63.8303 165.207 63.9538 165.207 64.1061V67.6951C165.207 67.8474 165.33 67.9709 165.482 67.9709H176.226C176.378 67.9709 176.502 67.8474 176.502 67.6951V64.1061C176.502 63.9538 176.378 63.8303 176.226 63.8303Z" stroke="#9ADBC6" stroke-miterlimit="10"/>
<path d="M161.201 81.1315H169.004C169.077 81.1315 169.147 81.1605 169.199 81.2123C169.251 81.264 169.28 81.3341 169.28 81.4073V84.9974C169.28 85.0706 169.251 85.1407 169.199 85.1924C169.147 85.2442 169.077 85.2732 169.004 85.2732H161.201V81.1315Z" stroke="#9ADBC6" stroke-miterlimit="10"/>
<path d="M165.481 86.4307H176.226C176.299 86.4307 176.369 86.4597 176.421 86.5114C176.473 86.5632 176.502 86.6333 176.502 86.7065V90.2424H165.208V86.7065C165.208 86.6337 165.236 86.5639 165.288 86.5123C165.339 86.4606 165.408 86.4313 165.481 86.4307Z" stroke="#9ADBC6" stroke-miterlimit="10"/>
<path d="M221.459 69.0222H225.325V73.1628H221.459C221.386 73.1628 221.316 73.1337 221.264 73.082C221.213 73.0303 221.184 72.9601 221.184 72.887V69.2968C221.184 69.2239 221.213 69.154 221.265 69.1026C221.316 69.0511 221.386 69.0222 221.459 69.0222Z" stroke="#9ADBC6" stroke-miterlimit="10"/>
<path d="M215.206 56.595H222.338V58.462H215.482C215.409 58.462 215.339 58.4329 215.287 58.3812C215.236 58.3295 215.206 58.2593 215.206 58.1862V56.595Z" stroke="#9ADBC6" stroke-miterlimit="10"/>
<path d="M189.597 90.2552H199.661L202.188 85.8554C202.188 85.8554 200.079 77.3373 199.665 76.9236C195.406 78.1648 189.587 77.1228 189.587 77.1228L188.73 78.8908L188.211 85.9732C188.211 85.9732 189.024 90.016 189.597 90.2552Z" fill="white"/>
<path d="M203.838 78.2992C203.838 78.2992 209.613 79.5957 212.649 79.6063C213.052 79.6088 213.446 79.7175 213.793 79.9213C214.14 80.1252 214.427 80.417 214.625 80.7673C216.081 83.3273 216.892 87.2262 216.688 90.2553H201.277L200.769 80.8262L203.838 78.2992Z" fill="url(#paint24_linear_14_168)"/>
<path d="M195.469 80.6152L196.524 90.2553H192.106L193.6 80.7024L195.469 80.6152Z" fill="url(#paint25_linear_14_168)"/>
<path d="M198.982 76.7163C197.433 79.6546 192.358 81.5239 190.277 76.7163C190.601 75.8363 190.86 74.9338 191.052 74.016C191.385 72.4481 191.625 70.8621 191.771 69.2661L197.849 68.4917C197.849 68.4917 197.943 70.6675 198.17 72.802C198.351 74.5051 198.615 76.1835 198.982 76.7163Z" fill="url(#paint26_linear_14_168)"/>
<path d="M198.17 72.802C195.915 76.741 192.289 74.8352 191.052 74.016C191.385 72.4481 191.625 70.8621 191.771 69.2661L197.849 68.4917C197.849 68.4917 197.946 70.6675 198.17 72.802Z" fill="#EAA0B1"/>
<path d="M192.642 79.8609C192.642 79.8609 194.071 81.8576 194.528 81.8175C194.985 81.7774 196.531 79.8609 196.531 79.8609C196.531 79.8609 195.478 79.0264 194.636 78.8803C193.886 78.9929 193.189 79.3356 192.642 79.8609Z" fill="url(#paint27_linear_14_168)"/>
<path d="M199.353 66.2488C199.353 66.2488 199.742 64.3135 199.729 63.7524C199.716 63.1914 201.624 62.2438 201.451 60.147C201.277 58.0502 199.801 58.6914 199.353 57.7178C198.905 56.7442 198.14 54.994 196.642 55.8084C195.144 56.6228 196.028 53.391 192.583 53.7387C189.138 54.0864 191.515 57.1827 191.515 57.1827C191.515 57.1827 189.539 56.5156 189.058 57.0495C188.577 57.5834 189.58 58.1315 189.58 58.1315C189.58 58.1315 187.604 59.1593 187.216 60.4947C186.828 61.8301 187.657 61.9633 188.159 62.6162C188.661 63.2692 189.691 65.3577 189.948 66.1522C190.205 66.9466 196.023 67.3921 196.023 67.3921L199.353 66.2488Z" fill="url(#paint28_linear_14_168)"/>
<path d="M191.611 68.7452C191.172 68.955 190.395 68.8465 189.725 68.5931C189.056 68.3397 188.497 67.9614 188.452 67.5972C188.358 66.864 188.626 65.4355 189.307 65.4072C189.584 65.3966 189.92 65.5664 190.22 65.7703C190.504 65.9686 190.77 66.1915 191.014 66.4362C191.014 66.4362 191.797 67.5972 191.611 68.7452Z" fill="url(#paint29_linear_14_168)"/>
<path d="M191.611 68.7451C191.172 68.9549 190.395 68.8464 189.725 68.593C190.888 68.0803 190.403 66.3171 190.22 65.7702C190.504 65.9685 190.77 66.1914 191.015 66.4361C191.015 66.4361 191.797 67.5971 191.611 68.7451Z" fill="#EAA0B1"/>
<path d="M200.742 67.1033C200.596 67.4345 200.366 67.7218 200.074 67.9365C199.354 68.5094 198.325 68.8347 198.006 68.5058C197.552 68.0344 198.226 66.3631 198.226 66.3631C198.226 66.3631 198.662 65.5875 199.158 65.1585C199.365 64.9805 199.581 64.8638 199.782 64.8862C200.463 64.9664 201.128 66.0884 200.742 67.1033Z" fill="url(#paint30_linear_14_168)"/>
<path d="M200.074 67.9401C199.354 68.5129 198.325 68.8382 198.006 68.5094C197.552 68.0379 198.226 66.3666 198.226 66.3666C198.226 66.3666 198.662 65.5911 199.158 65.1621C199.041 65.7255 198.828 67.0078 199.221 67.5193C199.319 67.6524 199.448 67.76 199.596 67.8332C199.745 67.9064 199.909 67.943 200.074 67.9401Z" fill="#EAA0B1"/>
<path d="M198.847 64.0988C198.713 65.3777 198.022 69.7445 197.122 71.575C196.949 71.9286 196.768 72.1843 196.582 72.3104C195.583 72.9834 193.501 72.9575 192.495 71.8649C192.327 71.6844 192.193 71.4757 192.098 71.2485C191.398 69.5666 190.756 66.1214 190.135 64.2002C189.514 62.279 189.448 62.3144 189.782 61.7086C190.115 61.1027 190.996 59.7803 191.651 59.6672C192.306 59.554 193.537 60.649 194.18 60.5346C194.577 60.4651 196.224 59.0118 197.767 59.7732C199.309 60.5346 199.006 62.5772 198.847 64.0988Z" fill="url(#paint31_linear_14_168)"/>
<path d="M194.629 78.8803L197.485 80.963C197.485 80.963 199.274 78.5326 199.662 76.9178C198.887 75.4351 198.767 75.3856 198.767 75.3856C198.767 75.3856 195.942 78.5196 194.629 78.8803Z" fill="url(#paint32_linear_14_168)"/>
<path d="M194.629 78.8803L191.898 80.9629C191.898 80.9629 189.992 79.3211 189.584 77.117C189.975 76.1965 190.547 75.9384 190.547 75.9384C190.547 75.9384 191.973 77.6981 194.629 78.8803Z" fill="url(#paint33_linear_14_168)"/>
<path d="M199.662 76.9178C199.662 76.9178 200.84 85.7294 199.662 90.2554H202.719L205.63 85.9828C205.63 85.9828 202.586 83.4994 201.411 82.6189C204.641 80.9099 205.064 80.1886 205.064 80.1886C205.064 80.1886 204.142 78.8661 204.157 78.067C204.161 78.0658 201.01 77.7582 199.662 76.9178Z" fill="url(#paint34_linear_14_168)"/>
<path d="M185.425 78.2992C185.425 78.2992 179.65 79.5957 176.613 79.6063C176.21 79.6092 175.816 79.718 175.469 79.9218C175.122 80.1256 174.835 80.4172 174.637 80.7673C173.182 83.3273 172.371 87.2262 172.574 90.2553H187.981L188.488 80.8262L185.425 78.2992Z" fill="url(#paint35_linear_14_168)"/>
<path d="M189.597 76.9178C189.597 76.9178 188.418 85.7294 189.597 90.2554H186.54L183.629 85.9828C183.629 85.9828 186.673 83.4994 187.848 82.6189C184.616 80.9099 184.194 80.1886 184.194 80.1886C184.194 80.1886 185.115 78.8661 185.102 78.067C185.099 78.0658 188.248 77.7582 189.597 76.9178Z" fill="url(#paint36_linear_14_168)"/>
<path d="M197.121 71.575C196.947 71.9286 196.767 72.1844 196.581 72.3105C195.684 72.914 193.915 72.9552 192.834 72.1679C192.718 72.0812 192.625 71.9688 192.56 71.8395C192.495 71.7102 192.462 71.5676 192.462 71.423C192.462 70.6345 192.58 69.1423 192.866 69.0268C193.22 68.8795 195.135 68.6131 196.296 69.0787C197.457 69.5442 197.121 71.575 197.121 71.575Z" stroke="black" stroke-width="2" stroke-miterlimit="10"/>
<path d="M194.694 71.0953C194.694 71.0953 194.6 72.1915 194.759 72.7596" stroke="black" stroke-width="2" stroke-miterlimit="10"/>
<path d="M226.178 90.2423H161.195V125.628H226.178V90.2423Z" fill="#F4E2DF"/>
<path d="M193.48 90.2554H165.591V110.453H193.48V90.2554Z" fill="url(#paint37_linear_14_168)"/>
<path d="M192.293 90.2554H166.779V109.207H192.293V90.2554Z" fill="white"/>
<path d="M195.422 95.5203C195.422 95.5203 197.345 93.2372 198.667 93.8372C199.989 94.4371 199.168 96.8616 200.369 98.1981C201.57 99.5347 202.511 98.738 202.952 99.2589C203.393 99.7799 202.972 101.582 204.013 101.498C205.053 101.415 207.418 101.793 206.683 103.528C205.949 105.263 205.588 105.464 205.588 105.464C205.588 105.464 206.897 105.477 206.563 106.879C206.23 108.28 204.64 108.227 205.642 109.042C206.643 109.856 206.456 111.232 205.361 111.312C204.266 111.392 203.865 111.044 204.24 112.152C204.615 113.26 203.091 113.795 202.355 113.221C201.618 112.647 201.286 112.246 201.119 112.46C200.953 112.673 200.58 114.249 199.871 114.196C199.163 114.143 198.705 113.407 198.705 113.407C198.705 113.407 197.644 115.758 196.441 115.184C195.237 114.61 193.624 115.057 192.669 115.274C191.715 115.491 190.867 114.502 191.682 113.434C190.479 114.102 190.133 114.089 189.665 113.381C189.197 112.674 189.292 111.886 188.05 113.021C186.809 114.156 184.926 111.458 186.872 110.21C185.644 109.002 185.163 108.014 185.229 107.679C185.295 107.344 186.685 106.865 186.471 106.318C186.258 105.771 184.842 104.622 184.963 103.326C185.083 102.031 187.218 103.22 188.087 102.459C188.956 101.698 187.632 100.21 188.14 99.8259C188.648 99.4416 189.862 99.4723 189.596 98.9607C189.329 98.4492 188.927 96.9983 189.649 96.6105C190.37 96.2227 191.398 97.399 192.225 97.1185C193.052 96.838 193.347 95.9705 193.414 94.595C193.481 93.2196 194.081 93.407 194.357 93.8065C194.633 94.2061 195.029 95.472 195.422 95.5203Z" fill="url(#paint38_linear_14_168)"/>
<path d="M198.507 117.229L190.543 117.423L191.607 125.628H197.86L198.507 117.229Z" fill="url(#paint39_linear_14_168)"/>
<path d="M206.332 119.758C206.194 121.19 205.979 122.94 205.979 123.378C205.979 124.125 205.966 125.628 205.966 125.628H197.861C197.861 125.628 197.675 121.709 197.675 121.654C197.675 121.6 198.711 116.421 198.711 116.421C198.711 116.421 199.536 116.928 202.415 117.114C205.294 117.301 206.205 117.422 206.406 117.77C206.487 117.915 206.431 118.759 206.332 119.758Z" fill="url(#paint40_linear_14_168)"/>
<path d="M206.332 119.758C206.194 121.19 205.979 122.94 205.979 123.378C205.979 124.125 205.966 125.628 205.966 125.628H202.795C203.802 120.806 206.141 117.88 206.141 117.88L206.332 119.758Z" fill="#167A5D"/>
<path d="M198.507 117.229C198.507 117.229 196.701 117.508 195.422 118.13C193.901 118.872 190.917 118.19 190.697 117.37C190.478 116.55 193.201 116.468 193.4 115.066C193.464 114.615 193.518 114.105 193.557 113.579C193.632 112.467 193.618 111.283 193.4 110.44C195.723 110.3 196.804 110.22 196.804 110.22C196.804 110.22 196.732 111.135 196.699 112.239C196.659 113.675 196.685 115.431 197.024 115.907C197.425 116.442 197.929 116.892 198.507 117.229Z" fill="url(#paint41_linear_14_168)"/>
<path d="M196.804 110.22C196.804 110.22 196.732 111.135 196.699 112.239C196.028 112.758 194.622 113.721 193.557 113.579C193.632 112.467 193.618 111.283 193.4 110.44C195.723 110.3 196.804 110.22 196.804 110.22Z" fill="#602B26"/>
<path d="M191.848 106.994C191.848 106.994 190.846 106.204 190.536 106.344C190.226 106.484 189.645 107.475 189.865 108.137C190.086 108.798 191.427 110.64 192.679 109.408C192.669 107.766 191.848 106.994 191.848 106.994Z" fill="url(#paint42_linear_14_168)"/>
<path d="M198.967 106.314C199.008 106.294 199.468 105.673 199.939 105.894C200.409 106.114 201.36 107.19 200.139 108.547C198.918 109.903 198.086 108.758 198.086 108.758L198.967 106.314Z" fill="url(#paint43_linear_14_168)"/>
<path d="M191.257 103.871C191.257 103.871 192.789 103.282 193.052 102.736C193.315 102.19 193.066 101.28 193.36 101.086C193.653 100.891 194.094 102.029 194.708 101.727C195.322 101.425 195.469 99.7635 196.257 99.8413C197.044 99.9191 197.125 101.617 197.018 102.472C196.911 103.327 198.299 103.66 198.366 103.875C198.434 104.089 198.073 105.303 198.366 105.717C198.444 105.834 198.552 105.927 198.68 105.986C198.807 106.045 198.948 106.067 199.088 106.05C199.088 106.05 198.594 111.391 195.081 111.565C191.567 111.74 191.303 104.95 191.257 103.871Z" fill="url(#paint44_linear_14_168)"/>
<path d="M197.886 115.987C197.886 115.987 197.099 124.743 197.178 125.627H199.221C199.221 125.627 200.293 124.584 200.238 124.489C200.183 124.393 198.045 122.396 197.924 122.156C197.804 121.917 199.877 121.282 199.897 120.807C199.917 120.332 198.934 116.34 198.914 116.31C198.894 116.281 197.886 115.987 197.886 115.987Z" fill="#7FF7D5"/>
<path d="M204.241 125.628C204.241 125.628 205.204 119.916 205.683 118.744C206.161 117.573 206.524 117.356 207.018 117.93C207.512 118.504 207.379 121.626 207.565 123.164C207.62 123.621 207.885 125.628 207.885 125.628H204.241Z" fill="url(#paint45_linear_14_168)"/>
<path d="M190.756 116.421C190.756 116.421 189.931 116.929 187.052 117.115C184.173 117.302 183.261 117.423 183.06 117.77C182.86 118.116 183.488 122.63 183.488 123.378C183.488 124.125 183.501 125.628 183.501 125.628H191.605C191.605 125.628 191.792 121.709 191.792 121.656C191.792 121.603 190.756 116.421 190.756 116.421Z" fill="url(#paint46_linear_14_168)"/>
<path d="M191.581 115.987C191.581 115.987 192.368 124.743 192.289 125.627H190.246C190.246 125.627 189.175 124.584 189.23 124.489C189.286 124.393 191.423 122.396 191.543 122.156C191.662 121.917 189.591 121.282 189.571 120.807C189.551 120.332 190.533 116.34 190.553 116.31C190.573 116.281 191.581 115.987 191.581 115.987Z" fill="#7FF7D5"/>
<path d="M185.227 125.628H181.581C181.581 125.628 181.846 123.624 181.901 123.164C182.087 121.632 181.955 118.504 182.449 117.931C182.52 117.841 182.604 117.761 182.699 117.695C183.075 117.46 183.389 117.774 183.784 118.738C184.263 119.918 185.227 125.628 185.227 125.628Z" fill="url(#paint47_linear_14_168)"/>
<path d="M183.096 125.628C184.013 119.381 183.193 117.998 182.705 117.701C183.081 117.466 183.395 117.78 183.79 118.744C184.269 119.915 185.233 125.628 185.233 125.628H183.096Z" fill="#167A5D"/>
<path d="M107.433 125.628C107.433 125.628 107.54 124.766 107.272 124.46C107.005 124.153 106.329 124.139 106.512 123.23C106.695 122.321 107.326 121.215 106.63 120.166C105.933 119.117 104.6 118.617 103.639 113.049C103.438 116.374 103.078 118.757 102.258 120.003C101.437 121.249 101.737 122.767 102.493 123.929C103.25 125.091 102.833 125.638 102.833 125.638L107.433 125.628Z" fill="url(#paint48_linear_14_168)"/>
<path d="M104.612 125.628C104.612 125.628 104.302 124.52 102.661 123.718C101.019 122.917 100.877 122.297 101.378 120.553C101.879 118.81 101.438 118.23 100.176 117.469C98.914 116.708 96.5722 115.527 97.713 111.201C96.3718 114.03 95.0094 117.83 95.891 119.098C96.7725 120.366 97.4537 120.76 96.8338 121.521C96.2139 122.283 95.3312 123.818 96.8739 125.633L104.612 125.628Z" fill="url(#paint49_linear_14_168)"/>
<path d="M97.1663 116.195C97.1663 116.195 98.181 119.506 99.1427 120.792C100.104 122.077 99.732 124.691 99.732 124.691" stroke="#B5533C" stroke-miterlimit="10"/>
<path d="M104.162 118.414C104.162 118.414 105.177 123.217 104.776 124.686" stroke="#0D513E" stroke-miterlimit="10"/>
<path d="M161.194 54.8583H96.2104V90.2435H161.194V54.8583Z" fill="#FFF1E6"/>
<path d="M161.195 86.1654C161.195 86.1654 159.595 85.912 159.382 84.4163C159.169 82.9206 157.273 77.9008 155.11 76.0315C152.947 74.1621 150.41 74.3224 150.142 76.0315C149.875 77.7405 151.321 82.0131 154.068 83.2954C156.815 84.5778 156.551 85.4311 156.551 85.4311C156.551 85.4311 155.697 88.9128 157.73 90.2423H161.198L161.195 86.1654Z" fill="url(#paint50_linear_14_168)"/>
<path d="M156.03 90.2424C156.03 90.2424 152.826 83.4994 150.443 83.5606C148.06 83.6219 149.803 88.973 151.725 90.2424H156.03Z" fill="url(#paint51_linear_14_168)"/>
<path d="M151.264 85.6445L153.767 90.1834" stroke="black" stroke-width="0.6" stroke-miterlimit="10"/>
<path d="M154.762 79.5568C154.762 79.5568 159.67 86.7465 161.195 90.2423" stroke="black" stroke-width="0.6" stroke-miterlimit="10"/>
<path d="M112.253 57.4455H98.5946V71.1048H112.253V57.4455Z" stroke="#E5BFA5" stroke-width="3" stroke-miterlimit="10"/>
<path d="M127.633 57.4455H113.975V71.1048H127.633V57.4455Z" stroke="#E5BFA5" stroke-width="3" stroke-miterlimit="10"/>
<path d="M112.253 72.855H98.5946V86.5143H112.253V72.855Z" stroke="#E5BFA5" stroke-width="3" stroke-miterlimit="10"/>
<path d="M127.633 72.855H113.975V86.5143H127.633V72.855Z" stroke="#E5BFA5" stroke-width="3" stroke-miterlimit="10"/>
<path d="M124.909 55.4465C124.909 55.4465 127.981 52.1086 131.479 53.1765C134.977 54.2443 135.03 58.8116 135.243 62.9769C135.456 67.1422 135.403 68.2372 138.26 70.6145C141.117 72.9918 140.904 82.2253 129.825 83.134C118.747 84.0428 116.714 75.7086 118.103 72.3459C119.493 68.9833 119.625 67.8329 118.743 64.5209C117.862 61.2089 118.421 54.3999 124.909 55.4465Z" fill="url(#paint52_linear_14_168)"/>
<path d="M116.743 86.9799L116.342 90.1835H110.65C110.196 88.5334 111.475 86.499 112.333 82.8134C112.472 82.2099 112.602 81.7161 112.721 81.3095C113.325 79.2268 113.646 79.4519 113.646 79.4519L116.743 86.9799Z" fill="url(#paint53_linear_14_168)"/>
<path d="M116.743 86.9799L116.343 90.1835H113.797C114.801 85.6775 113.475 82.6071 112.716 81.3095C113.321 79.2268 113.641 79.4519 113.641 79.4519L116.743 86.9799Z" fill="#135259"/>
<path d="M146.112 90.1834H140.611L139.805 87.647L141.866 77.9468C141.883 77.9468 142.442 77.9562 143.105 79.3718C143.471 80.1951 143.753 81.0532 143.947 81.9329C144.911 85.938 146.112 90.1834 146.112 90.1834Z" fill="url(#paint54_linear_14_168)"/>
<path d="M143.323 90.1834H140.612L139.806 87.647L141.868 77.9468C141.884 77.9468 142.443 77.9562 143.106 79.3718C142.612 81.478 141.785 86.2927 143.323 90.1834Z" fill="#135259"/>
<path d="M135.083 76.9391C135.083 76.9391 139.19 77.6156 141.535 77.7912C141.663 77.801 141.783 77.8586 141.87 77.9525C141.957 78.0464 142.006 78.1698 142.007 78.2981C142.029 81.9377 140.645 87.0401 140.607 90.1835H128.715L128.761 84.9562V78.9675L135.083 76.9391Z" fill="url(#paint55_linear_14_168)"/>
<path d="M113.517 80.1709C114.203 82.1003 116.077 87.5515 116.338 90.1893H128.713L128.759 78.9734L121.083 76.9697C121.083 76.9697 117.77 77.8949 113.969 79.2303C113.785 79.2958 113.634 79.4313 113.549 79.6076C113.465 79.7838 113.453 79.9863 113.517 80.1709Z" fill="url(#paint56_linear_14_168)"/>
<path d="M132.81 76.2696L133.828 76.9379L130.998 82.7863L128.761 84.9562L125.363 81.9318L123.601 76.8589L132.81 76.2696Z" fill="white"/>
<path d="M133.054 76.3509C132.974 79.3423 129.956 79.6841 128.311 79.6841C126.885 79.6841 123.2 79.6358 123.596 76.8554C124.169 76.0333 124.558 75.0974 124.737 74.1115C124.97 72.9681 124.88 71.7825 124.477 70.6875C127.07 69.9132 131.1 69.9662 131.1 69.9662C131.1 69.9662 131.061 72.1054 131.473 73.9123C131.753 75.1216 132.229 76.18 133.054 76.3509Z" fill="url(#paint57_linear_14_168)"/>
<path d="M131.475 73.9146C128.086 76.0362 125.607 74.7314 124.74 74.1138C124.973 72.9705 124.882 71.7848 124.479 70.6899C127.072 69.9155 131.103 69.9685 131.103 69.9685C131.103 69.9685 131.066 72.1078 131.475 73.9146Z" fill="#542522"/>
<path d="M125.818 59.0473C125.818 59.0473 127.18 56.8833 129.85 58.0054C132.519 59.1274 132.147 63.6935 132.307 65.4826C132.468 67.2718 132.521 69.2472 130.972 70.9303C129.423 72.6134 127.594 73.5999 125.512 72.1585C123.429 70.717 122.147 68.2925 122.187 65.9494C122.227 63.6062 121.886 62.806 121.546 61.3032C121.205 59.8004 122.8 57.6317 125.818 59.0473Z" fill="url(#paint58_linear_14_168)"/>
<path d="M132.81 76.2696L128.761 84.9562L135.183 81.3708L133.053 78.9274L136.505 78.8473L135.323 76.6444L132.81 76.2696Z" fill="#35B6C4"/>
<path d="M128.761 84.9562L123.566 76.404L121.085 76.965L120.344 79.4284L124.049 79.3482L122.606 82.7757L128.761 84.9562Z" fill="#35B6C4"/>
<path d="M81.456 198.591C81.456 198.591 80.8385 196.793 80.908 196.643C80.9775 196.493 89.4996 192.244 91.3123 191.339C91.4016 191.295 91.5047 191.288 91.5991 191.32C91.6935 191.351 91.7717 191.419 91.8167 191.508C91.8393 191.553 91.8528 191.602 91.8562 191.652C91.8597 191.702 91.8531 191.752 91.8368 191.8C91.8206 191.847 91.795 191.891 91.7616 191.929C91.7282 191.966 91.6876 191.997 91.6423 192.018L82.5108 196.379C82.4858 196.391 82.4636 196.408 82.4458 196.43C82.4279 196.451 82.4149 196.476 82.4075 196.503C82.4002 196.53 82.3986 196.558 82.403 196.585C82.4074 196.613 82.4177 196.639 82.433 196.662L83.0223 197.547L81.456 198.591Z" fill="url(#paint59_linear_14_168)"/>
<path d="M89.0896 193.981C95.5398 190.741 107.8 185.259 107.8 185.259L109.106 187.852C104.007 190.538 94.5616 195.052 90.5593 196.898C87.6046 198.26 85.2345 199.303 83.8745 199.894C83.0589 200.247 82.6052 200.44 82.6052 200.44L81.5598 198.365C81.9191 198.069 82.2949 197.794 82.6853 197.54C84.2069 196.523 86.5345 195.264 89.0896 193.981Z" fill="url(#paint60_linear_14_168)"/>
<path d="M89.0896 193.981L90.5593 196.899C87.6046 198.261 85.2346 199.305 83.8745 199.895L82.6854 197.538C84.2069 196.523 86.5345 195.264 89.0896 193.981Z" fill="#48E5B8"/>
<path d="M82.6041 200.441L81.5587 198.366L81.1615 198.567C81.0073 198.645 80.8903 198.781 80.8361 198.945C80.782 199.109 80.7952 199.288 80.8727 199.442L81.3324 200.352C81.3708 200.429 81.4239 200.497 81.4886 200.553C81.5534 200.609 81.6285 200.651 81.7097 200.678C81.791 200.705 81.8767 200.715 81.962 200.709C82.0473 200.703 82.1305 200.68 82.2069 200.641L82.6041 200.441Z" fill="#48E5B8"/>
<path d="M107.794 185.247C107.794 185.247 111.869 183.93 112.347 184.404C112.536 185.652 109.1 187.87 109.1 187.87L107.794 185.247Z" fill="#48E5B8"/>
<path d="M92.0749 162.107H97.455V165.683H92.0749C91.7667 165.683 91.4711 165.56 91.2532 165.342C91.0353 165.124 90.9128 164.829 90.9128 164.52V163.269C90.9128 162.96 91.0353 162.665 91.2532 162.447C91.4711 162.229 91.7667 162.107 92.0749 162.107Z" fill="url(#paint61_linear_14_168)"/>
<path d="M109.894 168.352C113.174 165.071 113.174 159.753 109.894 156.472C106.614 153.192 101.295 153.192 98.015 156.472C94.7348 159.753 94.7348 165.071 98.015 168.352C101.295 171.632 106.614 171.632 109.894 168.352Z" fill="url(#paint62_linear_14_168)"/>
<path d="M111.093 162.412C111.094 163.727 110.731 165.017 110.045 166.139C109.359 167.261 108.375 168.171 107.204 168.769C106.199 169.282 105.087 169.549 103.958 169.55C103.902 169.55 103.847 169.55 103.791 169.55C103.224 169.54 102.66 169.46 102.111 169.314C100.824 168.969 99.6592 168.271 98.7481 167.299C97.837 166.327 97.2162 165.119 96.956 163.812C96.6958 162.505 96.8065 161.151 97.2756 159.904C97.7448 158.657 98.5536 157.566 99.6106 156.754C100.668 155.943 101.931 155.444 103.257 155.313C104.583 155.182 105.919 155.425 107.114 156.015C108.309 156.604 109.315 157.516 110.019 158.648C110.723 159.779 111.096 161.085 111.096 162.418L111.093 162.412Z" fill="url(#paint63_linear_14_168)"/>
<path d="M111.093 162.412C111.094 163.727 110.731 165.017 110.045 166.139C109.358 167.261 108.375 168.171 107.204 168.769C106.199 169.282 105.086 169.549 103.958 169.55C103.902 169.55 103.847 169.55 103.791 169.55C103.224 169.54 102.66 169.46 102.111 169.314C101.14 169.054 100.234 168.591 99.4538 167.956C99.9028 167.451 101.131 167.242 102.481 167.138C104.081 167.013 103.334 166.077 104.393 164.643C105.453 163.209 106.458 161.385 106.639 160.741C106.821 160.096 106.529 159.237 105.697 159.05C104.865 158.864 105.309 158.087 105.606 157.636C105.903 157.185 105.073 156.984 104.616 157.331C104.159 157.677 103.444 156.866 103.292 157.163C103.14 157.46 103.84 157.698 103.958 157.92C104.076 158.142 103.575 158.149 102.828 158.045C102.081 157.941 102.387 158.399 102.741 158.842C103.094 159.285 102.721 159.747 102.242 159.778C101.764 159.808 100.984 158.738 100.527 158.903C100.071 159.068 99.9652 158.061 99.6435 158.374C99.3218 158.686 100.142 159.56 99.9452 159.829C99.7484 160.099 99.0931 159.175 99.2487 160.34C99.4043 161.504 98.8421 160.941 98.2398 160.151C97.6376 159.361 97.0684 160.54 97.0684 160.54C97.5255 158.874 98.5711 157.43 100.011 156.477C101.452 155.523 103.189 155.123 104.901 155.353C106.613 155.582 108.184 156.424 109.323 157.723C110.461 159.022 111.09 160.69 111.093 162.418V162.412ZM109.361 160.887C109.748 160.277 107.501 157.076 107.226 157.561C106.935 158.073 108.972 161.497 109.361 160.887ZM108.625 161.594C108.418 161.304 107.753 161.662 107.046 163.23C106.339 164.797 104.912 166.862 103.651 167.827C102.39 168.791 102.109 169.302 102.109 169.302C102.657 169.449 103.221 169.528 103.788 169.538C104.007 168.868 105.811 166.808 106.893 165.549C108.084 164.173 108.834 161.886 108.625 161.594ZM110.261 162.869C109.943 162.689 109.07 163.534 108.431 164.657C107.898 165.642 107.194 166.524 106.353 167.263C105.705 167.852 105.101 168.947 104.821 169.503C105.651 169.403 106.457 169.157 107.2 168.775C107.701 167.933 108.3 167.153 108.985 166.451C110.18 165.239 110.579 163.057 110.261 162.869Z" fill="url(#paint64_linear_14_168)"/>
<path d="M100.951 160.554C100.951 160.624 100.93 160.693 100.891 160.751C100.852 160.809 100.797 160.854 100.732 160.881C100.668 160.908 100.597 160.915 100.528 160.901C100.459 160.887 100.396 160.854 100.347 160.804C100.298 160.755 100.264 160.692 100.25 160.623C100.237 160.555 100.244 160.484 100.27 160.419C100.297 160.354 100.342 160.299 100.401 160.26C100.459 160.221 100.527 160.201 100.597 160.201C100.691 160.201 100.781 160.238 100.847 160.304C100.913 160.371 100.951 160.46 100.951 160.554Z" fill="#FFF4EB"/>
<path d="M100.869 161.289C100.869 161.337 100.854 161.384 100.827 161.424C100.801 161.464 100.762 161.495 100.718 161.513C100.673 161.531 100.624 161.536 100.577 161.526C100.53 161.517 100.486 161.494 100.452 161.459C100.418 161.425 100.395 161.382 100.386 161.335C100.377 161.287 100.381 161.238 100.4 161.194C100.418 161.149 100.45 161.111 100.49 161.084C100.53 161.058 100.577 161.043 100.625 161.043C100.657 161.043 100.689 161.05 100.719 161.062C100.749 161.074 100.775 161.092 100.798 161.115C100.821 161.138 100.839 161.165 100.851 161.195C100.863 161.225 100.869 161.256 100.869 161.289Z" fill="#FFF4EB"/>
<path d="M101.776 160.738C101.776 160.835 101.747 160.929 101.693 161.01C101.639 161.09 101.563 161.153 101.474 161.19C101.384 161.227 101.286 161.237 101.191 161.218C101.096 161.199 101.009 161.152 100.941 161.084C100.872 161.016 100.826 160.928 100.807 160.834C100.788 160.739 100.798 160.64 100.835 160.551C100.872 160.462 100.934 160.385 101.015 160.332C101.095 160.278 101.19 160.249 101.287 160.249C101.416 160.249 101.541 160.301 101.632 160.392C101.724 160.484 101.776 160.608 101.776 160.738Z" fill="#FFF4EB"/>
<path d="M100.322 161.02C100.315 161.043 100.3 161.064 100.28 161.079C100.259 161.093 100.235 161.101 100.21 161.101C100.186 161.101 100.161 161.093 100.141 161.079C100.121 161.064 100.106 161.043 100.098 161.02C100.106 160.996 100.121 160.976 100.141 160.961C100.161 160.947 100.186 160.939 100.21 160.939C100.235 160.939 100.259 160.947 100.28 160.961C100.3 160.976 100.315 160.996 100.322 161.02Z" fill="#FFF4EB"/>
<path d="M196.487 164.188H121.523C120.868 164.188 120.337 164.719 120.337 165.375V194.051C120.337 194.707 120.868 195.238 121.523 195.238H196.487C197.142 195.238 197.673 194.707 197.673 194.051V165.375C197.673 164.719 197.142 164.188 196.487 164.188Z" fill="url(#paint65_linear_14_168)"/>
<path d="M184.935 173.661H180.663V177.132H184.935V173.661Z" fill="#44D9E0" stroke="#17616D" stroke-width="2" stroke-miterlimit="10"/>
<path d="M189.208 173.661H184.935V177.132H189.208V173.661Z" fill="#44D9E0" stroke="#17616D" stroke-width="2" stroke-miterlimit="10"/>
<path d="M193.48 173.661H189.208V177.132H193.48V173.661Z" fill="#44D9E0" stroke="#17616D" stroke-width="2" stroke-miterlimit="10"/>
<path d="M184.935 177.133H180.663V180.604H184.935V177.133Z" fill="#44D9E0" stroke="#17616D" stroke-width="2" stroke-miterlimit="10"/>
<path d="M189.208 177.133H184.935V180.604H189.208V177.133Z" fill="#44D9E0" stroke="#17616D" stroke-width="2" stroke-miterlimit="10"/>
<path d="M193.48 177.133H189.208V180.604H193.48V177.133Z" fill="#44D9E0" stroke="#17616D" stroke-width="2" stroke-miterlimit="10"/>
<path d="M184.935 180.604H180.663V184.075H184.935V180.604Z" fill="#44D9E0" stroke="#17616D" stroke-width="2" stroke-miterlimit="10"/>
<path d="M189.208 180.604H184.935V184.075H189.208V180.604Z" fill="#44D9E0" stroke="#17616D" stroke-width="2" stroke-miterlimit="10"/>
<path d="M193.48 180.604H189.208V184.075H193.48V180.604Z" fill="#44D9E0" stroke="#17616D" stroke-width="2" stroke-miterlimit="10"/>
<path d="M184.935 184.075H180.663V187.546H184.935V184.075Z" fill="#44D9E0" stroke="#17616D" stroke-width="2" stroke-miterlimit="10"/>
<path d="M189.208 184.075H184.935V187.546H189.208V184.075Z" fill="#44D9E0" stroke="#17616D" stroke-width="2" stroke-miterlimit="10"/>
<path d="M193.48 184.075H189.208V187.546H193.48V184.075Z" fill="#44D9E0" stroke="#17616D" stroke-width="2" stroke-miterlimit="10"/>
<path d="M184.935 187.548H180.663V191.019H184.935V187.548Z" fill="#44D9E0" stroke="#17616D" stroke-width="2" stroke-miterlimit="10"/>
<path d="M189.208 187.548H184.935V191.019H189.208V187.548Z" fill="#44D9E0" stroke="#17616D" stroke-width="2" stroke-miterlimit="10"/>
<path d="M193.48 187.548H189.208V191.019H193.48V187.548Z" fill="#44D9E0" stroke="#17616D" stroke-width="2" stroke-miterlimit="10"/>
<path d="M173.16 173.661H170.196V177.132H173.16V173.661Z" fill="#44D9E0" stroke="#17616D" stroke-width="2" stroke-miterlimit="10"/>
<path d="M176.125 173.661H173.161V177.132H176.125V173.661Z" fill="#44D9E0" stroke="#17616D" stroke-width="2" stroke-miterlimit="10"/>
<path d="M179.087 173.661H176.123V177.132H179.087V173.661Z" fill="#44D9E0" stroke="#17616D" stroke-width="2" stroke-miterlimit="10"/>
<path d="M173.16 177.133H170.196V180.604H173.16V177.133Z" fill="#44D9E0" stroke="#17616D" stroke-width="2" stroke-miterlimit="10"/>
<path d="M176.125 177.133H173.161V180.604H176.125V177.133Z" fill="#44D9E0" stroke="#17616D" stroke-width="2" stroke-miterlimit="10"/>
<path d="M175.843 184.603H173.44V188.455H175.843V184.603Z" fill="#44D9E0" stroke="#17616D" stroke-width="2" stroke-miterlimit="10"/>
<path d="M179.087 177.133H176.123V180.604H179.087V177.133Z" fill="#44D9E0" stroke="#17616D" stroke-width="2" stroke-miterlimit="10"/>
<path d="M128.987 173.661H124.589V177.052H128.987V173.661Z" fill="#44D9E0" stroke="#17616D" stroke-width="2" stroke-miterlimit="10"/>
<path d="M128.987 167.036H124.589V170.427H128.987V167.036Z" fill="#44D9E0" stroke="#17616D" stroke-width="2" stroke-miterlimit="10"/>
<path d="M133.386 167.036H128.987V170.427H133.386V167.036Z" fill="#44D9E0" stroke="#17616D" stroke-width="2" stroke-miterlimit="10"/>
<path d="M137.783 167.036H133.384V170.427H137.783V167.036Z" fill="#44D9E0" stroke="#17616D" stroke-width="2" stroke-miterlimit="10"/>
<path d="M142.181 167.036H137.783V170.427H142.181V167.036Z" fill="#44D9E0" stroke="#17616D" stroke-width="2" stroke-miterlimit="10"/>
<path d="M146.578 167.036H142.18V170.427H146.578V167.036Z" fill="#44D9E0" stroke="#17616D" stroke-width="2" stroke-miterlimit="10"/>
<path d="M175.889 167.036H171.491V170.427H175.889V167.036Z" fill="#44D9E0" stroke="#17616D" stroke-width="2" stroke-miterlimit="10"/>
<path d="M180.287 167.036H175.889V170.427H180.287V167.036Z" fill="#44D9E0" stroke="#17616D" stroke-width="2" stroke-miterlimit="10"/>
<path d="M184.686 167.036H180.287V170.427H184.686V167.036Z" fill="#44D9E0" stroke="#17616D" stroke-width="2" stroke-miterlimit="10"/>
<path d="M189.083 167.036H184.684V170.427H189.083V167.036Z" fill="#44D9E0" stroke="#17616D" stroke-width="2" stroke-miterlimit="10"/>
<path d="M193.481 167.036H189.083V170.427H193.481V167.036Z" fill="#44D9E0" stroke="#17616D" stroke-width="2" stroke-miterlimit="10"/>
<path d="M133.386 173.661H128.987V177.052H133.386V173.661Z" fill="#44D9E0" stroke="#17616D" stroke-width="2" stroke-miterlimit="10"/>
<path d="M137.783 173.661H133.384V177.052H137.783V173.661Z" fill="#44D9E0" stroke="#17616D" stroke-width="2" stroke-miterlimit="10"/>
<path d="M142.181 173.661H137.783V177.052H142.181V173.661Z" fill="#44D9E0" stroke="#17616D" stroke-width="2" stroke-miterlimit="10"/>
<path d="M146.578 173.661H142.18V177.052H146.578V173.661Z" fill="#44D9E0" stroke="#17616D" stroke-width="2" stroke-miterlimit="10"/>
<path d="M150.977 173.661H146.578V177.052H150.977V173.661Z" fill="#44D9E0" stroke="#17616D" stroke-width="2" stroke-miterlimit="10"/>
<path d="M155.375 173.661H150.977V177.052H155.375V173.661Z" fill="#44D9E0" stroke="#17616D" stroke-width="2" stroke-miterlimit="10"/>
<path d="M159.772 173.661H155.374V177.052H159.772V173.661Z" fill="#44D9E0" stroke="#17616D" stroke-width="2" stroke-miterlimit="10"/>
<path d="M164.171 173.661H159.772V177.052H164.171V173.661Z" fill="#44D9E0" stroke="#17616D" stroke-width="2" stroke-miterlimit="10"/>
<path d="M168.568 173.661H164.169V177.052H168.568V173.661Z" fill="#44D9E0" stroke="#17616D" stroke-width="2" stroke-miterlimit="10"/>
<path d="M130.764 177.053H124.589V180.444H130.764V177.053Z" fill="#44D9E0" stroke="#17616D" stroke-width="2" stroke-miterlimit="10"/>
<path d="M135.164 177.053H130.766V180.444H135.164V177.053Z" fill="#44D9E0" stroke="#17616D" stroke-width="2" stroke-miterlimit="10"/>
<path d="M139.561 177.053H135.163V180.444H139.561V177.053Z" fill="#44D9E0" stroke="#17616D" stroke-width="2" stroke-miterlimit="10"/>
<path d="M143.96 177.053H139.561V180.444H143.96V177.053Z" fill="#44D9E0" stroke="#17616D" stroke-width="2" stroke-miterlimit="10"/>
<path d="M148.357 177.053H143.958V180.444H148.357V177.053Z" fill="#44D9E0" stroke="#17616D" stroke-width="2" stroke-miterlimit="10"/>
<path d="M152.755 177.053H148.357V180.444H152.755V177.053Z" fill="#44D9E0" stroke="#17616D" stroke-width="2" stroke-miterlimit="10"/>
<path d="M157.152 177.053H152.754V180.444H157.152V177.053Z" fill="#44D9E0" stroke="#17616D" stroke-width="2" stroke-miterlimit="10"/>
<path d="M161.551 177.053H157.152V180.444H161.551V177.053Z" fill="#44D9E0" stroke="#17616D" stroke-width="2" stroke-miterlimit="10"/>
<path d="M165.948 177.053H161.549V180.444H165.948V177.053Z" fill="#44D9E0" stroke="#17616D" stroke-width="2" stroke-miterlimit="10"/>
<path d="M168.568 177.053H165.948V180.444H168.568V177.053Z" fill="#44D9E0" stroke="#17616D" stroke-width="2" stroke-miterlimit="10"/>
<path d="M132.359 180.444H124.589V183.835H132.359V180.444Z" fill="#44D9E0" stroke="#17616D" stroke-width="2" stroke-miterlimit="10"/>
<path d="M136.757 180.444H132.359V183.835H136.757V180.444Z" fill="#44D9E0" stroke="#17616D" stroke-width="2" stroke-miterlimit="10"/>
<path d="M141.156 180.444H136.757V183.835H141.156V180.444Z" fill="#44D9E0" stroke="#17616D" stroke-width="2" stroke-miterlimit="10"/>
<path d="M145.553 180.444H141.155V183.835H145.553V180.444Z" fill="#44D9E0" stroke="#17616D" stroke-width="2" stroke-miterlimit="10"/>
<path d="M149.951 180.444H145.553V183.835H149.951V180.444Z" fill="#44D9E0" stroke="#17616D" stroke-width="2" stroke-miterlimit="10"/>
<path d="M154.349 180.444H149.95V183.835H154.349V180.444Z" fill="#44D9E0" stroke="#17616D" stroke-width="2" stroke-miterlimit="10"/>
<path d="M158.747 180.444H154.349V183.835H158.747V180.444Z" fill="#44D9E0" stroke="#17616D" stroke-width="2" stroke-miterlimit="10"/>
<path d="M163.145 180.444H158.747V183.835H163.145V180.444Z" fill="#44D9E0" stroke="#17616D" stroke-width="2" stroke-miterlimit="10"/>
<path d="M168.568 180.444H163.144V183.835H168.568V180.444Z" fill="#44D9E0" stroke="#17616D" stroke-width="2" stroke-miterlimit="10"/>
<path d="M133.707 183.835H124.589V187.226H133.707V183.835Z" fill="#44D9E0" stroke="#17616D" stroke-width="2" stroke-miterlimit="10"/>
<path d="M138.106 183.835H133.707V187.226H138.106V183.835Z" fill="#44D9E0" stroke="#17616D" stroke-width="2" stroke-miterlimit="10"/>
<path d="M128.987 187.227H124.589V190.618H128.987V187.227Z" fill="#44D9E0" stroke="#17616D" stroke-width="2" stroke-miterlimit="10"/>
<path d="M133.386 187.227H128.987V190.618H133.386V187.227Z" fill="#44D9E0" stroke="#17616D" stroke-width="2" stroke-miterlimit="10"/>
<path d="M137.783 187.227H133.384V190.618H137.783V187.227Z" fill="#44D9E0" stroke="#17616D" stroke-width="2" stroke-miterlimit="10"/>
<path d="M155.697 187.227H137.783V190.618H155.697V187.227Z" fill="#44D9E0" stroke="#17616D" stroke-width="2" stroke-miterlimit="10"/>
<path d="M142.504 183.835H138.106V187.226H142.504V183.835Z" fill="#44D9E0" stroke="#17616D" stroke-width="2" stroke-miterlimit="10"/>
<path d="M146.901 183.835H142.503V187.226H146.901V183.835Z" fill="#44D9E0" stroke="#17616D" stroke-width="2" stroke-miterlimit="10"/>
<path d="M151.3 183.835H146.901V187.226H151.3V183.835Z" fill="#44D9E0" stroke="#17616D" stroke-width="2" stroke-miterlimit="10"/>
<path d="M155.697 183.835H151.298V187.226H155.697V183.835Z" fill="#44D9E0" stroke="#17616D" stroke-width="2" stroke-miterlimit="10"/>
<path d="M160.095 183.835H155.697V187.226H160.095V183.835Z" fill="#44D9E0" stroke="#17616D" stroke-width="2" stroke-miterlimit="10"/>
<path d="M159.987 187.227H155.697V190.618H159.987V187.227Z" fill="#44D9E0" stroke="#17616D" stroke-width="2" stroke-miterlimit="10"/>
<path d="M164.277 187.227H159.987V190.618H164.277V187.227Z" fill="#44D9E0" stroke="#17616D" stroke-width="2" stroke-miterlimit="10"/>
<path d="M168.567 187.227H164.277V190.618H168.567V187.227Z" fill="#44D9E0" stroke="#17616D" stroke-width="2" stroke-miterlimit="10"/>
<path d="M168.568 183.835H160.095V187.226H168.568V183.835Z" fill="#44D9E0" stroke="#17616D" stroke-width="2" stroke-miterlimit="10"/>
<path d="M204.936 177.213C204.936 177.213 205.309 171.391 205.171 170.644C205.033 169.896 203.97 168.854 203.437 168.993C202.903 169.133 198.84 175.456 198.416 176.925C197.992 178.393 197.989 179.753 196.787 180.696C195.585 181.639 194.01 182.832 194.678 184.595C195.345 186.358 197.188 189.375 203.009 190.524C208.83 191.673 212.465 192.22 213.237 189.569C214.009 186.918 207.124 181.993 204.936 177.213Z" fill="url(#paint66_linear_14_168)"/>
<path d="M131.919 231.088C131.919 231.088 128.384 234.152 124.413 236.902C123.093 237.819 121.725 238.699 120.424 239.42C115.217 242.304 113.895 241.783 113.895 241.783C108.088 240.381 108.088 235.254 109.609 230.488C111.131 225.721 114.496 215.586 117.221 207.095C118.29 203.795 119.632 200.589 121.235 197.512C122.853 194.386 124.149 192.506 124.149 192.506L131.919 231.088Z" fill="url(#paint67_linear_14_168)"/>
<path d="M124.413 236.902C124.779 232.74 124.104 228.441 122.347 219.511C120.878 212.06 121.021 202.505 121.235 197.512C122.853 194.386 124.149 192.506 124.149 192.506L131.919 231.088C131.919 231.088 128.38 234.155 124.413 236.902Z" fill="#CE6046"/>
<path d="M212.944 210.742C207.094 211.988 196.498 196.706 195.643 194.676C195.248 193.733 195.15 192.472 195.407 190.732C195.717 188.712 196.517 186.055 197.907 182.527C202.767 179.777 204.261 183.244 204.261 183.244C204.793 185.545 206.949 192.379 208.976 198.659C211.028 204.981 212.944 210.742 212.944 210.742Z" fill="url(#paint68_linear_14_168)"/>
<path d="M212.944 210.742C207.094 211.988 196.498 196.706 195.643 194.676C195.248 193.733 195.15 192.472 195.407 190.732C197.385 192.847 204.087 199.539 208.979 198.659C211.028 204.981 212.944 210.742 212.944 210.742Z" fill="#CE6046"/>
<path d="M210.462 221.517C209.103 222.393 204.569 222.748 199.963 222.549C194.672 222.313 189.3 221.35 188.594 219.595C188.393 212.063 185.696 192.05 190.329 189.558C190.329 189.558 191.036 189.768 192.401 190.619C194.239 191.767 197.275 194.076 201.411 198.602C208.621 206.493 212.905 209.897 213.147 211.214C213.388 212.53 213.385 219.631 210.462 221.517Z" fill="url(#paint69_linear_14_168)"/>
<path d="M199.963 222.546C194.672 222.31 189.3 221.347 188.594 219.592C188.393 212.061 185.696 192.048 190.329 189.556C190.329 189.556 191.036 189.766 192.4 190.617C193.009 193.606 194.404 201.052 194.522 207.172C194.646 213.398 197.141 219.772 199.963 222.546Z" fill="#CE6046"/>
<path d="M169.649 187.548C169.649 187.548 173.133 188.147 180.383 188.508C187.632 188.869 189.795 188.949 190.329 189.557C190.863 190.165 191.451 203.623 190.596 211.795C189.742 219.966 186.514 235.694 186.514 235.694L132.201 234.653C132.201 234.653 127.074 223.277 124.351 209.658C121.627 196.038 122.709 192.234 126.074 191.389C129.439 190.544 136.548 190.348 140.192 189.385C143.836 188.422 146.521 187.843 146.521 187.843L169.649 187.548Z" fill="url(#paint70_linear_14_168)"/>
<path d="M154.765 189.879C152.536 189.511 150.354 188.645 148.541 187.013C148.326 179.83 147.819 176.838 147.819 176.838L159.732 176.551L166.568 176.385C166.568 176.385 166.996 186.291 167.422 187.28C167.735 188.01 161.069 190.926 154.765 189.879Z" fill="url(#paint71_linear_14_168)"/>
<path d="M154.765 189.879C152.536 189.511 150.354 188.645 148.541 187.012C148.326 179.83 147.819 176.838 147.819 176.838L159.732 176.551L160.583 181.466C160.583 181.466 153.195 182.759 154.765 189.879Z" fill="#EAA0B1"/>
<path d="M142.372 167.439C142.372 167.439 140.53 166.531 139.329 167.439C138.128 168.346 138.661 173.18 140.264 174.57C141.866 175.959 146.378 176.599 147.335 175.477C148.292 174.355 142.372 167.439 142.372 167.439Z" fill="url(#paint72_linear_14_168)"/>
<path d="M170.33 166.719C170.33 166.719 172.999 164.609 174.469 166.852C175.938 169.095 175.937 171.605 173.427 173.287C170.917 174.969 168.22 176.625 167.313 174.836C166.405 173.047 170.33 166.719 170.33 166.719Z" fill="url(#paint73_linear_14_168)"/>
<path d="M165.497 179.911C165.497 179.911 167.419 174.997 170.25 168.908C173.081 162.82 175.163 161.218 174.575 153.901C173.987 146.584 165.176 140.229 157.326 140.176C149.475 140.123 134.95 150.056 138.848 155.557C137.566 158.334 136.658 160.31 139.756 164.796C142.853 169.282 148.994 180.018 150.222 180.819C151.451 181.619 157.058 184.979 165.497 179.911Z" fill="url(#paint74_linear_14_168)"/>
<path d="M168.246 184.979L170.89 188.323C170.89 188.323 168.525 193.791 158.913 194.111C149.301 194.432 145.295 189.024 145.295 189.024L147.712 185.539C147.712 185.539 150.894 188.982 158.437 188.566C165.98 188.15 168.246 184.979 168.246 184.979Z" fill="url(#paint75_linear_14_168)"/>
<path d="M182.835 224.241C176.107 220.835 160.325 220.595 160.325 220.595C160.325 220.595 144.544 220.831 137.814 224.241C133.944 226.198 132.289 227.495 131.725 228.853V228.87C131.617 229.132 131.546 229.406 131.513 229.687C131.193 231.145 130.785 234.284 132.251 237.208C133.218 237.335 133.757 236.897 134.052 236.292L160.334 236.056L187.409 236.292C187.409 236.292 188.09 235.451 188.852 232.247C189.613 229.044 189.565 227.644 182.835 224.241Z" fill="#1D1359"/>
<path d="M186.912 236.336C183.625 245.051 159.115 244.425 159.115 244.425C155.162 244.475 151.211 244.255 147.289 243.764C140.517 242.885 133.028 240.881 131.318 236.339C130.387 233.863 137.407 231.316 144.669 229.903C148.101 229.234 151.589 228.825 154.278 228.581C155.582 228.463 156.699 228.383 157.528 228.331C158.584 228.264 159.644 228.264 160.7 228.331C163.243 228.49 168.463 228.908 173.56 229.903C180.822 231.314 187.843 233.866 186.912 236.336Z" fill="#23217E"/>
<path d="M147.779 243.726C141.007 242.847 133.518 240.843 131.808 236.3C130.877 233.825 137.897 231.278 145.159 229.865C148.591 229.196 152.08 228.787 154.768 228.543C149.222 230.622 143.417 234.952 147.779 243.726Z" fill="#1D1359"/>
<path d="M161.377 54.8583H161.011V125.628H161.377V54.8583Z" fill="#DCE8EA"/>
<path d="M226.178 90.4262V90.0597L96.2104 90.0597V90.4262L226.178 90.4262Z" fill="#DCE8EA"/>
<defs>
<linearGradient id="paint0_linear_14_168" x1="274.6" y1="241.703" x2="251.745" y2="159.016" gradientUnits="userSpaceOnUse">
<stop stop-color="#EEF3FF"/>
<stop offset="1" stop-color="#EEF3FF"/>
</linearGradient>
<linearGradient id="paint1_linear_14_168" x1="132.684" y1="160.725" x2="90.5066" y2="-34.3504" gradientUnits="userSpaceOnUse">
<stop stop-color="#EEF3FF"/>
<stop offset="1" stop-color="#EEF3FF"/>
</linearGradient>
<linearGradient id="paint2_linear_14_168" x1="231.096" y1="84.6722" x2="276.156" y2="84.6722" gradientUnits="userSpaceOnUse">
<stop stop-color="#FFE9D2"/>
<stop offset="1" stop-color="#FDD1A1"/>
</linearGradient>
<linearGradient id="paint3_linear_14_168" x1="267.75" y1="120.621" x2="304.694" y2="120.621" gradientUnits="userSpaceOnUse">
<stop stop-color="#FF9676"/>
<stop offset="1" stop-color="#E0714F"/>
</linearGradient>
<linearGradient id="paint4_linear_14_168" x1="25235.8" y1="76705.4" x2="44416.2" y2="76705.4" gradientUnits="userSpaceOnUse">
<stop stop-color="#FFE9D2"/>
<stop offset="1" stop-color="#FDD1A1"/>
</linearGradient>
<linearGradient id="paint5_linear_14_168" x1="10644.1" y1="44733" x2="22224.6" y2="44733" gradientUnits="userSpaceOnUse">
<stop stop-color="#FF9676"/>
<stop offset="1" stop-color="#E0714F"/>
</linearGradient>
<linearGradient id="paint6_linear_14_168" x1="224.24" y1="174.911" x2="260.54" y2="174.911" gradientUnits="userSpaceOnUse">
<stop stop-color="white"/>
<stop offset="1" stop-color="#DCE8EA"/>
</linearGradient>
<linearGradient id="paint7_linear_14_168" x1="75798.2" y1="94763.8" x2="83892" y2="96555.2" gradientUnits="userSpaceOnUse">
<stop stop-color="white"/>
<stop offset="1" stop-color="#DCE8EA"/>
</linearGradient>
<linearGradient id="paint8_linear_14_168" x1="73116" y1="95215.9" x2="82211.5" y2="97168.5" gradientUnits="userSpaceOnUse">
<stop stop-color="white"/>
<stop offset="1" stop-color="#DCE8EA"/>
</linearGradient>
<linearGradient id="paint9_linear_14_168" x1="53410.4" y1="30639.7" x2="66022.7" y2="30639.7" gradientUnits="userSpaceOnUse">
<stop stop-color="white"/>
<stop offset="1" stop-color="#DCE8EA"/>
</linearGradient>
<linearGradient id="paint10_linear_14_168" x1="133187" y1="18243.5" x2="299412" y2="18243.5" gradientUnits="userSpaceOnUse">
<stop stop-color="white"/>
<stop offset="1" stop-color="#DCE8EA"/>
</linearGradient>
<linearGradient id="paint11_linear_14_168" x1="16089.7" y1="14600.8" x2="15859.6" y2="15473.5" gradientUnits="userSpaceOnUse">
<stop stop-color="white"/>
<stop offset="1" stop-color="#DCE8EA"/>
</linearGradient>
<linearGradient id="paint12_linear_14_168" x1="127.885" y1="96.0412" x2="129.168" y2="102.21" gradientUnits="userSpaceOnUse">
<stop stop-color="#68471E"/>
<stop offset="1" stop-color="#51381C"/>
</linearGradient>
<linearGradient id="paint13_linear_14_168" x1="126.391" y1="122.18" x2="131.258" y2="122.18" gradientUnits="userSpaceOnUse">
<stop stop-color="#158793"/>
<stop offset="1" stop-color="#17616D"/>
</linearGradient>
<linearGradient id="paint14_linear_14_168" x1="124.495" y1="114.439" x2="132.666" y2="108.511" gradientUnits="userSpaceOnUse">
<stop stop-color="#FFE9E9"/>
<stop offset="1" stop-color="#FFB7C6"/>
</linearGradient>
<linearGradient id="paint15_linear_14_168" x1="4784.37" y1="4487.1" x2="4901.46" y2="4487.1" gradientUnits="userSpaceOnUse">
<stop stop-color="#158793"/>
<stop offset="1" stop-color="#17616D"/>
</linearGradient>
<linearGradient id="paint16_linear_14_168" x1="3863.24" y1="5054.5" x2="3954.03" y2="5041.19" gradientUnits="userSpaceOnUse">
<stop stop-color="#FFE9E9"/>
<stop offset="1" stop-color="#FFB7C6"/>
</linearGradient>
<linearGradient id="paint17_linear_14_168" x1="4085.06" y1="5717.84" x2="3981.35" y2="5702.92" gradientUnits="userSpaceOnUse">
<stop stop-color="#FFE9E9"/>
<stop offset="1" stop-color="#FFB7C6"/>
</linearGradient>
<linearGradient id="paint18_linear_14_168" x1="11011.4" y1="13395" x2="11550.8" y2="12985.7" gradientUnits="userSpaceOnUse">
<stop stop-color="#FFE9E9"/>
<stop offset="1" stop-color="#FFB7C6"/>
</linearGradient>
<linearGradient id="paint19_linear_14_168" x1="130.566" y1="119.657" x2="140.169" y2="119.657" gradientUnits="userSpaceOnUse">
<stop stop-color="#FFCA83"/>
<stop offset="1" stop-color="#FBB958"/>
</linearGradient>
<linearGradient id="paint20_linear_14_168" x1="12772.6" y1="14664.6" x2="13192.1" y2="15649" gradientUnits="userSpaceOnUse">
<stop stop-color="white"/>
<stop offset="1" stop-color="#DCE8EA"/>
</linearGradient>
<linearGradient id="paint21_linear_14_168" x1="11393.2" y1="17331.5" x2="12175.6" y2="17331.5" gradientUnits="userSpaceOnUse">
<stop stop-color="#FFCA83"/>
<stop offset="1" stop-color="#FBB958"/>
</linearGradient>
<linearGradient id="paint22_linear_14_168" x1="20828.8" y1="84411.2" x2="29549.1" y2="85272" gradientUnits="userSpaceOnUse">
<stop stop-color="white"/>
<stop offset="1" stop-color="#DCE8EA"/>
</linearGradient>
<linearGradient id="paint23_linear_14_168" x1="18646" y1="68800.2" x2="27584.2" y2="77049.1" gradientUnits="userSpaceOnUse">
<stop stop-color="white"/>
<stop offset="1" stop-color="#DCE8EA"/>
</linearGradient>
<linearGradient id="paint24_linear_14_168" x1="31576.9" y1="13094.8" x2="31267.6" y2="14500.8" gradientUnits="userSpaceOnUse">
<stop stop-color="#FF9676"/>
<stop offset="1" stop-color="#E0714F"/>
</linearGradient>
<linearGradient id="paint25_linear_14_168" x1="7528.68" y1="8745.82" x2="7586.86" y2="8744.44" gradientUnits="userSpaceOnUse">
<stop stop-color="#FFCA83"/>
<stop offset="1" stop-color="#FBB958"/>
</linearGradient>
<linearGradient id="paint26_linear_14_168" x1="15828.9" y1="12020.8" x2="16385.3" y2="11804" gradientUnits="userSpaceOnUse">
<stop stop-color="#FFE9E9"/>
<stop offset="1" stop-color="#FFB7C6"/>
</linearGradient>
<linearGradient id="paint27_linear_14_168" x1="7270.31" y1="3335.25" x2="7340.03" y2="3333.5" gradientUnits="userSpaceOnUse">
<stop stop-color="#FFCA83"/>
<stop offset="1" stop-color="#FBB958"/>
</linearGradient>
<linearGradient id="paint28_linear_14_168" x1="194.29" y1="54.1206" x2="194.29" y2="63.4943" gradientUnits="userSpaceOnUse">
<stop stop-color="#062B2D"/>
<stop offset="1" stop-color="#051111"/>
</linearGradient>
<linearGradient id="paint29_linear_14_168" x1="5852.48" y1="3513.69" x2="5947.85" y2="3500.84" gradientUnits="userSpaceOnUse">
<stop stop-color="#FFE9E9"/>
<stop offset="1" stop-color="#FFB7C6"/>
</linearGradient>
<linearGradient id="paint30_linear_14_168" x1="5880.84" y1="3807.65" x2="5794.07" y2="3795.53" gradientUnits="userSpaceOnUse">
<stop stop-color="#FFE9E9"/>
<stop offset="1" stop-color="#FFB7C6"/>
</linearGradient>
<linearGradient id="paint31_linear_14_168" x1="16901.8" y1="13135.6" x2="17779.9" y2="13109.8" gradientUnits="userSpaceOnUse">
<stop stop-color="#FFE9E9"/>
<stop offset="1" stop-color="#FFB7C6"/>
</linearGradient>
<linearGradient id="paint32_linear_14_168" x1="194.629" y1="78.1719" x2="199.662" y2="78.1719" gradientUnits="userSpaceOnUse">
<stop stop-color="#C15238"/>
<stop offset="1" stop-color="#A44D32"/>
</linearGradient>
<linearGradient id="paint33_linear_14_168" x1="9200.88" y1="5563.65" x2="9416.88" y2="5563.65" gradientUnits="userSpaceOnUse">
<stop stop-color="#C15238"/>
<stop offset="1" stop-color="#A44D32"/>
</linearGradient>
<linearGradient id="paint34_linear_14_168" x1="11369.3" y1="15225" x2="11671.5" y2="15225" gradientUnits="userSpaceOnUse">
<stop stop-color="#C15238"/>
<stop offset="1" stop-color="#A44D32"/>
</linearGradient>
<linearGradient id="paint35_linear_14_168" x1="26803.5" y1="13028.1" x2="27464.3" y2="14590.9" gradientUnits="userSpaceOnUse">
<stop stop-color="#FF9676"/>
<stop offset="1" stop-color="#E0714F"/>
</linearGradient>
<linearGradient id="paint36_linear_14_168" x1="10541.6" y1="15225" x2="10843.8" y2="15225" gradientUnits="userSpaceOnUse">
<stop stop-color="#C15238"/>
<stop offset="1" stop-color="#A44D32"/>
</linearGradient>
<linearGradient id="paint37_linear_14_168" x1="39775.3" y1="20783.5" x2="46375" y2="20783.5" gradientUnits="userSpaceOnUse">
<stop stop-color="#68471E"/>
<stop offset="1" stop-color="#51381C"/>
</linearGradient>
<linearGradient id="paint38_linear_14_168" x1="39581.7" y1="27563.9" x2="40505.6" y2="29240.3" gradientUnits="userSpaceOnUse">
<stop stop-color="#062B2D"/>
<stop offset="1" stop-color="#051111"/>
</linearGradient>
<linearGradient id="paint39_linear_14_168" x1="13426.7" y1="9908.52" x2="13580.4" y2="10578.8" gradientUnits="userSpaceOnUse">
<stop stop-color="white"/>
<stop offset="1" stop-color="#DCE8EA"/>
</linearGradient>
<linearGradient id="paint40_linear_14_168" x1="16874.2" y1="13031.1" x2="16736.6" y2="13851.9" gradientUnits="userSpaceOnUse">
<stop stop-color="#16B58B"/>
<stop offset="1" stop-color="#1A8D6E"/>
</linearGradient>
<linearGradient id="paint41_linear_14_168" x1="191.449" y1="116.82" x2="198.457" y2="112.174" gradientUnits="userSpaceOnUse">
<stop stop-color="#9B5648"/>
<stop offset="1" stop-color="#7A4035"/>
</linearGradient>
<linearGradient id="paint42_linear_14_168" x1="5297.4" y1="4811.83" x2="5355.8" y2="4803.79" gradientUnits="userSpaceOnUse">
<stop stop-color="#9B5648"/>
<stop offset="1" stop-color="#7A4035"/>
</linearGradient>
<linearGradient id="paint43_linear_14_168" x1="5189.53" y1="4626.65" x2="5135.74" y2="4611.05" gradientUnits="userSpaceOnUse">
<stop stop-color="#9B5648"/>
<stop offset="1" stop-color="#7A4035"/>
</linearGradient>
<linearGradient id="paint44_linear_14_168" x1="14321.2" y1="15550.4" x2="14793.9" y2="15612" gradientUnits="userSpaceOnUse">
<stop stop-color="#9B5648"/>
<stop offset="1" stop-color="#7A4035"/>
</linearGradient>
<linearGradient id="paint45_linear_14_168" x1="7285.61" y1="11467.2" x2="7033.35" y2="11920.1" gradientUnits="userSpaceOnUse">
<stop stop-color="#16B58B"/>
<stop offset="1" stop-color="#1A8D6E"/>
</linearGradient>
<linearGradient id="paint46_linear_14_168" x1="15448.3" y1="13090.1" x2="15849" y2="13768" gradientUnits="userSpaceOnUse">
<stop stop-color="#16B58B"/>
<stop offset="1" stop-color="#1A8D6E"/>
</linearGradient>
<linearGradient id="paint47_linear_14_168" x1="6394.66" y1="11671.3" x2="6617.25" y2="11750.2" gradientUnits="userSpaceOnUse">
<stop stop-color="#16B58B"/>
<stop offset="1" stop-color="#1A8D6E"/>
</linearGradient>
<linearGradient id="paint48_linear_14_168" x1="6021" y1="18229.5" x2="6295.25" y2="18229.5" gradientUnits="userSpaceOnUse">
<stop stop-color="#16B58B"/>
<stop offset="1" stop-color="#1A8D6E"/>
</linearGradient>
<linearGradient id="paint49_linear_14_168" x1="8995.31" y1="20767.5" x2="9682.75" y2="20767.5" gradientUnits="userSpaceOnUse">
<stop stop-color="#FF9676"/>
<stop offset="1" stop-color="#E0714F"/>
</linearGradient>
<linearGradient id="paint50_linear_14_168" x1="16239.6" y1="17591.6" x2="17282.3" y2="17591.6" gradientUnits="userSpaceOnUse">
<stop stop-color="#16B58B"/>
<stop offset="1" stop-color="#1A8D6E"/>
</linearGradient>
<linearGradient id="paint51_linear_14_168" x1="9886.66" y1="7860.79" x2="10272.4" y2="7860.79" gradientUnits="userSpaceOnUse">
<stop stop-color="#FF9676"/>
<stop offset="1" stop-color="#E0714F"/>
</linearGradient>
<linearGradient id="paint52_linear_14_168" x1="26898.9" y1="28109.7" x2="29005.1" y2="30855.3" gradientUnits="userSpaceOnUse">
<stop stop-color="#062B2D"/>
<stop offset="1" stop-color="#051111"/>
</linearGradient>
<linearGradient id="paint53_linear_14_168" x1="7037.36" y1="12359.7" x2="7325.68" y2="12405.4" gradientUnits="userSpaceOnUse">
<stop stop-color="#158793"/>
<stop offset="1" stop-color="#17616D"/>
</linearGradient>
<linearGradient id="paint54_linear_14_168" x1="9082.72" y1="13970.2" x2="8758.34" y2="14010.1" gradientUnits="userSpaceOnUse">
<stop stop-color="#158793"/>
<stop offset="1" stop-color="#17616D"/>
</linearGradient>
<linearGradient id="paint55_linear_14_168" x1="17764" y1="14230.3" x2="17728.1" y2="15862.7" gradientUnits="userSpaceOnUse">
<stop stop-color="#158793"/>
<stop offset="1" stop-color="#17616D"/>
</linearGradient>
<linearGradient id="paint56_linear_14_168" x1="18342.8" y1="14357.6" x2="18846.1" y2="15880.1" gradientUnits="userSpaceOnUse">
<stop stop-color="#158793"/>
<stop offset="1" stop-color="#17616D"/>
</linearGradient>
<linearGradient id="paint57_linear_14_168" x1="11922.2" y1="10473" x2="12308.9" y2="10308.1" gradientUnits="userSpaceOnUse">
<stop stop-color="#9B5648"/>
<stop offset="1" stop-color="#7A4035"/>
</linearGradient>
<linearGradient id="paint58_linear_14_168" x1="13418.2" y1="15127.2" x2="14332.2" y2="14868.8" gradientUnits="userSpaceOnUse">
<stop stop-color="#9B5648"/>
<stop offset="1" stop-color="#7A4035"/>
</linearGradient>
<linearGradient id="paint59_linear_14_168" x1="19664.9" y1="-18121.6" x2="19766.1" y2="-17941.9" gradientUnits="userSpaceOnUse">
<stop stop-color="#16B58B"/>
<stop offset="1" stop-color="#1A8D6E"/>
</linearGradient>
<linearGradient id="paint60_linear_14_168" x1="40774.8" y1="-40963.8" x2="41253.1" y2="-40260.5" gradientUnits="userSpaceOnUse">
<stop stop-color="#16B58B"/>
<stop offset="1" stop-color="#1A8D6E"/>
</linearGradient>
<linearGradient id="paint61_linear_14_168" x1="5237.03" y1="5753.76" x2="5600.18" y2="5753.76" gradientUnits="userSpaceOnUse">
<stop stop-color="#9B5648"/>
<stop offset="1" stop-color="#7A4035"/>
</linearGradient>
<linearGradient id="paint62_linear_14_168" x1="16696.8" y1="30470.8" x2="19091.3" y2="30470.8" gradientUnits="userSpaceOnUse">
<stop stop-color="#9B5648"/>
<stop offset="1" stop-color="#7A4035"/>
</linearGradient>
<linearGradient id="paint63_linear_14_168" x1="14737" y1="25279.7" x2="15367.5" y2="26094.8" gradientUnits="userSpaceOnUse">
<stop stop-color="#FFE9D2"/>
<stop offset="1" stop-color="#FDD1A1"/>
</linearGradient>
<linearGradient id="paint64_linear_14_168" x1="105.405" y1="156.738" x2="102.681" y2="167.393" gradientUnits="userSpaceOnUse">
<stop stop-color="white"/>
<stop offset="1" stop-color="#FFF4EB"/>
</linearGradient>
<linearGradient id="paint65_linear_14_168" x1="159.519" y1="163.641" x2="158.556" y2="193.715" gradientUnits="userSpaceOnUse">
<stop stop-color="#158793"/>
<stop offset="0.7" stop-color="#17616D"/>
</linearGradient>
<linearGradient id="paint66_linear_14_168" x1="37126.1" y1="43657" x2="35669.4" y2="44608.3" gradientUnits="userSpaceOnUse">
<stop stop-color="#FFE9E9"/>
<stop offset="1" stop-color="#FFB7C6"/>
</linearGradient>
<linearGradient id="paint67_linear_14_168" x1="25596.1" y1="112087" x2="30149.6" y2="112087" gradientUnits="userSpaceOnUse">
<stop stop-color="#FF9676"/>
<stop offset="1" stop-color="#E0714F"/>
</linearGradient>
<linearGradient id="paint68_linear_14_168" x1="32795.5" y1="59230.3" x2="35814.2" y2="60986.2" gradientUnits="userSpaceOnUse">
<stop stop-color="#FF9676"/>
<stop offset="1" stop-color="#E0714F"/>
</linearGradient>
<linearGradient id="paint69_linear_14_168" x1="49521.1" y1="67968" x2="46222.1" y2="74283.3" gradientUnits="userSpaceOnUse">
<stop stop-color="#FF9676"/>
<stop offset="1" stop-color="#E0714F"/>
</linearGradient>
<linearGradient id="paint70_linear_14_168" x1="97437.6" y1="94498.1" x2="103283" y2="113062" gradientUnits="userSpaceOnUse">
<stop stop-color="#FF9676"/>
<stop offset="1" stop-color="#E0714F"/>
</linearGradient>
<linearGradient id="paint71_linear_14_168" x1="29553.3" y1="26222.3" x2="29855.8" y2="28225.9" gradientUnits="userSpaceOnUse">
<stop stop-color="#FFE9E9"/>
<stop offset="1" stop-color="#FFB7C6"/>
</linearGradient>
<linearGradient id="paint72_linear_14_168" x1="11819.1" y1="16932.2" x2="12552.1" y2="17236" gradientUnits="userSpaceOnUse">
<stop stop-color="#FFE9E9"/>
<stop offset="1" stop-color="#FFB7C6"/>
</linearGradient>
<linearGradient id="paint73_linear_14_168" x1="14160.2" y1="18329.5" x2="13590" y2="18479.6" gradientUnits="userSpaceOnUse">
<stop stop-color="#FFE9E9"/>
<stop offset="1" stop-color="#FFB7C6"/>
</linearGradient>
<linearGradient id="paint74_linear_14_168" x1="51606.1" y1="70550.4" x2="59553.6" y2="77827.1" gradientUnits="userSpaceOnUse">
<stop stop-color="#68471E"/>
<stop offset="1" stop-color="#51381C"/>
</linearGradient>
<linearGradient id="paint75_linear_14_168" x1="36240.8" y1="18795.3" x2="41799.2" y2="18795.3" gradientUnits="userSpaceOnUse">
<stop stop-color="#C15238"/>
<stop offset="1" stop-color="#A44D32"/>
</linearGradient>
</defs>
</svg>
