<svg width="48" height="48" viewBox="0 0 48 48" fill="none" xmlns="http://www.w3.org/2000/svg">
<circle cx="24" cy="24" r="24" fill="#F2F2F7"/>
<path d="M28.65 17.768C27.7125 16.9341 26.5682 16.3676 25.3367 16.1276C24.1052 15.8877 22.8319 15.9831 21.6499 16.4039C20.468 16.8248 19.4208 17.5555 18.6181 18.5198C17.8154 19.484 17.2866 20.6463 17.087 21.885C16.888 23.1019 17.0158 24.3499 17.4573 25.5013C17.8989 26.6527 18.6383 27.6661 19.6 28.438C19.7216 28.5319 19.8207 28.6519 19.8899 28.7891C19.9591 28.9263 19.9967 29.0773 20 29.231V34H28V29.229C28.0005 29.0806 28.0344 28.9343 28.0992 28.8008C28.1639 28.6674 28.2578 28.5502 28.374 28.458C29.1696 27.8219 29.8165 27.0198 30.2697 26.1076C30.7229 25.1955 30.9713 24.1953 30.9976 23.1771C31.0239 22.1589 30.8274 21.1473 30.4219 20.213C30.0164 19.2786 29.4117 18.4442 28.65 17.768ZM26 32H22V31H26V32ZM27.124 26.9C26.8037 27.1545 26.5394 27.4723 26.3475 27.8337C26.1557 28.195 26.0404 28.592 26.009 29H21.991C21.9565 28.5885 21.8381 28.1884 21.6433 27.8243C21.4485 27.4603 21.1812 27.1399 20.858 26.883C20.1693 26.3306 19.6397 25.6052 19.3235 24.7809C19.0072 23.9567 18.9156 23.0632 19.058 22.192C19.2384 21.1267 19.7565 20.1477 20.5358 19.3994C21.3151 18.651 22.3143 18.173 23.386 18.036C24.4659 17.903 25.5596 18.1259 26.5013 18.6709C27.443 19.2159 28.1813 20.0531 28.604 21.0556C29.0268 22.0582 29.111 23.1712 28.8439 24.226C28.5768 25.2807 27.973 26.2195 27.124 26.9Z" fill="#9188E5"/>
<path d="M34 19H32V21H34V19Z" fill="#9188E5"/>
<path d="M16 19H14V21H16V19Z" fill="#9188E5"/>
<path d="M25 13H23V15H25V13Z" fill="#9188E5"/>
</svg>
