<svg width="48" height="48" viewBox="0 0 48 48" fill="none" xmlns="http://www.w3.org/2000/svg">
<circle cx="24" cy="24" r="24" fill="#F2F2F7"/>
<path d="M29 28H20.387L20.721 27H30.754L33.326 18H18.644L17.744 15H15V17H16.256L18.951 25.984L18.243 28.109C17.6504 28.2579 17.1169 28.583 16.7129 29.0414C16.3089 29.4997 16.0534 30.0698 15.9801 30.6764C15.9068 31.283 16.0191 31.8975 16.3023 32.4389C16.5854 32.9804 17.0261 33.4232 17.5661 33.709C18.1061 33.9948 18.7201 34.1102 19.3271 34.0398C19.934 33.9695 20.5053 33.7167 20.9657 33.315C21.426 32.9132 21.7537 32.3814 21.9055 31.7895C22.0573 31.1977 22.0261 30.5737 21.816 30H26.184C26.0656 30.3203 26.0033 30.6586 26 31C26 31.5933 26.1759 32.1734 26.5056 32.6667C26.8352 33.1601 27.3038 33.5446 27.8519 33.7716C28.4001 33.9987 29.0033 34.0581 29.5853 33.9424C30.1672 33.8266 30.7018 33.5409 31.1213 33.1213C31.5409 32.7018 31.8266 32.1672 31.9424 31.5853C32.0581 31.0033 31.9987 30.4001 31.7716 29.8519C31.5446 29.3038 31.1601 28.8352 30.6667 28.5056C30.1734 28.1759 29.5933 28 29 28ZM30.674 20L29.246 25H20.746L19.246 20H30.674ZM20 31C20 31.1978 19.9414 31.3911 19.8315 31.5556C19.7216 31.72 19.5654 31.8482 19.3827 31.9239C19.2 31.9996 18.9989 32.0194 18.8049 31.9808C18.6109 31.9422 18.4327 31.847 18.2929 31.7071C18.153 31.5673 18.0578 31.3891 18.0192 31.1951C17.9806 31.0011 18.0004 30.8 18.0761 30.6173C18.1518 30.4346 18.28 30.2784 18.4444 30.1685C18.6089 30.0586 18.8022 30 19 30C19.2652 30 19.5196 30.1054 19.7071 30.2929C19.8946 30.4804 20 30.7348 20 31ZM29 32C28.8022 32 28.6089 31.9414 28.4444 31.8315C28.28 31.7216 28.1518 31.5654 28.0761 31.3827C28.0004 31.2 27.9806 30.9989 28.0192 30.8049C28.0578 30.6109 28.153 30.4327 28.2929 30.2929C28.4327 30.153 28.6109 30.0578 28.8049 30.0192C28.9989 29.9806 29.2 30.0004 29.3827 30.0761C29.5654 30.1518 29.7216 30.28 29.8315 30.4444C29.9414 30.6089 30 30.8022 30 31C30 31.2652 29.8946 31.5196 29.7071 31.7071C29.5196 31.8946 29.2652 32 29 32Z" fill="#9188E5"/>
</svg>
